<svg xmlns="http://www.w3.org/2000/svg" viewBox="0 0 1100 150" width="100%" preserveAspectRatio="xMidYMid meet" role="img" aria-label="contribution flow for Wint3rNight">
  <defs>
    <linearGradient id="areaGrad" x1="0" x2="0" y1="0" y2="1">
      <stop offset="0%" stop-color="#8658E3" stop-opacity="0.55"/>
      <stop offset="60%" stop-color="#8658E3" stop-opacity="0.18"/>
      <stop offset="100%" stop-color="#8658E3" stop-opacity="0"/>
    </linearGradient>
    <linearGradient id="lineGrad" x1="0" x2="1" y1="0" y2="0">
      <stop offset="0%" stop-color="#8658E3" stop-opacity="0.55"/>
      <stop offset="50%" stop-color="#8658E3" stop-opacity="1"/>
      <stop offset="100%" stop-color="#9B78E0" stop-opacity="1"/>
    </linearGradient>
  </defs>

  <rect x="0.5" y="0.5" width="1099" height="149" rx="8" fill="#201D26" stroke="#45326A" stroke-width="0.8"/>

  <path d="M 18.00,136.00 C 18.49,136.00 19.95,136.00 20.92,136.00 C 21.90,136.00 22.87,136.00 23.85,136.00 C 24.82,136.00 25.79,136.00 26.77,136.00 C 27.74,136.00 28.72,136.00 29.69,136.00 C 30.67,136.00 31.64,136.00 32.62,136.00 C 33.59,136.00 34.56,136.00 35.54,136.00 C 36.51,136.00 37.49,136.00 38.46,136.00 C 39.44,136.00 40.41,136.00 41.38,136.00 C 42.36,136.00 43.33,136.00 44.31,136.00 C 45.28,136.00 46.26,136.00 47.23,136.00 C 48.21,136.00 49.18,136.00 50.15,136.00 C 51.13,136.00 52.10,136.00 53.08,136.00 C 54.05,136.00 55.03,136.00 56.00,136.00 C 56.97,136.00 57.95,136.00 58.92,136.00 C 59.90,136.00 60.87,136.00 61.85,136.00 C 62.82,136.00 63.79,136.00 64.77,136.00 C 65.74,136.00 66.72,136.00 67.69,136.00 C 68.67,136.00 69.64,136.00 70.62,136.00 C 71.59,136.00 72.56,136.00 73.54,136.00 C 74.51,136.00 75.49,136.00 76.46,136.00 C 77.44,136.00 78.41,136.00 79.38,136.00 C 80.36,136.00 81.33,136.00 82.31,136.00 C 83.28,136.00 84.26,136.00 85.23,136.00 C 86.21,136.00 87.18,136.00 88.15,136.00 C 89.13,136.00 90.10,136.00 91.08,136.00 C 92.05,136.00 93.03,136.00 94.00,136.00 C 94.97,136.00 95.95,136.00 96.92,136.00 C 97.90,136.00 98.87,136.00 99.85,136.00 C 100.82,136.00 101.79,136.00 102.77,136.00 C 103.74,136.00 104.72,136.00 105.69,136.00 C 106.67,136.00 107.64,136.00 108.62,136.00 C 109.59,136.00 110.56,136.00 111.54,136.00 C 112.51,136.00 113.49,136.00 114.46,136.00 C 115.44,136.00 116.41,136.00 117.38,136.00 C 118.36,136.00 119.33,136.00 120.31,136.00 C 121.28,136.00 122.26,136.00 123.23,136.00 C 124.21,136.00 125.18,136.00 126.15,136.00 C 127.13,136.00 128.10,136.00 129.08,136.00 C 130.05,136.00 131.03,136.00 132.00,136.00 C 132.97,136.00 133.95,136.00 134.92,136.00 C 135.90,136.00 136.87,136.00 137.85,136.00 C 138.82,136.00 139.79,136.00 140.77,136.00 C 141.74,136.00 142.72,136.00 143.69,136.00 C 144.67,136.00 145.64,136.00 146.62,136.00 C 147.59,136.00 148.56,136.00 149.54,136.00 C 150.51,136.00 151.49,136.00 152.46,136.00 C 153.44,136.00 154.41,136.00 155.38,136.00 C 156.36,136.00 157.33,136.00 158.31,136.00 C 159.28,136.00 160.26,136.00 161.23,136.00 C 162.21,136.00 163.18,136.00 164.15,136.00 C 165.13,136.00 166.10,136.00 167.08,136.00 C 168.05,136.00 169.03,136.00 170.00,136.00 C 170.97,136.00 171.95,136.00 172.92,136.00 C 173.90,136.00 174.87,136.00 175.85,136.00 C 176.82,136.00 177.79,136.00 178.77,136.00 C 179.74,136.00 180.72,136.00 181.69,136.00 C 182.67,136.00 183.64,136.00 184.62,136.00 C 185.59,136.00 186.56,136.00 187.54,136.00 C 188.51,136.00 189.49,136.00 190.46,136.00 C 191.44,136.00 192.41,136.00 193.38,136.00 C 194.36,136.00 195.33,136.00 196.31,136.00 C 197.28,136.00 198.26,136.00 199.23,136.00 C 200.21,136.00 201.18,136.00 202.15,136.00 C 203.13,136.00 204.10,136.00 205.08,136.00 C 206.05,136.00 207.03,136.00 208.00,136.00 C 208.97,136.00 209.95,136.00 210.92,136.00 C 211.90,136.00 212.87,136.00 213.85,136.00 C 214.82,136.00 215.79,136.00 216.77,136.00 C 217.74,136.00 218.72,136.00 219.69,136.00 C 220.67,136.00 221.64,136.00 222.62,136.00 C 223.59,136.00 224.56,136.00 225.54,136.00 C 226.51,136.00 227.49,136.00 228.46,136.00 C 229.44,136.00 230.41,136.00 231.38,136.00 C 232.36,136.00 233.33,136.00 234.31,136.00 C 235.28,136.00 236.26,136.00 237.23,136.00 C 238.21,136.00 239.18,136.00 240.15,136.00 C 241.13,136.00 242.10,136.00 243.08,136.00 C 244.05,136.00 245.03,136.00 246.00,136.00 C 246.97,136.00 247.95,136.00 248.92,136.00 C 249.90,136.00 250.87,136.00 251.85,136.00 C 252.82,136.00 253.79,136.00 254.77,136.00 C 255.74,136.00 256.72,136.00 257.69,136.00 C 258.67,136.00 259.64,136.00 260.62,136.00 C 261.59,136.00 262.56,136.00 263.54,136.00 C 264.51,136.00 265.49,136.00 266.46,136.00 C 267.44,136.00 268.41,136.00 269.38,136.00 C 270.36,136.00 271.33,136.00 272.31,136.00 C 273.28,136.00 274.26,136.00 275.23,136.00 C 276.21,136.00 277.18,136.00 278.15,136.00 C 279.13,136.00 280.10,136.00 281.08,136.00 C 282.05,136.00 283.03,136.00 284.00,136.00 C 284.97,136.00 285.95,136.00 286.92,136.00 C 287.90,136.00 288.87,136.00 289.85,136.00 C 290.82,136.00 291.79,136.00 292.77,136.00 C 293.74,136.00 294.72,136.00 295.69,136.00 C 296.67,136.00 297.64,136.00 298.62,136.00 C 299.59,136.00 300.56,136.00 301.54,136.00 C 302.51,136.00 303.49,136.00 304.46,136.00 C 305.44,136.00 306.41,136.00 307.38,136.00 C 308.36,136.00 309.33,136.00 310.31,136.00 C 311.28,136.00 312.26,136.00 313.23,136.00 C 314.21,136.00 315.18,136.00 316.15,136.00 C 317.13,136.00 318.10,136.00 319.08,136.00 C 320.05,136.00 321.03,136.00 322.00,136.00 C 322.97,136.00 323.95,136.00 324.92,136.00 C 325.90,136.00 326.87,136.00 327.85,136.00 C 328.82,136.00 329.79,136.00 330.77,136.00 C 331.74,136.00 332.72,136.00 333.69,136.00 C 334.67,136.00 335.64,136.00 336.62,136.00 C 337.59,136.00 338.56,136.00 339.54,136.00 C 340.51,136.00 341.49,136.00 342.46,136.00 C 343.44,136.00 344.41,136.00 345.38,136.00 C 346.36,136.00 347.33,136.00 348.31,136.00 C 349.28,136.00 350.26,136.00 351.23,136.00 C 352.21,136.00 353.18,136.00 354.15,136.00 C 355.13,136.00 356.10,136.00 357.08,136.00 C 358.05,136.00 359.03,136.00 360.00,136.00 C 360.97,136.00 361.95,136.00 362.92,136.00 C 363.90,136.00 364.87,136.00 365.85,136.00 C 366.82,136.00 367.79,136.00 368.77,136.00 C 369.74,136.00 370.72,136.00 371.69,136.00 C 372.67,136.00 373.64,136.00 374.62,136.00 C 375.59,136.00 376.56,136.00 377.54,136.00 C 378.51,136.00 379.49,136.00 380.46,136.00 C 381.44,136.00 382.41,136.00 383.38,136.00 C 384.36,136.00 385.33,136.00 386.31,136.00 C 387.28,136.00 388.26,136.00 389.23,136.00 C 390.21,136.00 391.18,136.00 392.15,136.00 C 393.13,136.00 394.10,136.00 395.08,136.00 C 396.05,136.00 397.03,136.00 398.00,136.00 C 398.97,136.00 399.95,136.00 400.92,136.00 C 401.90,136.00 402.87,136.00 403.85,136.00 C 404.82,136.00 405.79,136.00 406.77,136.00 C 407.74,136.00 408.72,136.00 409.69,136.00 C 410.67,136.00 411.64,136.00 412.62,136.00 C 413.59,136.00 414.56,136.00 415.54,136.00 C 416.51,136.00 417.49,136.00 418.46,136.00 C 419.44,136.00 420.41,136.00 421.38,136.00 C 422.36,136.00 423.33,136.00 424.31,136.00 C 425.28,136.00 426.26,136.00 427.23,136.00 C 428.21,136.00 429.18,136.00 430.15,136.00 C 431.13,136.00 432.10,136.00 433.08,136.00 C 434.05,136.00 435.03,136.00 436.00,136.00 C 436.97,136.00 437.95,136.00 438.92,136.00 C 439.90,136.00 440.87,136.00 441.85,136.00 C 442.82,136.00 443.79,136.00 444.77,136.00 C 445.74,136.00 446.72,136.00 447.69,136.00 C 448.67,136.00 449.64,136.00 450.62,136.00 C 451.59,136.00 452.56,136.00 453.54,136.00 C 454.51,136.00 455.49,136.00 456.46,136.00 C 457.44,136.00 458.41,136.00 459.38,136.00 C 460.36,136.00 461.33,136.00 462.31,136.00 C 463.28,136.00 464.26,136.00 465.23,136.00 C 466.21,136.00 467.18,136.00 468.15,136.00 C 469.13,136.00 470.10,136.00 471.08,136.00 C 472.05,136.00 473.03,136.00 474.00,136.00 C 474.97,136.00 475.95,136.00 476.92,136.00 C 477.90,136.00 478.87,136.00 479.85,136.00 C 480.82,136.00 481.79,136.00 482.77,136.00 C 483.74,136.00 484.72,136.00 485.69,136.00 C 486.67,136.00 487.64,136.00 488.62,136.00 C 489.59,136.00 490.56,136.00 491.54,136.00 C 492.51,136.00 493.49,136.00 494.46,136.00 C 495.44,136.00 496.41,136.00 497.38,136.00 C 498.36,136.00 499.33,136.00 500.31,136.00 C 501.28,136.00 502.26,136.00 503.23,136.00 C 504.21,136.00 505.18,136.00 506.15,136.00 C 507.13,136.00 508.10,136.00 509.08,136.00 C 510.05,136.00 511.03,136.00 512.00,136.00 C 512.97,136.00 513.95,136.00 514.92,136.00 C 515.90,136.00 516.87,136.00 517.85,136.00 C 518.82,136.00 519.79,136.00 520.77,136.00 C 521.74,136.00 522.72,136.00 523.69,136.00 C 524.67,136.00 525.64,136.00 526.62,136.00 C 527.59,136.00 528.56,136.00 529.54,136.00 C 530.51,136.00 531.49,136.00 532.46,136.00 C 533.44,136.00 534.41,136.00 535.38,136.00 C 536.36,136.00 537.33,136.00 538.31,136.00 C 539.28,136.00 540.26,136.00 541.23,136.00 C 542.21,136.00 543.18,136.00 544.15,136.00 C 545.13,136.00 546.10,136.00 547.08,136.00 C 548.05,136.00 549.03,136.00 550.00,136.00 C 550.97,136.00 551.95,136.00 552.92,136.00 C 553.90,136.00 554.87,136.00 555.85,136.00 C 556.82,136.00 557.79,136.00 558.77,136.00 C 559.74,136.00 560.72,136.00 561.69,136.00 C 562.67,136.00 563.64,136.00 564.62,136.00 C 565.59,136.00 566.56,136.00 567.54,136.00 C 568.51,136.00 569.49,136.00 570.46,136.00 C 571.44,136.00 572.41,136.00 573.38,136.00 C 574.36,136.00 575.33,136.00 576.31,136.00 C 577.28,136.00 578.26,136.00 579.23,136.00 C 580.21,136.00 581.18,136.00 582.15,136.00 C 583.13,136.00 584.10,136.00 585.08,136.00 C 586.05,136.00 587.03,136.00 588.00,136.00 C 588.97,136.00 589.95,136.00 590.92,136.00 C 591.90,136.00 592.87,136.00 593.85,136.00 C 594.82,136.00 595.79,136.00 596.77,136.00 C 597.74,136.00 598.72,136.00 599.69,136.00 C 600.67,136.00 601.64,136.00 602.62,136.00 C 603.59,136.00 604.56,136.00 605.54,136.00 C 606.51,136.00 607.49,136.00 608.46,136.00 C 609.44,136.00 610.41,136.00 611.38,136.00 C 612.36,136.00 613.33,136.00 614.31,136.00 C 615.28,136.00 616.26,136.00 617.23,136.00 C 618.21,136.00 619.18,136.00 620.15,136.00 C 621.13,136.00 622.10,136.00 623.08,136.00 C 624.05,136.00 625.03,136.00 626.00,136.00 C 626.97,136.00 627.95,136.00 628.92,136.00 C 629.90,136.00 630.87,136.00 631.85,136.00 C 632.82,136.00 633.79,136.00 634.77,136.00 C 635.74,136.00 636.72,136.00 637.69,136.00 C 638.67,136.00 639.64,136.00 640.62,136.00 C 641.59,136.00 642.56,136.00 643.54,136.00 C 644.51,136.00 645.49,136.00 646.46,136.00 C 647.44,136.00 648.41,136.00 649.38,136.00 C 650.36,136.00 651.33,136.00 652.31,136.00 C 653.28,136.00 654.26,136.00 655.23,136.00 C 656.21,136.00 657.18,136.00 658.15,136.00 C 659.13,136.00 660.10,136.00 661.08,136.00 C 662.05,136.00 663.03,136.00 664.00,136.00 C 664.97,136.00 665.95,136.00 666.92,136.00 C 667.90,136.00 668.87,136.00 669.85,136.00 C 670.82,136.00 671.79,136.00 672.77,136.00 C 673.74,136.00 674.72,136.00 675.69,136.00 C 676.67,136.00 677.64,136.00 678.62,136.00 C 679.59,136.00 680.56,136.00 681.54,136.00 C 682.51,136.00 683.49,136.00 684.46,136.00 C 685.44,136.00 686.41,136.00 687.38,136.00 C 688.36,136.00 689.33,136.00 690.31,136.00 C 691.28,136.00 692.26,136.00 693.23,136.00 C 694.21,136.00 695.18,136.00 696.15,136.00 C 697.13,136.00 698.10,136.00 699.08,136.00 C 700.05,136.00 701.03,136.00 702.00,136.00 C 702.97,136.00 703.95,136.00 704.92,136.00 C 705.90,136.00 706.87,136.00 707.85,136.00 C 708.82,136.00 709.79,136.00 710.77,136.00 C 711.74,136.00 712.72,136.00 713.69,136.00 C 714.67,136.00 715.64,136.00 716.62,136.00 C 717.59,136.00 718.56,136.00 719.54,136.00 C 720.51,136.00 721.49,136.00 722.46,136.00 C 723.44,136.00 724.41,136.00 725.38,136.00 C 726.36,136.00 727.33,136.00 728.31,136.00 C 729.28,136.00 730.26,136.00 731.23,136.00 C 732.21,136.00 733.18,136.00 734.15,136.00 C 735.13,136.00 736.10,136.00 737.08,136.00 C 738.05,136.00 739.03,136.00 740.00,136.00 C 740.97,136.00 741.95,136.00 742.92,136.00 C 743.90,136.00 744.87,136.00 745.85,136.00 C 746.82,136.00 747.79,136.00 748.77,136.00 C 749.74,136.00 750.72,136.00 751.69,136.00 C 752.67,136.00 753.64,136.00 754.62,136.00 C 755.59,136.00 756.56,136.00 757.54,136.00 C 758.51,136.00 759.49,136.00 760.46,136.00 C 761.44,136.00 762.41,136.00 763.38,136.00 C 764.36,136.00 765.33,136.00 766.31,136.00 C 767.28,136.00 768.26,136.00 769.23,136.00 C 770.21,136.00 771.18,136.00 772.15,136.00 C 773.13,136.00 774.10,136.00 775.08,136.00 C 776.05,136.00 777.03,136.00 778.00,136.00 C 778.97,136.00 779.95,136.00 780.92,136.00 C 781.90,136.00 782.87,136.00 783.85,136.00 C 784.82,136.00 785.79,136.00 786.77,136.00 C 787.74,136.00 788.72,136.00 789.69,136.00 C 790.67,136.00 791.64,136.00 792.62,136.00 C 793.59,136.00 794.56,136.00 795.54,136.00 C 796.51,136.00 797.49,136.00 798.46,136.00 C 799.44,136.00 800.41,136.00 801.38,136.00 C 802.36,136.00 803.33,136.00 804.31,136.00 C 805.28,136.00 806.26,136.00 807.23,136.00 C 808.21,136.00 809.18,136.00 810.15,136.00 C 811.13,136.00 812.10,136.00 813.08,136.00 C 814.05,136.00 815.03,136.00 816.00,136.00 C 816.97,136.00 817.95,136.00 818.92,136.00 C 819.90,136.00 820.87,136.00 821.85,136.00 C 822.82,136.00 823.79,136.00 824.77,136.00 C 825.74,136.00 826.72,136.00 827.69,136.00 C 828.67,136.00 829.64,136.00 830.62,136.00 C 831.59,136.00 832.56,136.00 833.54,136.00 C 834.51,136.00 835.49,136.00 836.46,136.00 C 837.44,136.00 838.41,136.00 839.38,136.00 C 840.36,136.00 841.33,136.00 842.31,136.00 C 843.28,136.00 844.26,136.00 845.23,136.00 C 846.21,136.00 847.18,136.00 848.15,136.00 C 849.13,136.00 850.10,136.00 851.08,136.00 C 852.05,136.00 853.03,136.00 854.00,136.00 C 854.97,136.00 855.95,136.00 856.92,136.00 C 857.90,136.00 858.87,136.00 859.85,136.00 C 860.82,136.00 861.79,136.00 862.77,136.00 C 863.74,136.00 864.72,136.00 865.69,136.00 C 866.67,136.00 867.64,136.00 868.62,136.00 C 869.59,136.00 870.56,136.00 871.54,136.00 C 872.51,136.00 873.49,136.00 874.46,136.00 C 875.44,136.00 876.41,136.00 877.38,136.00 C 878.36,136.00 879.33,136.00 880.31,136.00 C 881.28,136.00 882.26,136.00 883.23,136.00 C 884.21,136.00 885.18,136.00 886.15,136.00 C 887.13,136.00 888.10,136.00 889.08,136.00 C 890.05,136.00 891.03,136.00 892.00,136.00 C 892.97,136.00 893.95,136.00 894.92,136.00 C 895.90,136.00 896.87,136.00 897.85,136.00 C 898.82,136.00 899.79,136.00 900.77,136.00 C 901.74,136.00 902.72,136.00 903.69,136.00 C 904.67,136.00 905.64,136.00 906.62,136.00 C 907.59,136.00 908.56,136.00 909.54,136.00 C 910.51,136.00 911.49,136.00 912.46,136.00 C 913.44,136.00 914.41,136.00 915.38,136.00 C 916.36,136.00 917.33,136.00 918.31,136.00 C 919.28,136.00 920.26,136.00 921.23,136.00 C 922.21,136.00 923.18,136.00 924.15,136.00 C 925.13,136.00 926.10,136.00 927.08,136.00 C 928.05,136.00 929.03,136.00 930.00,136.00 C 930.97,136.00 931.95,136.00 932.92,136.00 C 933.90,136.00 934.87,136.00 935.85,136.00 C 936.82,136.00 937.79,136.00 938.77,136.00 C 939.74,136.00 940.72,136.00 941.69,136.00 C 942.67,136.00 943.64,136.00 944.62,136.00 C 945.59,136.00 946.56,136.00 947.54,136.00 C 948.51,136.00 949.49,136.00 950.46,136.00 C 951.44,136.00 952.41,136.00 953.38,136.00 C 954.36,136.00 955.33,136.00 956.31,136.00 C 957.28,136.00 958.26,136.00 959.23,136.00 C 960.21,136.00 961.18,136.00 962.15,136.00 C 963.13,136.00 964.10,136.00 965.08,136.00 C 966.05,136.00 967.03,136.00 968.00,136.00 C 968.97,136.00 969.95,136.00 970.92,136.00 C 971.90,136.00 972.87,136.00 973.85,136.00 C 974.82,136.00 975.79,136.00 976.77,136.00 C 977.74,136.00 978.72,136.00 979.69,136.00 C 980.67,136.00 981.64,136.00 982.62,136.00 C 983.59,136.00 984.56,136.00 985.54,136.00 C 986.51,136.00 987.49,136.00 988.46,136.00 C 989.44,136.00 990.41,136.00 991.38,136.00 C 992.36,136.00 993.33,136.00 994.31,136.00 C 995.28,136.00 996.26,136.00 997.23,136.00 C 998.21,136.00 999.18,136.00 1000.15,136.00 C 1001.13,136.00 1002.10,136.00 1003.08,136.00 C 1004.05,136.00 1005.03,136.00 1006.00,136.00 C 1006.97,136.00 1007.95,136.00 1008.92,136.00 C 1009.90,136.00 1010.87,136.00 1011.85,136.00 C 1012.82,136.00 1013.79,136.00 1014.77,136.00 C 1015.74,136.00 1016.72,136.00 1017.69,136.00 C 1018.67,136.00 1019.64,136.00 1020.62,136.00 C 1021.59,136.00 1022.56,136.00 1023.54,136.00 C 1024.51,136.00 1025.49,136.00 1026.46,136.00 C 1027.44,136.00 1028.41,136.00 1029.38,136.00 C 1030.36,136.00 1031.33,136.00 1032.31,136.00 C 1033.28,136.00 1034.26,136.00 1035.23,136.00 C 1036.21,136.00 1037.18,136.00 1038.15,136.00 C 1039.13,136.00 1040.10,136.00 1041.08,136.00 C 1042.05,136.00 1043.03,136.00 1044.00,136.00 C 1044.97,136.00 1045.95,136.00 1046.92,136.00 C 1047.90,136.00 1048.87,136.00 1049.85,136.00 C 1050.82,136.00 1051.79,136.00 1052.77,136.00 C 1053.74,136.00 1054.72,136.00 1055.69,136.00 C 1056.67,136.00 1057.64,136.00 1058.62,136.00 C 1059.59,136.00 1060.56,136.00 1061.54,136.00 C 1062.51,136.00 1063.49,136.00 1064.46,136.00 C 1065.44,136.00 1066.41,136.00 1067.38,136.00 C 1068.36,136.00 1069.33,136.00 1070.31,136.00 C 1071.28,136.00 1072.26,136.00 1073.23,136.00 C 1074.21,136.00 1075.18,136.00 1076.15,136.00 C 1077.13,136.00 1078.10,136.00 1079.08,136.00 C 1080.05,136.00 1081.51,136.00 1082.00,136.00 L 1082.00,136.00 L 18.00,136.00 Z" fill="url(#areaGrad)">
    <animate attributeName="opacity" from="0" to="1" dur="2.5s" fill="freeze" begin="0.3s"/>
  </path>

  <path d="M 18.00,136.00 C 18.49,136.00 19.95,136.00 20.92,136.00 C 21.90,136.00 22.87,136.00 23.85,136.00 C 24.82,136.00 25.79,136.00 26.77,136.00 C 27.74,136.00 28.72,136.00 29.69,136.00 C 30.67,136.00 31.64,136.00 32.62,136.00 C 33.59,136.00 34.56,136.00 35.54,136.00 C 36.51,136.00 37.49,136.00 38.46,136.00 C 39.44,136.00 40.41,136.00 41.38,136.00 C 42.36,136.00 43.33,136.00 44.31,136.00 C 45.28,136.00 46.26,136.00 47.23,136.00 C 48.21,136.00 49.18,136.00 50.15,136.00 C 51.13,136.00 52.10,136.00 53.08,136.00 C 54.05,136.00 55.03,136.00 56.00,136.00 C 56.97,136.00 57.95,136.00 58.92,136.00 C 59.90,136.00 60.87,136.00 61.85,136.00 C 62.82,136.00 63.79,136.00 64.77,136.00 C 65.74,136.00 66.72,136.00 67.69,136.00 C 68.67,136.00 69.64,136.00 70.62,136.00 C 71.59,136.00 72.56,136.00 73.54,136.00 C 74.51,136.00 75.49,136.00 76.46,136.00 C 77.44,136.00 78.41,136.00 79.38,136.00 C 80.36,136.00 81.33,136.00 82.31,136.00 C 83.28,136.00 84.26,136.00 85.23,136.00 C 86.21,136.00 87.18,136.00 88.15,136.00 C 89.13,136.00 90.10,136.00 91.08,136.00 C 92.05,136.00 93.03,136.00 94.00,136.00 C 94.97,136.00 95.95,136.00 96.92,136.00 C 97.90,136.00 98.87,136.00 99.85,136.00 C 100.82,136.00 101.79,136.00 102.77,136.00 C 103.74,136.00 104.72,136.00 105.69,136.00 C 106.67,136.00 107.64,136.00 108.62,136.00 C 109.59,136.00 110.56,136.00 111.54,136.00 C 112.51,136.00 113.49,136.00 114.46,136.00 C 115.44,136.00 116.41,136.00 117.38,136.00 C 118.36,136.00 119.33,136.00 120.31,136.00 C 121.28,136.00 122.26,136.00 123.23,136.00 C 124.21,136.00 125.18,136.00 126.15,136.00 C 127.13,136.00 128.10,136.00 129.08,136.00 C 130.05,136.00 131.03,136.00 132.00,136.00 C 132.97,136.00 133.95,136.00 134.92,136.00 C 135.90,136.00 136.87,136.00 137.85,136.00 C 138.82,136.00 139.79,136.00 140.77,136.00 C 141.74,136.00 142.72,136.00 143.69,136.00 C 144.67,136.00 145.64,136.00 146.62,136.00 C 147.59,136.00 148.56,136.00 149.54,136.00 C 150.51,136.00 151.49,136.00 152.46,136.00 C 153.44,136.00 154.41,136.00 155.38,136.00 C 156.36,136.00 157.33,136.00 158.31,136.00 C 159.28,136.00 160.26,136.00 161.23,136.00 C 162.21,136.00 163.18,136.00 164.15,136.00 C 165.13,136.00 166.10,136.00 167.08,136.00 C 168.05,136.00 169.03,136.00 170.00,136.00 C 170.97,136.00 171.95,136.00 172.92,136.00 C 173.90,136.00 174.87,136.00 175.85,136.00 C 176.82,136.00 177.79,136.00 178.77,136.00 C 179.74,136.00 180.72,136.00 181.69,136.00 C 182.67,136.00 183.64,136.00 184.62,136.00 C 185.59,136.00 186.56,136.00 187.54,136.00 C 188.51,136.00 189.49,136.00 190.46,136.00 C 191.44,136.00 192.41,136.00 193.38,136.00 C 194.36,136.00 195.33,136.00 196.31,136.00 C 197.28,136.00 198.26,136.00 199.23,136.00 C 200.21,136.00 201.18,136.00 202.15,136.00 C 203.13,136.00 204.10,136.00 205.08,136.00 C 206.05,136.00 207.03,136.00 208.00,136.00 C 208.97,136.00 209.95,136.00 210.92,136.00 C 211.90,136.00 212.87,136.00 213.85,136.00 C 214.82,136.00 215.79,136.00 216.77,136.00 C 217.74,136.00 218.72,136.00 219.69,136.00 C 220.67,136.00 221.64,136.00 222.62,136.00 C 223.59,136.00 224.56,136.00 225.54,136.00 C 226.51,136.00 227.49,136.00 228.46,136.00 C 229.44,136.00 230.41,136.00 231.38,136.00 C 232.36,136.00 233.33,136.00 234.31,136.00 C 235.28,136.00 236.26,136.00 237.23,136.00 C 238.21,136.00 239.18,136.00 240.15,136.00 C 241.13,136.00 242.10,136.00 243.08,136.00 C 244.05,136.00 245.03,136.00 246.00,136.00 C 246.97,136.00 247.95,136.00 248.92,136.00 C 249.90,136.00 250.87,136.00 251.85,136.00 C 252.82,136.00 253.79,136.00 254.77,136.00 C 255.74,136.00 256.72,136.00 257.69,136.00 C 258.67,136.00 259.64,136.00 260.62,136.00 C 261.59,136.00 262.56,136.00 263.54,136.00 C 264.51,136.00 265.49,136.00 266.46,136.00 C 267.44,136.00 268.41,136.00 269.38,136.00 C 270.36,136.00 271.33,136.00 272.31,136.00 C 273.28,136.00 274.26,136.00 275.23,136.00 C 276.21,136.00 277.18,136.00 278.15,136.00 C 279.13,136.00 280.10,136.00 281.08,136.00 C 282.05,136.00 283.03,136.00 284.00,136.00 C 284.97,136.00 285.95,136.00 286.92,136.00 C 287.90,136.00 288.87,136.00 289.85,136.00 C 290.82,136.00 291.79,136.00 292.77,136.00 C 293.74,136.00 294.72,136.00 295.69,136.00 C 296.67,136.00 297.64,136.00 298.62,136.00 C 299.59,136.00 300.56,136.00 301.54,136.00 C 302.51,136.00 303.49,136.00 304.46,136.00 C 305.44,136.00 306.41,136.00 307.38,136.00 C 308.36,136.00 309.33,136.00 310.31,136.00 C 311.28,136.00 312.26,136.00 313.23,136.00 C 314.21,136.00 315.18,136.00 316.15,136.00 C 317.13,136.00 318.10,136.00 319.08,136.00 C 320.05,136.00 321.03,136.00 322.00,136.00 C 322.97,136.00 323.95,136.00 324.92,136.00 C 325.90,136.00 326.87,136.00 327.85,136.00 C 328.82,136.00 329.79,136.00 330.77,136.00 C 331.74,136.00 332.72,136.00 333.69,136.00 C 334.67,136.00 335.64,136.00 336.62,136.00 C 337.59,136.00 338.56,136.00 339.54,136.00 C 340.51,136.00 341.49,136.00 342.46,136.00 C 343.44,136.00 344.41,136.00 345.38,136.00 C 346.36,136.00 347.33,136.00 348.31,136.00 C 349.28,136.00 350.26,136.00 351.23,136.00 C 352.21,136.00 353.18,136.00 354.15,136.00 C 355.13,136.00 356.10,136.00 357.08,136.00 C 358.05,136.00 359.03,136.00 360.00,136.00 C 360.97,136.00 361.95,136.00 362.92,136.00 C 363.90,136.00 364.87,136.00 365.85,136.00 C 366.82,136.00 367.79,136.00 368.77,136.00 C 369.74,136.00 370.72,136.00 371.69,136.00 C 372.67,136.00 373.64,136.00 374.62,136.00 C 375.59,136.00 376.56,136.00 377.54,136.00 C 378.51,136.00 379.49,136.00 380.46,136.00 C 381.44,136.00 382.41,136.00 383.38,136.00 C 384.36,136.00 385.33,136.00 386.31,136.00 C 387.28,136.00 388.26,136.00 389.23,136.00 C 390.21,136.00 391.18,136.00 392.15,136.00 C 393.13,136.00 394.10,136.00 395.08,136.00 C 396.05,136.00 397.03,136.00 398.00,136.00 C 398.97,136.00 399.95,136.00 400.92,136.00 C 401.90,136.00 402.87,136.00 403.85,136.00 C 404.82,136.00 405.79,136.00 406.77,136.00 C 407.74,136.00 408.72,136.00 409.69,136.00 C 410.67,136.00 411.64,136.00 412.62,136.00 C 413.59,136.00 414.56,136.00 415.54,136.00 C 416.51,136.00 417.49,136.00 418.46,136.00 C 419.44,136.00 420.41,136.00 421.38,136.00 C 422.36,136.00 423.33,136.00 424.31,136.00 C 425.28,136.00 426.26,136.00 427.23,136.00 C 428.21,136.00 429.18,136.00 430.15,136.00 C 431.13,136.00 432.10,136.00 433.08,136.00 C 434.05,136.00 435.03,136.00 436.00,136.00 C 436.97,136.00 437.95,136.00 438.92,136.00 C 439.90,136.00 440.87,136.00 441.85,136.00 C 442.82,136.00 443.79,136.00 444.77,136.00 C 445.74,136.00 446.72,136.00 447.69,136.00 C 448.67,136.00 449.64,136.00 450.62,136.00 C 451.59,136.00 452.56,136.00 453.54,136.00 C 454.51,136.00 455.49,136.00 456.46,136.00 C 457.44,136.00 458.41,136.00 459.38,136.00 C 460.36,136.00 461.33,136.00 462.31,136.00 C 463.28,136.00 464.26,136.00 465.23,136.00 C 466.21,136.00 467.18,136.00 468.15,136.00 C 469.13,136.00 470.10,136.00 471.08,136.00 C 472.05,136.00 473.03,136.00 474.00,136.00 C 474.97,136.00 475.95,136.00 476.92,136.00 C 477.90,136.00 478.87,136.00 479.85,136.00 C 480.82,136.00 481.79,136.00 482.77,136.00 C 483.74,136.00 484.72,136.00 485.69,136.00 C 486.67,136.00 487.64,136.00 488.62,136.00 C 489.59,136.00 490.56,136.00 491.54,136.00 C 492.51,136.00 493.49,136.00 494.46,136.00 C 495.44,136.00 496.41,136.00 497.38,136.00 C 498.36,136.00 499.33,136.00 500.31,136.00 C 501.28,136.00 502.26,136.00 503.23,136.00 C 504.21,136.00 505.18,136.00 506.15,136.00 C 507.13,136.00 508.10,136.00 509.08,136.00 C 510.05,136.00 511.03,136.00 512.00,136.00 C 512.97,136.00 513.95,136.00 514.92,136.00 C 515.90,136.00 516.87,136.00 517.85,136.00 C 518.82,136.00 519.79,136.00 520.77,136.00 C 521.74,136.00 522.72,136.00 523.69,136.00 C 524.67,136.00 525.64,136.00 526.62,136.00 C 527.59,136.00 528.56,136.00 529.54,136.00 C 530.51,136.00 531.49,136.00 532.46,136.00 C 533.44,136.00 534.41,136.00 535.38,136.00 C 536.36,136.00 537.33,136.00 538.31,136.00 C 539.28,136.00 540.26,136.00 541.23,136.00 C 542.21,136.00 543.18,136.00 544.15,136.00 C 545.13,136.00 546.10,136.00 547.08,136.00 C 548.05,136.00 549.03,136.00 550.00,136.00 C 550.97,136.00 551.95,136.00 552.92,136.00 C 553.90,136.00 554.87,136.00 555.85,136.00 C 556.82,136.00 557.79,136.00 558.77,136.00 C 559.74,136.00 560.72,136.00 561.69,136.00 C 562.67,136.00 563.64,136.00 564.62,136.00 C 565.59,136.00 566.56,136.00 567.54,136.00 C 568.51,136.00 569.49,136.00 570.46,136.00 C 571.44,136.00 572.41,136.00 573.38,136.00 C 574.36,136.00 575.33,136.00 576.31,136.00 C 577.28,136.00 578.26,136.00 579.23,136.00 C 580.21,136.00 581.18,136.00 582.15,136.00 C 583.13,136.00 584.10,136.00 585.08,136.00 C 586.05,136.00 587.03,136.00 588.00,136.00 C 588.97,136.00 589.95,136.00 590.92,136.00 C 591.90,136.00 592.87,136.00 593.85,136.00 C 594.82,136.00 595.79,136.00 596.77,136.00 C 597.74,136.00 598.72,136.00 599.69,136.00 C 600.67,136.00 601.64,136.00 602.62,136.00 C 603.59,136.00 604.56,136.00 605.54,136.00 C 606.51,136.00 607.49,136.00 608.46,136.00 C 609.44,136.00 610.41,136.00 611.38,136.00 C 612.36,136.00 613.33,136.00 614.31,136.00 C 615.28,136.00 616.26,136.00 617.23,136.00 C 618.21,136.00 619.18,136.00 620.15,136.00 C 621.13,136.00 622.10,136.00 623.08,136.00 C 624.05,136.00 625.03,136.00 626.00,136.00 C 626.97,136.00 627.95,136.00 628.92,136.00 C 629.90,136.00 630.87,136.00 631.85,136.00 C 632.82,136.00 633.79,136.00 634.77,136.00 C 635.74,136.00 636.72,136.00 637.69,136.00 C 638.67,136.00 639.64,136.00 640.62,136.00 C 641.59,136.00 642.56,136.00 643.54,136.00 C 644.51,136.00 645.49,136.00 646.46,136.00 C 647.44,136.00 648.41,136.00 649.38,136.00 C 650.36,136.00 651.33,136.00 652.31,136.00 C 653.28,136.00 654.26,136.00 655.23,136.00 C 656.21,136.00 657.18,136.00 658.15,136.00 C 659.13,136.00 660.10,136.00 661.08,136.00 C 662.05,136.00 663.03,136.00 664.00,136.00 C 664.97,136.00 665.95,136.00 666.92,136.00 C 667.90,136.00 668.87,136.00 669.85,136.00 C 670.82,136.00 671.79,136.00 672.77,136.00 C 673.74,136.00 674.72,136.00 675.69,136.00 C 676.67,136.00 677.64,136.00 678.62,136.00 C 679.59,136.00 680.56,136.00 681.54,136.00 C 682.51,136.00 683.49,136.00 684.46,136.00 C 685.44,136.00 686.41,136.00 687.38,136.00 C 688.36,136.00 689.33,136.00 690.31,136.00 C 691.28,136.00 692.26,136.00 693.23,136.00 C 694.21,136.00 695.18,136.00 696.15,136.00 C 697.13,136.00 698.10,136.00 699.08,136.00 C 700.05,136.00 701.03,136.00 702.00,136.00 C 702.97,136.00 703.95,136.00 704.92,136.00 C 705.90,136.00 706.87,136.00 707.85,136.00 C 708.82,136.00 709.79,136.00 710.77,136.00 C 711.74,136.00 712.72,136.00 713.69,136.00 C 714.67,136.00 715.64,136.00 716.62,136.00 C 717.59,136.00 718.56,136.00 719.54,136.00 C 720.51,136.00 721.49,136.00 722.46,136.00 C 723.44,136.00 724.41,136.00 725.38,136.00 C 726.36,136.00 727.33,136.00 728.31,136.00 C 729.28,136.00 730.26,136.00 731.23,136.00 C 732.21,136.00 733.18,136.00 734.15,136.00 C 735.13,136.00 736.10,136.00 737.08,136.00 C 738.05,136.00 739.03,136.00 740.00,136.00 C 740.97,136.00 741.95,136.00 742.92,136.00 C 743.90,136.00 744.87,136.00 745.85,136.00 C 746.82,136.00 747.79,136.00 748.77,136.00 C 749.74,136.00 750.72,136.00 751.69,136.00 C 752.67,136.00 753.64,136.00 754.62,136.00 C 755.59,136.00 756.56,136.00 757.54,136.00 C 758.51,136.00 759.49,136.00 760.46,136.00 C 761.44,136.00 762.41,136.00 763.38,136.00 C 764.36,136.00 765.33,136.00 766.31,136.00 C 767.28,136.00 768.26,136.00 769.23,136.00 C 770.21,136.00 771.18,136.00 772.15,136.00 C 773.13,136.00 774.10,136.00 775.08,136.00 C 776.05,136.00 777.03,136.00 778.00,136.00 C 778.97,136.00 779.95,136.00 780.92,136.00 C 781.90,136.00 782.87,136.00 783.85,136.00 C 784.82,136.00 785.79,136.00 786.77,136.00 C 787.74,136.00 788.72,136.00 789.69,136.00 C 790.67,136.00 791.64,136.00 792.62,136.00 C 793.59,136.00 794.56,136.00 795.54,136.00 C 796.51,136.00 797.49,136.00 798.46,136.00 C 799.44,136.00 800.41,136.00 801.38,136.00 C 802.36,136.00 803.33,136.00 804.31,136.00 C 805.28,136.00 806.26,136.00 807.23,136.00 C 808.21,136.00 809.18,136.00 810.15,136.00 C 811.13,136.00 812.10,136.00 813.08,136.00 C 814.05,136.00 815.03,136.00 816.00,136.00 C 816.97,136.00 817.95,136.00 818.92,136.00 C 819.90,136.00 820.87,136.00 821.85,136.00 C 822.82,136.00 823.79,136.00 824.77,136.00 C 825.74,136.00 826.72,136.00 827.69,136.00 C 828.67,136.00 829.64,136.00 830.62,136.00 C 831.59,136.00 832.56,136.00 833.54,136.00 C 834.51,136.00 835.49,136.00 836.46,136.00 C 837.44,136.00 838.41,136.00 839.38,136.00 C 840.36,136.00 841.33,136.00 842.31,136.00 C 843.28,136.00 844.26,136.00 845.23,136.00 C 846.21,136.00 847.18,136.00 848.15,136.00 C 849.13,136.00 850.10,136.00 851.08,136.00 C 852.05,136.00 853.03,136.00 854.00,136.00 C 854.97,136.00 855.95,136.00 856.92,136.00 C 857.90,136.00 858.87,136.00 859.85,136.00 C 860.82,136.00 861.79,136.00 862.77,136.00 C 863.74,136.00 864.72,136.00 865.69,136.00 C 866.67,136.00 867.64,136.00 868.62,136.00 C 869.59,136.00 870.56,136.00 871.54,136.00 C 872.51,136.00 873.49,136.00 874.46,136.00 C 875.44,136.00 876.41,136.00 877.38,136.00 C 878.36,136.00 879.33,136.00 880.31,136.00 C 881.28,136.00 882.26,136.00 883.23,136.00 C 884.21,136.00 885.18,136.00 886.15,136.00 C 887.13,136.00 888.10,136.00 889.08,136.00 C 890.05,136.00 891.03,136.00 892.00,136.00 C 892.97,136.00 893.95,136.00 894.92,136.00 C 895.90,136.00 896.87,136.00 897.85,136.00 C 898.82,136.00 899.79,136.00 900.77,136.00 C 901.74,136.00 902.72,136.00 903.69,136.00 C 904.67,136.00 905.64,136.00 906.62,136.00 C 907.59,136.00 908.56,136.00 909.54,136.00 C 910.51,136.00 911.49,136.00 912.46,136.00 C 913.44,136.00 914.41,136.00 915.38,136.00 C 916.36,136.00 917.33,136.00 918.31,136.00 C 919.28,136.00 920.26,136.00 921.23,136.00 C 922.21,136.00 923.18,136.00 924.15,136.00 C 925.13,136.00 926.10,136.00 927.08,136.00 C 928.05,136.00 929.03,136.00 930.00,136.00 C 930.97,136.00 931.95,136.00 932.92,136.00 C 933.90,136.00 934.87,136.00 935.85,136.00 C 936.82,136.00 937.79,136.00 938.77,136.00 C 939.74,136.00 940.72,136.00 941.69,136.00 C 942.67,136.00 943.64,136.00 944.62,136.00 C 945.59,136.00 946.56,136.00 947.54,136.00 C 948.51,136.00 949.49,136.00 950.46,136.00 C 951.44,136.00 952.41,136.00 953.38,136.00 C 954.36,136.00 955.33,136.00 956.31,136.00 C 957.28,136.00 958.26,136.00 959.23,136.00 C 960.21,136.00 961.18,136.00 962.15,136.00 C 963.13,136.00 964.10,136.00 965.08,136.00 C 966.05,136.00 967.03,136.00 968.00,136.00 C 968.97,136.00 969.95,136.00 970.92,136.00 C 971.90,136.00 972.87,136.00 973.85,136.00 C 974.82,136.00 975.79,136.00 976.77,136.00 C 977.74,136.00 978.72,136.00 979.69,136.00 C 980.67,136.00 981.64,136.00 982.62,136.00 C 983.59,136.00 984.56,136.00 985.54,136.00 C 986.51,136.00 987.49,136.00 988.46,136.00 C 989.44,136.00 990.41,136.00 991.38,136.00 C 992.36,136.00 993.33,136.00 994.31,136.00 C 995.28,136.00 996.26,136.00 997.23,136.00 C 998.21,136.00 999.18,136.00 1000.15,136.00 C 1001.13,136.00 1002.10,136.00 1003.08,136.00 C 1004.05,136.00 1005.03,136.00 1006.00,136.00 C 1006.97,136.00 1007.95,136.00 1008.92,136.00 C 1009.90,136.00 1010.87,136.00 1011.85,136.00 C 1012.82,136.00 1013.79,136.00 1014.77,136.00 C 1015.74,136.00 1016.72,136.00 1017.69,136.00 C 1018.67,136.00 1019.64,136.00 1020.62,136.00 C 1021.59,136.00 1022.56,136.00 1023.54,136.00 C 1024.51,136.00 1025.49,136.00 1026.46,136.00 C 1027.44,136.00 1028.41,136.00 1029.38,136.00 C 1030.36,136.00 1031.33,136.00 1032.31,136.00 C 1033.28,136.00 1034.26,136.00 1035.23,136.00 C 1036.21,136.00 1037.18,136.00 1038.15,136.00 C 1039.13,136.00 1040.10,136.00 1041.08,136.00 C 1042.05,136.00 1043.03,136.00 1044.00,136.00 C 1044.97,136.00 1045.95,136.00 1046.92,136.00 C 1047.90,136.00 1048.87,136.00 1049.85,136.00 C 1050.82,136.00 1051.79,136.00 1052.77,136.00 C 1053.74,136.00 1054.72,136.00 1055.69,136.00 C 1056.67,136.00 1057.64,136.00 1058.62,136.00 C 1059.59,136.00 1060.56,136.00 1061.54,136.00 C 1062.51,136.00 1063.49,136.00 1064.46,136.00 C 1065.44,136.00 1066.41,136.00 1067.38,136.00 C 1068.36,136.00 1069.33,136.00 1070.31,136.00 C 1071.28,136.00 1072.26,136.00 1073.23,136.00 C 1074.21,136.00 1075.18,136.00 1076.15,136.00 C 1077.13,136.00 1078.10,136.00 1079.08,136.00 C 1080.05,136.00 1081.51,136.00 1082.00,136.00" fill="none" stroke="url(#lineGrad)" stroke-width="2" stroke-linecap="round" stroke-linejoin="round"
        stroke-dasharray="1202" stroke-dashoffset="1202">
    <animate attributeName="stroke-dashoffset" from="1202" to="0" dur="2.5s" fill="freeze" begin="0s"/>
  </path>

  <circle cx="18.00" cy="136.00" r="0" fill="#8658E3" stroke="#DADADA" stroke-width="1.2">
    <animate attributeName="r" values="0;4;3" keyTimes="0;0.6;1" dur="0.6s" begin="2.4s" fill="freeze"/>
  </circle>

  <line x1="18.0" y1="18" x2="18.0" y2="136" stroke="#8658E3" stroke-width="1.2" stroke-dasharray="3 3" opacity="0.6"><animate attributeName="x1" from="18.0" to="1082.0" dur="3s" begin="2.6s" fill="freeze"/><animate attributeName="x2" from="18.0" to="1082.0" dur="3s" begin="2.6s" fill="freeze"/><animate attributeName="opacity" from="0.6" to="0" dur="0.6s" begin="5.5s" fill="freeze"/></line>

  <!-- per-day hover tooltips (browser-native <title>) -->
  <rect x="16.5" y="18" width="2.9" height="118" fill="transparent" cursor="crosshair"><title>2025-05-20 · 0 contributions</title></rect>
  <rect x="19.5" y="18" width="2.9" height="118" fill="transparent" cursor="crosshair"><title>2025-05-21 · 0 contributions</title></rect>
  <rect x="22.4" y="18" width="2.9" height="118" fill="transparent" cursor="crosshair"><title>2025-05-22 · 0 contributions</title></rect>
  <rect x="25.3" y="18" width="2.9" height="118" fill="transparent" cursor="crosshair"><title>2025-05-23 · 0 contributions</title></rect>
  <rect x="28.2" y="18" width="2.9" height="118" fill="transparent" cursor="crosshair"><title>2025-05-24 · 0 contributions</title></rect>
  <rect x="31.2" y="18" width="2.9" height="118" fill="transparent" cursor="crosshair"><title>2025-05-25 · 0 contributions</title></rect>
  <rect x="34.1" y="18" width="2.9" height="118" fill="transparent" cursor="crosshair"><title>2025-05-26 · 0 contributions</title></rect>
  <rect x="37.0" y="18" width="2.9" height="118" fill="transparent" cursor="crosshair"><title>2025-05-27 · 0 contributions</title></rect>
  <rect x="39.9" y="18" width="2.9" height="118" fill="transparent" cursor="crosshair"><title>2025-05-28 · 0 contributions</title></rect>
  <rect x="42.8" y="18" width="2.9" height="118" fill="transparent" cursor="crosshair"><title>2025-05-29 · 0 contributions</title></rect>
  <rect x="45.8" y="18" width="2.9" height="118" fill="transparent" cursor="crosshair"><title>2025-05-30 · 0 contributions</title></rect>
  <rect x="48.7" y="18" width="2.9" height="118" fill="transparent" cursor="crosshair"><title>2025-05-31 · 0 contributions</title></rect>
  <rect x="51.6" y="18" width="2.9" height="118" fill="transparent" cursor="crosshair"><title>2025-06-01 · 0 contributions</title></rect>
  <rect x="54.5" y="18" width="2.9" height="118" fill="transparent" cursor="crosshair"><title>2025-06-02 · 0 contributions</title></rect>
  <rect x="57.5" y="18" width="2.9" height="118" fill="transparent" cursor="crosshair"><title>2025-06-03 · 0 contributions</title></rect>
  <rect x="60.4" y="18" width="2.9" height="118" fill="transparent" cursor="crosshair"><title>2025-06-04 · 0 contributions</title></rect>
  <rect x="63.3" y="18" width="2.9" height="118" fill="transparent" cursor="crosshair"><title>2025-06-05 · 0 contributions</title></rect>
  <rect x="66.2" y="18" width="2.9" height="118" fill="transparent" cursor="crosshair"><title>2025-06-06 · 0 contributions</title></rect>
  <rect x="69.2" y="18" width="2.9" height="118" fill="transparent" cursor="crosshair"><title>2025-06-07 · 0 contributions</title></rect>
  <rect x="72.1" y="18" width="2.9" height="118" fill="transparent" cursor="crosshair"><title>2025-06-08 · 0 contributions</title></rect>
  <rect x="75.0" y="18" width="2.9" height="118" fill="transparent" cursor="crosshair"><title>2025-06-09 · 0 contributions</title></rect>
  <rect x="77.9" y="18" width="2.9" height="118" fill="transparent" cursor="crosshair"><title>2025-06-10 · 0 contributions</title></rect>
  <rect x="80.8" y="18" width="2.9" height="118" fill="transparent" cursor="crosshair"><title>2025-06-11 · 0 contributions</title></rect>
  <rect x="83.8" y="18" width="2.9" height="118" fill="transparent" cursor="crosshair"><title>2025-06-12 · 0 contributions</title></rect>
  <rect x="86.7" y="18" width="2.9" height="118" fill="transparent" cursor="crosshair"><title>2025-06-13 · 0 contributions</title></rect>
  <rect x="89.6" y="18" width="2.9" height="118" fill="transparent" cursor="crosshair"><title>2025-06-14 · 0 contributions</title></rect>
  <rect x="92.5" y="18" width="2.9" height="118" fill="transparent" cursor="crosshair"><title>2025-06-15 · 0 contributions</title></rect>
  <rect x="95.5" y="18" width="2.9" height="118" fill="transparent" cursor="crosshair"><title>2025-06-16 · 0 contributions</title></rect>
  <rect x="98.4" y="18" width="2.9" height="118" fill="transparent" cursor="crosshair"><title>2025-06-17 · 0 contributions</title></rect>
  <rect x="101.3" y="18" width="2.9" height="118" fill="transparent" cursor="crosshair"><title>2025-06-18 · 0 contributions</title></rect>
  <rect x="104.2" y="18" width="2.9" height="118" fill="transparent" cursor="crosshair"><title>2025-06-19 · 0 contributions</title></rect>
  <rect x="107.2" y="18" width="2.9" height="118" fill="transparent" cursor="crosshair"><title>2025-06-20 · 0 contributions</title></rect>
  <rect x="110.1" y="18" width="2.9" height="118" fill="transparent" cursor="crosshair"><title>2025-06-21 · 0 contributions</title></rect>
  <rect x="113.0" y="18" width="2.9" height="118" fill="transparent" cursor="crosshair"><title>2025-06-22 · 0 contributions</title></rect>
  <rect x="115.9" y="18" width="2.9" height="118" fill="transparent" cursor="crosshair"><title>2025-06-23 · 0 contributions</title></rect>
  <rect x="118.8" y="18" width="2.9" height="118" fill="transparent" cursor="crosshair"><title>2025-06-24 · 0 contributions</title></rect>
  <rect x="121.8" y="18" width="2.9" height="118" fill="transparent" cursor="crosshair"><title>2025-06-25 · 0 contributions</title></rect>
  <rect x="124.7" y="18" width="2.9" height="118" fill="transparent" cursor="crosshair"><title>2025-06-26 · 0 contributions</title></rect>
  <rect x="127.6" y="18" width="2.9" height="118" fill="transparent" cursor="crosshair"><title>2025-06-27 · 0 contributions</title></rect>
  <rect x="130.5" y="18" width="2.9" height="118" fill="transparent" cursor="crosshair"><title>2025-06-28 · 0 contributions</title></rect>
  <rect x="133.5" y="18" width="2.9" height="118" fill="transparent" cursor="crosshair"><title>2025-06-29 · 0 contributions</title></rect>
  <rect x="136.4" y="18" width="2.9" height="118" fill="transparent" cursor="crosshair"><title>2025-06-30 · 0 contributions</title></rect>
  <rect x="139.3" y="18" width="2.9" height="118" fill="transparent" cursor="crosshair"><title>2025-07-01 · 0 contributions</title></rect>
  <rect x="142.2" y="18" width="2.9" height="118" fill="transparent" cursor="crosshair"><title>2025-07-02 · 0 contributions</title></rect>
  <rect x="145.2" y="18" width="2.9" height="118" fill="transparent" cursor="crosshair"><title>2025-07-03 · 0 contributions</title></rect>
  <rect x="148.1" y="18" width="2.9" height="118" fill="transparent" cursor="crosshair"><title>2025-07-04 · 0 contributions</title></rect>
  <rect x="151.0" y="18" width="2.9" height="118" fill="transparent" cursor="crosshair"><title>2025-07-05 · 0 contributions</title></rect>
  <rect x="153.9" y="18" width="2.9" height="118" fill="transparent" cursor="crosshair"><title>2025-07-06 · 0 contributions</title></rect>
  <rect x="156.8" y="18" width="2.9" height="118" fill="transparent" cursor="crosshair"><title>2025-07-07 · 0 contributions</title></rect>
  <rect x="159.8" y="18" width="2.9" height="118" fill="transparent" cursor="crosshair"><title>2025-07-08 · 0 contributions</title></rect>
  <rect x="162.7" y="18" width="2.9" height="118" fill="transparent" cursor="crosshair"><title>2025-07-09 · 0 contributions</title></rect>
  <rect x="165.6" y="18" width="2.9" height="118" fill="transparent" cursor="crosshair"><title>2025-07-10 · 0 contributions</title></rect>
  <rect x="168.5" y="18" width="2.9" height="118" fill="transparent" cursor="crosshair"><title>2025-07-11 · 0 contributions</title></rect>
  <rect x="171.5" y="18" width="2.9" height="118" fill="transparent" cursor="crosshair"><title>2025-07-12 · 0 contributions</title></rect>
  <rect x="174.4" y="18" width="2.9" height="118" fill="transparent" cursor="crosshair"><title>2025-07-13 · 0 contributions</title></rect>
  <rect x="177.3" y="18" width="2.9" height="118" fill="transparent" cursor="crosshair"><title>2025-07-14 · 0 contributions</title></rect>
  <rect x="180.2" y="18" width="2.9" height="118" fill="transparent" cursor="crosshair"><title>2025-07-15 · 0 contributions</title></rect>
  <rect x="183.2" y="18" width="2.9" height="118" fill="transparent" cursor="crosshair"><title>2025-07-16 · 0 contributions</title></rect>
  <rect x="186.1" y="18" width="2.9" height="118" fill="transparent" cursor="crosshair"><title>2025-07-17 · 0 contributions</title></rect>
  <rect x="189.0" y="18" width="2.9" height="118" fill="transparent" cursor="crosshair"><title>2025-07-18 · 0 contributions</title></rect>
  <rect x="191.9" y="18" width="2.9" height="118" fill="transparent" cursor="crosshair"><title>2025-07-19 · 0 contributions</title></rect>
  <rect x="194.8" y="18" width="2.9" height="118" fill="transparent" cursor="crosshair"><title>2025-07-20 · 0 contributions</title></rect>
  <rect x="197.8" y="18" width="2.9" height="118" fill="transparent" cursor="crosshair"><title>2025-07-21 · 0 contributions</title></rect>
  <rect x="200.7" y="18" width="2.9" height="118" fill="transparent" cursor="crosshair"><title>2025-07-22 · 0 contributions</title></rect>
  <rect x="203.6" y="18" width="2.9" height="118" fill="transparent" cursor="crosshair"><title>2025-07-23 · 0 contributions</title></rect>
  <rect x="206.5" y="18" width="2.9" height="118" fill="transparent" cursor="crosshair"><title>2025-07-24 · 0 contributions</title></rect>
  <rect x="209.5" y="18" width="2.9" height="118" fill="transparent" cursor="crosshair"><title>2025-07-25 · 0 contributions</title></rect>
  <rect x="212.4" y="18" width="2.9" height="118" fill="transparent" cursor="crosshair"><title>2025-07-26 · 0 contributions</title></rect>
  <rect x="215.3" y="18" width="2.9" height="118" fill="transparent" cursor="crosshair"><title>2025-07-27 · 0 contributions</title></rect>
  <rect x="218.2" y="18" width="2.9" height="118" fill="transparent" cursor="crosshair"><title>2025-07-28 · 0 contributions</title></rect>
  <rect x="221.2" y="18" width="2.9" height="118" fill="transparent" cursor="crosshair"><title>2025-07-29 · 0 contributions</title></rect>
  <rect x="224.1" y="18" width="2.9" height="118" fill="transparent" cursor="crosshair"><title>2025-07-30 · 0 contributions</title></rect>
  <rect x="227.0" y="18" width="2.9" height="118" fill="transparent" cursor="crosshair"><title>2025-07-31 · 0 contributions</title></rect>
  <rect x="229.9" y="18" width="2.9" height="118" fill="transparent" cursor="crosshair"><title>2025-08-01 · 0 contributions</title></rect>
  <rect x="232.8" y="18" width="2.9" height="118" fill="transparent" cursor="crosshair"><title>2025-08-02 · 0 contributions</title></rect>
  <rect x="235.8" y="18" width="2.9" height="118" fill="transparent" cursor="crosshair"><title>2025-08-03 · 0 contributions</title></rect>
  <rect x="238.7" y="18" width="2.9" height="118" fill="transparent" cursor="crosshair"><title>2025-08-04 · 0 contributions</title></rect>
  <rect x="241.6" y="18" width="2.9" height="118" fill="transparent" cursor="crosshair"><title>2025-08-05 · 0 contributions</title></rect>
  <rect x="244.5" y="18" width="2.9" height="118" fill="transparent" cursor="crosshair"><title>2025-08-06 · 0 contributions</title></rect>
  <rect x="247.5" y="18" width="2.9" height="118" fill="transparent" cursor="crosshair"><title>2025-08-07 · 0 contributions</title></rect>
  <rect x="250.4" y="18" width="2.9" height="118" fill="transparent" cursor="crosshair"><title>2025-08-08 · 0 contributions</title></rect>
  <rect x="253.3" y="18" width="2.9" height="118" fill="transparent" cursor="crosshair"><title>2025-08-09 · 0 contributions</title></rect>
  <rect x="256.2" y="18" width="2.9" height="118" fill="transparent" cursor="crosshair"><title>2025-08-10 · 0 contributions</title></rect>
  <rect x="259.2" y="18" width="2.9" height="118" fill="transparent" cursor="crosshair"><title>2025-08-11 · 0 contributions</title></rect>
  <rect x="262.1" y="18" width="2.9" height="118" fill="transparent" cursor="crosshair"><title>2025-08-12 · 0 contributions</title></rect>
  <rect x="265.0" y="18" width="2.9" height="118" fill="transparent" cursor="crosshair"><title>2025-08-13 · 0 contributions</title></rect>
  <rect x="267.9" y="18" width="2.9" height="118" fill="transparent" cursor="crosshair"><title>2025-08-14 · 0 contributions</title></rect>
  <rect x="270.8" y="18" width="2.9" height="118" fill="transparent" cursor="crosshair"><title>2025-08-15 · 0 contributions</title></rect>
  <rect x="273.8" y="18" width="2.9" height="118" fill="transparent" cursor="crosshair"><title>2025-08-16 · 0 contributions</title></rect>
  <rect x="276.7" y="18" width="2.9" height="118" fill="transparent" cursor="crosshair"><title>2025-08-17 · 0 contributions</title></rect>
  <rect x="279.6" y="18" width="2.9" height="118" fill="transparent" cursor="crosshair"><title>2025-08-18 · 0 contributions</title></rect>
  <rect x="282.5" y="18" width="2.9" height="118" fill="transparent" cursor="crosshair"><title>2025-08-19 · 0 contributions</title></rect>
  <rect x="285.5" y="18" width="2.9" height="118" fill="transparent" cursor="crosshair"><title>2025-08-20 · 0 contributions</title></rect>
  <rect x="288.4" y="18" width="2.9" height="118" fill="transparent" cursor="crosshair"><title>2025-08-21 · 0 contributions</title></rect>
  <rect x="291.3" y="18" width="2.9" height="118" fill="transparent" cursor="crosshair"><title>2025-08-22 · 0 contributions</title></rect>
  <rect x="294.2" y="18" width="2.9" height="118" fill="transparent" cursor="crosshair"><title>2025-08-23 · 0 contributions</title></rect>
  <rect x="297.2" y="18" width="2.9" height="118" fill="transparent" cursor="crosshair"><title>2025-08-24 · 0 contributions</title></rect>
  <rect x="300.1" y="18" width="2.9" height="118" fill="transparent" cursor="crosshair"><title>2025-08-25 · 0 contributions</title></rect>
  <rect x="303.0" y="18" width="2.9" height="118" fill="transparent" cursor="crosshair"><title>2025-08-26 · 0 contributions</title></rect>
  <rect x="305.9" y="18" width="2.9" height="118" fill="transparent" cursor="crosshair"><title>2025-08-27 · 0 contributions</title></rect>
  <rect x="308.8" y="18" width="2.9" height="118" fill="transparent" cursor="crosshair"><title>2025-08-28 · 0 contributions</title></rect>
  <rect x="311.8" y="18" width="2.9" height="118" fill="transparent" cursor="crosshair"><title>2025-08-29 · 0 contributions</title></rect>
  <rect x="314.7" y="18" width="2.9" height="118" fill="transparent" cursor="crosshair"><title>2025-08-30 · 0 contributions</title></rect>
  <rect x="317.6" y="18" width="2.9" height="118" fill="transparent" cursor="crosshair"><title>2025-08-31 · 0 contributions</title></rect>
  <rect x="320.5" y="18" width="2.9" height="118" fill="transparent" cursor="crosshair"><title>2025-09-01 · 0 contributions</title></rect>
  <rect x="323.5" y="18" width="2.9" height="118" fill="transparent" cursor="crosshair"><title>2025-09-02 · 0 contributions</title></rect>
  <rect x="326.4" y="18" width="2.9" height="118" fill="transparent" cursor="crosshair"><title>2025-09-03 · 0 contributions</title></rect>
  <rect x="329.3" y="18" width="2.9" height="118" fill="transparent" cursor="crosshair"><title>2025-09-04 · 0 contributions</title></rect>
  <rect x="332.2" y="18" width="2.9" height="118" fill="transparent" cursor="crosshair"><title>2025-09-05 · 0 contributions</title></rect>
  <rect x="335.2" y="18" width="2.9" height="118" fill="transparent" cursor="crosshair"><title>2025-09-06 · 0 contributions</title></rect>
  <rect x="338.1" y="18" width="2.9" height="118" fill="transparent" cursor="crosshair"><title>2025-09-07 · 0 contributions</title></rect>
  <rect x="341.0" y="18" width="2.9" height="118" fill="transparent" cursor="crosshair"><title>2025-09-08 · 0 contributions</title></rect>
  <rect x="343.9" y="18" width="2.9" height="118" fill="transparent" cursor="crosshair"><title>2025-09-09 · 0 contributions</title></rect>
  <rect x="346.8" y="18" width="2.9" height="118" fill="transparent" cursor="crosshair"><title>2025-09-10 · 0 contributions</title></rect>
  <rect x="349.8" y="18" width="2.9" height="118" fill="transparent" cursor="crosshair"><title>2025-09-11 · 0 contributions</title></rect>
  <rect x="352.7" y="18" width="2.9" height="118" fill="transparent" cursor="crosshair"><title>2025-09-12 · 0 contributions</title></rect>
  <rect x="355.6" y="18" width="2.9" height="118" fill="transparent" cursor="crosshair"><title>2025-09-13 · 0 contributions</title></rect>
  <rect x="358.5" y="18" width="2.9" height="118" fill="transparent" cursor="crosshair"><title>2025-09-14 · 0 contributions</title></rect>
  <rect x="361.5" y="18" width="2.9" height="118" fill="transparent" cursor="crosshair"><title>2025-09-15 · 0 contributions</title></rect>
  <rect x="364.4" y="18" width="2.9" height="118" fill="transparent" cursor="crosshair"><title>2025-09-16 · 0 contributions</title></rect>
  <rect x="367.3" y="18" width="2.9" height="118" fill="transparent" cursor="crosshair"><title>2025-09-17 · 0 contributions</title></rect>
  <rect x="370.2" y="18" width="2.9" height="118" fill="transparent" cursor="crosshair"><title>2025-09-18 · 0 contributions</title></rect>
  <rect x="373.2" y="18" width="2.9" height="118" fill="transparent" cursor="crosshair"><title>2025-09-19 · 0 contributions</title></rect>
  <rect x="376.1" y="18" width="2.9" height="118" fill="transparent" cursor="crosshair"><title>2025-09-20 · 0 contributions</title></rect>
  <rect x="379.0" y="18" width="2.9" height="118" fill="transparent" cursor="crosshair"><title>2025-09-21 · 0 contributions</title></rect>
  <rect x="381.9" y="18" width="2.9" height="118" fill="transparent" cursor="crosshair"><title>2025-09-22 · 0 contributions</title></rect>
  <rect x="384.8" y="18" width="2.9" height="118" fill="transparent" cursor="crosshair"><title>2025-09-23 · 0 contributions</title></rect>
  <rect x="387.8" y="18" width="2.9" height="118" fill="transparent" cursor="crosshair"><title>2025-09-24 · 0 contributions</title></rect>
  <rect x="390.7" y="18" width="2.9" height="118" fill="transparent" cursor="crosshair"><title>2025-09-25 · 0 contributions</title></rect>
  <rect x="393.6" y="18" width="2.9" height="118" fill="transparent" cursor="crosshair"><title>2025-09-26 · 0 contributions</title></rect>
  <rect x="396.5" y="18" width="2.9" height="118" fill="transparent" cursor="crosshair"><title>2025-09-27 · 0 contributions</title></rect>
  <rect x="399.5" y="18" width="2.9" height="118" fill="transparent" cursor="crosshair"><title>2025-09-28 · 0 contributions</title></rect>
  <rect x="402.4" y="18" width="2.9" height="118" fill="transparent" cursor="crosshair"><title>2025-09-29 · 0 contributions</title></rect>
  <rect x="405.3" y="18" width="2.9" height="118" fill="transparent" cursor="crosshair"><title>2025-09-30 · 0 contributions</title></rect>
  <rect x="408.2" y="18" width="2.9" height="118" fill="transparent" cursor="crosshair"><title>2025-10-01 · 0 contributions</title></rect>
  <rect x="411.2" y="18" width="2.9" height="118" fill="transparent" cursor="crosshair"><title>2025-10-02 · 0 contributions</title></rect>
  <rect x="414.1" y="18" width="2.9" height="118" fill="transparent" cursor="crosshair"><title>2025-10-03 · 0 contributions</title></rect>
  <rect x="417.0" y="18" width="2.9" height="118" fill="transparent" cursor="crosshair"><title>2025-10-04 · 0 contributions</title></rect>
  <rect x="419.9" y="18" width="2.9" height="118" fill="transparent" cursor="crosshair"><title>2025-10-05 · 0 contributions</title></rect>
  <rect x="422.8" y="18" width="2.9" height="118" fill="transparent" cursor="crosshair"><title>2025-10-06 · 0 contributions</title></rect>
  <rect x="425.8" y="18" width="2.9" height="118" fill="transparent" cursor="crosshair"><title>2025-10-07 · 0 contributions</title></rect>
  <rect x="428.7" y="18" width="2.9" height="118" fill="transparent" cursor="crosshair"><title>2025-10-08 · 0 contributions</title></rect>
  <rect x="431.6" y="18" width="2.9" height="118" fill="transparent" cursor="crosshair"><title>2025-10-09 · 0 contributions</title></rect>
  <rect x="434.5" y="18" width="2.9" height="118" fill="transparent" cursor="crosshair"><title>2025-10-10 · 0 contributions</title></rect>
  <rect x="437.5" y="18" width="2.9" height="118" fill="transparent" cursor="crosshair"><title>2025-10-11 · 0 contributions</title></rect>
  <rect x="440.4" y="18" width="2.9" height="118" fill="transparent" cursor="crosshair"><title>2025-10-12 · 0 contributions</title></rect>
  <rect x="443.3" y="18" width="2.9" height="118" fill="transparent" cursor="crosshair"><title>2025-10-13 · 0 contributions</title></rect>
  <rect x="446.2" y="18" width="2.9" height="118" fill="transparent" cursor="crosshair"><title>2025-10-14 · 0 contributions</title></rect>
  <rect x="449.2" y="18" width="2.9" height="118" fill="transparent" cursor="crosshair"><title>2025-10-15 · 0 contributions</title></rect>
  <rect x="452.1" y="18" width="2.9" height="118" fill="transparent" cursor="crosshair"><title>2025-10-16 · 0 contributions</title></rect>
  <rect x="455.0" y="18" width="2.9" height="118" fill="transparent" cursor="crosshair"><title>2025-10-17 · 0 contributions</title></rect>
  <rect x="457.9" y="18" width="2.9" height="118" fill="transparent" cursor="crosshair"><title>2025-10-18 · 0 contributions</title></rect>
  <rect x="460.8" y="18" width="2.9" height="118" fill="transparent" cursor="crosshair"><title>2025-10-19 · 0 contributions</title></rect>
  <rect x="463.8" y="18" width="2.9" height="118" fill="transparent" cursor="crosshair"><title>2025-10-20 · 0 contributions</title></rect>
  <rect x="466.7" y="18" width="2.9" height="118" fill="transparent" cursor="crosshair"><title>2025-10-21 · 0 contributions</title></rect>
  <rect x="469.6" y="18" width="2.9" height="118" fill="transparent" cursor="crosshair"><title>2025-10-22 · 0 contributions</title></rect>
  <rect x="472.5" y="18" width="2.9" height="118" fill="transparent" cursor="crosshair"><title>2025-10-23 · 0 contributions</title></rect>
  <rect x="475.5" y="18" width="2.9" height="118" fill="transparent" cursor="crosshair"><title>2025-10-24 · 0 contributions</title></rect>
  <rect x="478.4" y="18" width="2.9" height="118" fill="transparent" cursor="crosshair"><title>2025-10-25 · 0 contributions</title></rect>
  <rect x="481.3" y="18" width="2.9" height="118" fill="transparent" cursor="crosshair"><title>2025-10-26 · 0 contributions</title></rect>
  <rect x="484.2" y="18" width="2.9" height="118" fill="transparent" cursor="crosshair"><title>2025-10-27 · 0 contributions</title></rect>
  <rect x="487.2" y="18" width="2.9" height="118" fill="transparent" cursor="crosshair"><title>2025-10-28 · 0 contributions</title></rect>
  <rect x="490.1" y="18" width="2.9" height="118" fill="transparent" cursor="crosshair"><title>2025-10-29 · 0 contributions</title></rect>
  <rect x="493.0" y="18" width="2.9" height="118" fill="transparent" cursor="crosshair"><title>2025-10-30 · 0 contributions</title></rect>
  <rect x="495.9" y="18" width="2.9" height="118" fill="transparent" cursor="crosshair"><title>2025-10-31 · 0 contributions</title></rect>
  <rect x="498.8" y="18" width="2.9" height="118" fill="transparent" cursor="crosshair"><title>2025-11-01 · 0 contributions</title></rect>
  <rect x="501.8" y="18" width="2.9" height="118" fill="transparent" cursor="crosshair"><title>2025-11-02 · 0 contributions</title></rect>
  <rect x="504.7" y="18" width="2.9" height="118" fill="transparent" cursor="crosshair"><title>2025-11-03 · 0 contributions</title></rect>
  <rect x="507.6" y="18" width="2.9" height="118" fill="transparent" cursor="crosshair"><title>2025-11-04 · 0 contributions</title></rect>
  <rect x="510.5" y="18" width="2.9" height="118" fill="transparent" cursor="crosshair"><title>2025-11-05 · 0 contributions</title></rect>
  <rect x="513.5" y="18" width="2.9" height="118" fill="transparent" cursor="crosshair"><title>2025-11-06 · 0 contributions</title></rect>
  <rect x="516.4" y="18" width="2.9" height="118" fill="transparent" cursor="crosshair"><title>2025-11-07 · 0 contributions</title></rect>
  <rect x="519.3" y="18" width="2.9" height="118" fill="transparent" cursor="crosshair"><title>2025-11-08 · 0 contributions</title></rect>
  <rect x="522.2" y="18" width="2.9" height="118" fill="transparent" cursor="crosshair"><title>2025-11-09 · 0 contributions</title></rect>
  <rect x="525.2" y="18" width="2.9" height="118" fill="transparent" cursor="crosshair"><title>2025-11-10 · 0 contributions</title></rect>
  <rect x="528.1" y="18" width="2.9" height="118" fill="transparent" cursor="crosshair"><title>2025-11-11 · 0 contributions</title></rect>
  <rect x="531.0" y="18" width="2.9" height="118" fill="transparent" cursor="crosshair"><title>2025-11-12 · 0 contributions</title></rect>
  <rect x="533.9" y="18" width="2.9" height="118" fill="transparent" cursor="crosshair"><title>2025-11-13 · 0 contributions</title></rect>
  <rect x="536.8" y="18" width="2.9" height="118" fill="transparent" cursor="crosshair"><title>2025-11-14 · 0 contributions</title></rect>
  <rect x="539.8" y="18" width="2.9" height="118" fill="transparent" cursor="crosshair"><title>2025-11-15 · 0 contributions</title></rect>
  <rect x="542.7" y="18" width="2.9" height="118" fill="transparent" cursor="crosshair"><title>2025-11-16 · 0 contributions</title></rect>
  <rect x="545.6" y="18" width="2.9" height="118" fill="transparent" cursor="crosshair"><title>2025-11-17 · 0 contributions</title></rect>
  <rect x="548.5" y="18" width="2.9" height="118" fill="transparent" cursor="crosshair"><title>2025-11-18 · 0 contributions</title></rect>
  <rect x="551.5" y="18" width="2.9" height="118" fill="transparent" cursor="crosshair"><title>2025-11-19 · 0 contributions</title></rect>
  <rect x="554.4" y="18" width="2.9" height="118" fill="transparent" cursor="crosshair"><title>2025-11-20 · 0 contributions</title></rect>
  <rect x="557.3" y="18" width="2.9" height="118" fill="transparent" cursor="crosshair"><title>2025-11-21 · 0 contributions</title></rect>
  <rect x="560.2" y="18" width="2.9" height="118" fill="transparent" cursor="crosshair"><title>2025-11-22 · 0 contributions</title></rect>
  <rect x="563.2" y="18" width="2.9" height="118" fill="transparent" cursor="crosshair"><title>2025-11-23 · 0 contributions</title></rect>
  <rect x="566.1" y="18" width="2.9" height="118" fill="transparent" cursor="crosshair"><title>2025-11-24 · 0 contributions</title></rect>
  <rect x="569.0" y="18" width="2.9" height="118" fill="transparent" cursor="crosshair"><title>2025-11-25 · 0 contributions</title></rect>
  <rect x="571.9" y="18" width="2.9" height="118" fill="transparent" cursor="crosshair"><title>2025-11-26 · 0 contributions</title></rect>
  <rect x="574.8" y="18" width="2.9" height="118" fill="transparent" cursor="crosshair"><title>2025-11-27 · 0 contributions</title></rect>
  <rect x="577.8" y="18" width="2.9" height="118" fill="transparent" cursor="crosshair"><title>2025-11-28 · 0 contributions</title></rect>
  <rect x="580.7" y="18" width="2.9" height="118" fill="transparent" cursor="crosshair"><title>2025-11-29 · 0 contributions</title></rect>
  <rect x="583.6" y="18" width="2.9" height="118" fill="transparent" cursor="crosshair"><title>2025-11-30 · 0 contributions</title></rect>
  <rect x="586.5" y="18" width="2.9" height="118" fill="transparent" cursor="crosshair"><title>2025-12-01 · 0 contributions</title></rect>
  <rect x="589.5" y="18" width="2.9" height="118" fill="transparent" cursor="crosshair"><title>2025-12-02 · 0 contributions</title></rect>
  <rect x="592.4" y="18" width="2.9" height="118" fill="transparent" cursor="crosshair"><title>2025-12-03 · 0 contributions</title></rect>
  <rect x="595.3" y="18" width="2.9" height="118" fill="transparent" cursor="crosshair"><title>2025-12-04 · 0 contributions</title></rect>
  <rect x="598.2" y="18" width="2.9" height="118" fill="transparent" cursor="crosshair"><title>2025-12-05 · 0 contributions</title></rect>
  <rect x="601.2" y="18" width="2.9" height="118" fill="transparent" cursor="crosshair"><title>2025-12-06 · 0 contributions</title></rect>
  <rect x="604.1" y="18" width="2.9" height="118" fill="transparent" cursor="crosshair"><title>2025-12-07 · 0 contributions</title></rect>
  <rect x="607.0" y="18" width="2.9" height="118" fill="transparent" cursor="crosshair"><title>2025-12-08 · 0 contributions</title></rect>
  <rect x="609.9" y="18" width="2.9" height="118" fill="transparent" cursor="crosshair"><title>2025-12-09 · 0 contributions</title></rect>
  <rect x="612.8" y="18" width="2.9" height="118" fill="transparent" cursor="crosshair"><title>2025-12-10 · 0 contributions</title></rect>
  <rect x="615.8" y="18" width="2.9" height="118" fill="transparent" cursor="crosshair"><title>2025-12-11 · 0 contributions</title></rect>
  <rect x="618.7" y="18" width="2.9" height="118" fill="transparent" cursor="crosshair"><title>2025-12-12 · 0 contributions</title></rect>
  <rect x="621.6" y="18" width="2.9" height="118" fill="transparent" cursor="crosshair"><title>2025-12-13 · 0 contributions</title></rect>
  <rect x="624.5" y="18" width="2.9" height="118" fill="transparent" cursor="crosshair"><title>2025-12-14 · 0 contributions</title></rect>
  <rect x="627.5" y="18" width="2.9" height="118" fill="transparent" cursor="crosshair"><title>2025-12-15 · 0 contributions</title></rect>
  <rect x="630.4" y="18" width="2.9" height="118" fill="transparent" cursor="crosshair"><title>2025-12-16 · 0 contributions</title></rect>
  <rect x="633.3" y="18" width="2.9" height="118" fill="transparent" cursor="crosshair"><title>2025-12-17 · 0 contributions</title></rect>
  <rect x="636.2" y="18" width="2.9" height="118" fill="transparent" cursor="crosshair"><title>2025-12-18 · 0 contributions</title></rect>
  <rect x="639.2" y="18" width="2.9" height="118" fill="transparent" cursor="crosshair"><title>2025-12-19 · 0 contributions</title></rect>
  <rect x="642.1" y="18" width="2.9" height="118" fill="transparent" cursor="crosshair"><title>2025-12-20 · 0 contributions</title></rect>
  <rect x="645.0" y="18" width="2.9" height="118" fill="transparent" cursor="crosshair"><title>2025-12-21 · 0 contributions</title></rect>
  <rect x="647.9" y="18" width="2.9" height="118" fill="transparent" cursor="crosshair"><title>2025-12-22 · 0 contributions</title></rect>
  <rect x="650.8" y="18" width="2.9" height="118" fill="transparent" cursor="crosshair"><title>2025-12-23 · 0 contributions</title></rect>
  <rect x="653.8" y="18" width="2.9" height="118" fill="transparent" cursor="crosshair"><title>2025-12-24 · 0 contributions</title></rect>
  <rect x="656.7" y="18" width="2.9" height="118" fill="transparent" cursor="crosshair"><title>2025-12-25 · 0 contributions</title></rect>
  <rect x="659.6" y="18" width="2.9" height="118" fill="transparent" cursor="crosshair"><title>2025-12-26 · 0 contributions</title></rect>
  <rect x="662.5" y="18" width="2.9" height="118" fill="transparent" cursor="crosshair"><title>2025-12-27 · 0 contributions</title></rect>
  <rect x="665.5" y="18" width="2.9" height="118" fill="transparent" cursor="crosshair"><title>2025-12-28 · 0 contributions</title></rect>
  <rect x="668.4" y="18" width="2.9" height="118" fill="transparent" cursor="crosshair"><title>2025-12-29 · 0 contributions</title></rect>
  <rect x="671.3" y="18" width="2.9" height="118" fill="transparent" cursor="crosshair"><title>2025-12-30 · 0 contributions</title></rect>
  <rect x="674.2" y="18" width="2.9" height="118" fill="transparent" cursor="crosshair"><title>2025-12-31 · 0 contributions</title></rect>
  <rect x="677.2" y="18" width="2.9" height="118" fill="transparent" cursor="crosshair"><title>2026-01-01 · 0 contributions</title></rect>
  <rect x="680.1" y="18" width="2.9" height="118" fill="transparent" cursor="crosshair"><title>2026-01-02 · 0 contributions</title></rect>
  <rect x="683.0" y="18" width="2.9" height="118" fill="transparent" cursor="crosshair"><title>2026-01-03 · 0 contributions</title></rect>
  <rect x="685.9" y="18" width="2.9" height="118" fill="transparent" cursor="crosshair"><title>2026-01-04 · 0 contributions</title></rect>
  <rect x="688.8" y="18" width="2.9" height="118" fill="transparent" cursor="crosshair"><title>2026-01-05 · 0 contributions</title></rect>
  <rect x="691.8" y="18" width="2.9" height="118" fill="transparent" cursor="crosshair"><title>2026-01-06 · 0 contributions</title></rect>
  <rect x="694.7" y="18" width="2.9" height="118" fill="transparent" cursor="crosshair"><title>2026-01-07 · 0 contributions</title></rect>
  <rect x="697.6" y="18" width="2.9" height="118" fill="transparent" cursor="crosshair"><title>2026-01-08 · 0 contributions</title></rect>
  <rect x="700.5" y="18" width="2.9" height="118" fill="transparent" cursor="crosshair"><title>2026-01-09 · 0 contributions</title></rect>
  <rect x="703.5" y="18" width="2.9" height="118" fill="transparent" cursor="crosshair"><title>2026-01-10 · 0 contributions</title></rect>
  <rect x="706.4" y="18" width="2.9" height="118" fill="transparent" cursor="crosshair"><title>2026-01-11 · 0 contributions</title></rect>
  <rect x="709.3" y="18" width="2.9" height="118" fill="transparent" cursor="crosshair"><title>2026-01-12 · 0 contributions</title></rect>
  <rect x="712.2" y="18" width="2.9" height="118" fill="transparent" cursor="crosshair"><title>2026-01-13 · 0 contributions</title></rect>
  <rect x="715.2" y="18" width="2.9" height="118" fill="transparent" cursor="crosshair"><title>2026-01-14 · 0 contributions</title></rect>
  <rect x="718.1" y="18" width="2.9" height="118" fill="transparent" cursor="crosshair"><title>2026-01-15 · 0 contributions</title></rect>
  <rect x="721.0" y="18" width="2.9" height="118" fill="transparent" cursor="crosshair"><title>2026-01-16 · 0 contributions</title></rect>
  <rect x="723.9" y="18" width="2.9" height="118" fill="transparent" cursor="crosshair"><title>2026-01-17 · 0 contributions</title></rect>
  <rect x="726.8" y="18" width="2.9" height="118" fill="transparent" cursor="crosshair"><title>2026-01-18 · 0 contributions</title></rect>
  <rect x="729.8" y="18" width="2.9" height="118" fill="transparent" cursor="crosshair"><title>2026-01-19 · 0 contributions</title></rect>
  <rect x="732.7" y="18" width="2.9" height="118" fill="transparent" cursor="crosshair"><title>2026-01-20 · 0 contributions</title></rect>
  <rect x="735.6" y="18" width="2.9" height="118" fill="transparent" cursor="crosshair"><title>2026-01-21 · 0 contributions</title></rect>
  <rect x="738.5" y="18" width="2.9" height="118" fill="transparent" cursor="crosshair"><title>2026-01-22 · 0 contributions</title></rect>
  <rect x="741.5" y="18" width="2.9" height="118" fill="transparent" cursor="crosshair"><title>2026-01-23 · 0 contributions</title></rect>
  <rect x="744.4" y="18" width="2.9" height="118" fill="transparent" cursor="crosshair"><title>2026-01-24 · 0 contributions</title></rect>
  <rect x="747.3" y="18" width="2.9" height="118" fill="transparent" cursor="crosshair"><title>2026-01-25 · 0 contributions</title></rect>
  <rect x="750.2" y="18" width="2.9" height="118" fill="transparent" cursor="crosshair"><title>2026-01-26 · 0 contributions</title></rect>
  <rect x="753.2" y="18" width="2.9" height="118" fill="transparent" cursor="crosshair"><title>2026-01-27 · 0 contributions</title></rect>
  <rect x="756.1" y="18" width="2.9" height="118" fill="transparent" cursor="crosshair"><title>2026-01-28 · 0 contributions</title></rect>
  <rect x="759.0" y="18" width="2.9" height="118" fill="transparent" cursor="crosshair"><title>2026-01-29 · 0 contributions</title></rect>
  <rect x="761.9" y="18" width="2.9" height="118" fill="transparent" cursor="crosshair"><title>2026-01-30 · 0 contributions</title></rect>
  <rect x="764.8" y="18" width="2.9" height="118" fill="transparent" cursor="crosshair"><title>2026-01-31 · 0 contributions</title></rect>
  <rect x="767.8" y="18" width="2.9" height="118" fill="transparent" cursor="crosshair"><title>2026-02-01 · 0 contributions</title></rect>
  <rect x="770.7" y="18" width="2.9" height="118" fill="transparent" cursor="crosshair"><title>2026-02-02 · 0 contributions</title></rect>
  <rect x="773.6" y="18" width="2.9" height="118" fill="transparent" cursor="crosshair"><title>2026-02-03 · 0 contributions</title></rect>
  <rect x="776.5" y="18" width="2.9" height="118" fill="transparent" cursor="crosshair"><title>2026-02-04 · 0 contributions</title></rect>
  <rect x="779.5" y="18" width="2.9" height="118" fill="transparent" cursor="crosshair"><title>2026-02-05 · 0 contributions</title></rect>
  <rect x="782.4" y="18" width="2.9" height="118" fill="transparent" cursor="crosshair"><title>2026-02-06 · 0 contributions</title></rect>
  <rect x="785.3" y="18" width="2.9" height="118" fill="transparent" cursor="crosshair"><title>2026-02-07 · 0 contributions</title></rect>
  <rect x="788.2" y="18" width="2.9" height="118" fill="transparent" cursor="crosshair"><title>2026-02-08 · 0 contributions</title></rect>
  <rect x="791.2" y="18" width="2.9" height="118" fill="transparent" cursor="crosshair"><title>2026-02-09 · 0 contributions</title></rect>
  <rect x="794.1" y="18" width="2.9" height="118" fill="transparent" cursor="crosshair"><title>2026-02-10 · 0 contributions</title></rect>
  <rect x="797.0" y="18" width="2.9" height="118" fill="transparent" cursor="crosshair"><title>2026-02-11 · 0 contributions</title></rect>
  <rect x="799.9" y="18" width="2.9" height="118" fill="transparent" cursor="crosshair"><title>2026-02-12 · 0 contributions</title></rect>
  <rect x="802.8" y="18" width="2.9" height="118" fill="transparent" cursor="crosshair"><title>2026-02-13 · 0 contributions</title></rect>
  <rect x="805.8" y="18" width="2.9" height="118" fill="transparent" cursor="crosshair"><title>2026-02-14 · 0 contributions</title></rect>
  <rect x="808.7" y="18" width="2.9" height="118" fill="transparent" cursor="crosshair"><title>2026-02-15 · 0 contributions</title></rect>
  <rect x="811.6" y="18" width="2.9" height="118" fill="transparent" cursor="crosshair"><title>2026-02-16 · 0 contributions</title></rect>
  <rect x="814.5" y="18" width="2.9" height="118" fill="transparent" cursor="crosshair"><title>2026-02-17 · 0 contributions</title></rect>
  <rect x="817.5" y="18" width="2.9" height="118" fill="transparent" cursor="crosshair"><title>2026-02-18 · 0 contributions</title></rect>
  <rect x="820.4" y="18" width="2.9" height="118" fill="transparent" cursor="crosshair"><title>2026-02-19 · 0 contributions</title></rect>
  <rect x="823.3" y="18" width="2.9" height="118" fill="transparent" cursor="crosshair"><title>2026-02-20 · 0 contributions</title></rect>
  <rect x="826.2" y="18" width="2.9" height="118" fill="transparent" cursor="crosshair"><title>2026-02-21 · 0 contributions</title></rect>
  <rect x="829.2" y="18" width="2.9" height="118" fill="transparent" cursor="crosshair"><title>2026-02-22 · 0 contributions</title></rect>
  <rect x="832.1" y="18" width="2.9" height="118" fill="transparent" cursor="crosshair"><title>2026-02-23 · 0 contributions</title></rect>
  <rect x="835.0" y="18" width="2.9" height="118" fill="transparent" cursor="crosshair"><title>2026-02-24 · 0 contributions</title></rect>
  <rect x="837.9" y="18" width="2.9" height="118" fill="transparent" cursor="crosshair"><title>2026-02-25 · 0 contributions</title></rect>
  <rect x="840.8" y="18" width="2.9" height="118" fill="transparent" cursor="crosshair"><title>2026-02-26 · 0 contributions</title></rect>
  <rect x="843.8" y="18" width="2.9" height="118" fill="transparent" cursor="crosshair"><title>2026-02-27 · 0 contributions</title></rect>
  <rect x="846.7" y="18" width="2.9" height="118" fill="transparent" cursor="crosshair"><title>2026-02-28 · 0 contributions</title></rect>
  <rect x="849.6" y="18" width="2.9" height="118" fill="transparent" cursor="crosshair"><title>2026-03-01 · 0 contributions</title></rect>
  <rect x="852.5" y="18" width="2.9" height="118" fill="transparent" cursor="crosshair"><title>2026-03-02 · 0 contributions</title></rect>
  <rect x="855.5" y="18" width="2.9" height="118" fill="transparent" cursor="crosshair"><title>2026-03-03 · 0 contributions</title></rect>
  <rect x="858.4" y="18" width="2.9" height="118" fill="transparent" cursor="crosshair"><title>2026-03-04 · 0 contributions</title></rect>
  <rect x="861.3" y="18" width="2.9" height="118" fill="transparent" cursor="crosshair"><title>2026-03-05 · 0 contributions</title></rect>
  <rect x="864.2" y="18" width="2.9" height="118" fill="transparent" cursor="crosshair"><title>2026-03-06 · 0 contributions</title></rect>
  <rect x="867.2" y="18" width="2.9" height="118" fill="transparent" cursor="crosshair"><title>2026-03-07 · 0 contributions</title></rect>
  <rect x="870.1" y="18" width="2.9" height="118" fill="transparent" cursor="crosshair"><title>2026-03-08 · 0 contributions</title></rect>
  <rect x="873.0" y="18" width="2.9" height="118" fill="transparent" cursor="crosshair"><title>2026-03-09 · 0 contributions</title></rect>
  <rect x="875.9" y="18" width="2.9" height="118" fill="transparent" cursor="crosshair"><title>2026-03-10 · 0 contributions</title></rect>
  <rect x="878.8" y="18" width="2.9" height="118" fill="transparent" cursor="crosshair"><title>2026-03-11 · 0 contributions</title></rect>
  <rect x="881.8" y="18" width="2.9" height="118" fill="transparent" cursor="crosshair"><title>2026-03-12 · 0 contributions</title></rect>
  <rect x="884.7" y="18" width="2.9" height="118" fill="transparent" cursor="crosshair"><title>2026-03-13 · 0 contributions</title></rect>
  <rect x="887.6" y="18" width="2.9" height="118" fill="transparent" cursor="crosshair"><title>2026-03-14 · 0 contributions</title></rect>
  <rect x="890.5" y="18" width="2.9" height="118" fill="transparent" cursor="crosshair"><title>2026-03-15 · 0 contributions</title></rect>
  <rect x="893.5" y="18" width="2.9" height="118" fill="transparent" cursor="crosshair"><title>2026-03-16 · 0 contributions</title></rect>
  <rect x="896.4" y="18" width="2.9" height="118" fill="transparent" cursor="crosshair"><title>2026-03-17 · 0 contributions</title></rect>
  <rect x="899.3" y="18" width="2.9" height="118" fill="transparent" cursor="crosshair"><title>2026-03-18 · 0 contributions</title></rect>
  <rect x="902.2" y="18" width="2.9" height="118" fill="transparent" cursor="crosshair"><title>2026-03-19 · 0 contributions</title></rect>
  <rect x="905.2" y="18" width="2.9" height="118" fill="transparent" cursor="crosshair"><title>2026-03-20 · 0 contributions</title></rect>
  <rect x="908.1" y="18" width="2.9" height="118" fill="transparent" cursor="crosshair"><title>2026-03-21 · 0 contributions</title></rect>
  <rect x="911.0" y="18" width="2.9" height="118" fill="transparent" cursor="crosshair"><title>2026-03-22 · 0 contributions</title></rect>
  <rect x="913.9" y="18" width="2.9" height="118" fill="transparent" cursor="crosshair"><title>2026-03-23 · 0 contributions</title></rect>
  <rect x="916.8" y="18" width="2.9" height="118" fill="transparent" cursor="crosshair"><title>2026-03-24 · 0 contributions</title></rect>
  <rect x="919.8" y="18" width="2.9" height="118" fill="transparent" cursor="crosshair"><title>2026-03-25 · 0 contributions</title></rect>
  <rect x="922.7" y="18" width="2.9" height="118" fill="transparent" cursor="crosshair"><title>2026-03-26 · 0 contributions</title></rect>
  <rect x="925.6" y="18" width="2.9" height="118" fill="transparent" cursor="crosshair"><title>2026-03-27 · 0 contributions</title></rect>
  <rect x="928.5" y="18" width="2.9" height="118" fill="transparent" cursor="crosshair"><title>2026-03-28 · 0 contributions</title></rect>
  <rect x="931.5" y="18" width="2.9" height="118" fill="transparent" cursor="crosshair"><title>2026-03-29 · 0 contributions</title></rect>
  <rect x="934.4" y="18" width="2.9" height="118" fill="transparent" cursor="crosshair"><title>2026-03-30 · 0 contributions</title></rect>
  <rect x="937.3" y="18" width="2.9" height="118" fill="transparent" cursor="crosshair"><title>2026-03-31 · 0 contributions</title></rect>
  <rect x="940.2" y="18" width="2.9" height="118" fill="transparent" cursor="crosshair"><title>2026-04-01 · 0 contributions</title></rect>
  <rect x="943.2" y="18" width="2.9" height="118" fill="transparent" cursor="crosshair"><title>2026-04-02 · 0 contributions</title></rect>
  <rect x="946.1" y="18" width="2.9" height="118" fill="transparent" cursor="crosshair"><title>2026-04-03 · 0 contributions</title></rect>
  <rect x="949.0" y="18" width="2.9" height="118" fill="transparent" cursor="crosshair"><title>2026-04-04 · 0 contributions</title></rect>
  <rect x="951.9" y="18" width="2.9" height="118" fill="transparent" cursor="crosshair"><title>2026-04-05 · 0 contributions</title></rect>
  <rect x="954.8" y="18" width="2.9" height="118" fill="transparent" cursor="crosshair"><title>2026-04-06 · 0 contributions</title></rect>
  <rect x="957.8" y="18" width="2.9" height="118" fill="transparent" cursor="crosshair"><title>2026-04-07 · 0 contributions</title></rect>
  <rect x="960.7" y="18" width="2.9" height="118" fill="transparent" cursor="crosshair"><title>2026-04-08 · 0 contributions</title></rect>
  <rect x="963.6" y="18" width="2.9" height="118" fill="transparent" cursor="crosshair"><title>2026-04-09 · 0 contributions</title></rect>
  <rect x="966.5" y="18" width="2.9" height="118" fill="transparent" cursor="crosshair"><title>2026-04-10 · 0 contributions</title></rect>
  <rect x="969.5" y="18" width="2.9" height="118" fill="transparent" cursor="crosshair"><title>2026-04-11 · 0 contributions</title></rect>
  <rect x="972.4" y="18" width="2.9" height="118" fill="transparent" cursor="crosshair"><title>2026-04-12 · 0 contributions</title></rect>
  <rect x="975.3" y="18" width="2.9" height="118" fill="transparent" cursor="crosshair"><title>2026-04-13 · 0 contributions</title></rect>
  <rect x="978.2" y="18" width="2.9" height="118" fill="transparent" cursor="crosshair"><title>2026-04-14 · 0 contributions</title></rect>
  <rect x="981.2" y="18" width="2.9" height="118" fill="transparent" cursor="crosshair"><title>2026-04-15 · 0 contributions</title></rect>
  <rect x="984.1" y="18" width="2.9" height="118" fill="transparent" cursor="crosshair"><title>2026-04-16 · 0 contributions</title></rect>
  <rect x="987.0" y="18" width="2.9" height="118" fill="transparent" cursor="crosshair"><title>2026-04-17 · 0 contributions</title></rect>
  <rect x="989.9" y="18" width="2.9" height="118" fill="transparent" cursor="crosshair"><title>2026-04-18 · 0 contributions</title></rect>
  <rect x="992.8" y="18" width="2.9" height="118" fill="transparent" cursor="crosshair"><title>2026-04-19 · 0 contributions</title></rect>
  <rect x="995.8" y="18" width="2.9" height="118" fill="transparent" cursor="crosshair"><title>2026-04-20 · 0 contributions</title></rect>
  <rect x="998.7" y="18" width="2.9" height="118" fill="transparent" cursor="crosshair"><title>2026-04-21 · 0 contributions</title></rect>
  <rect x="1001.6" y="18" width="2.9" height="118" fill="transparent" cursor="crosshair"><title>2026-04-22 · 0 contributions</title></rect>
  <rect x="1004.5" y="18" width="2.9" height="118" fill="transparent" cursor="crosshair"><title>2026-04-23 · 0 contributions</title></rect>
  <rect x="1007.5" y="18" width="2.9" height="118" fill="transparent" cursor="crosshair"><title>2026-04-24 · 0 contributions</title></rect>
  <rect x="1010.4" y="18" width="2.9" height="118" fill="transparent" cursor="crosshair"><title>2026-04-25 · 0 contributions</title></rect>
  <rect x="1013.3" y="18" width="2.9" height="118" fill="transparent" cursor="crosshair"><title>2026-04-26 · 0 contributions</title></rect>
  <rect x="1016.2" y="18" width="2.9" height="118" fill="transparent" cursor="crosshair"><title>2026-04-27 · 0 contributions</title></rect>
  <rect x="1019.2" y="18" width="2.9" height="118" fill="transparent" cursor="crosshair"><title>2026-04-28 · 0 contributions</title></rect>
  <rect x="1022.1" y="18" width="2.9" height="118" fill="transparent" cursor="crosshair"><title>2026-04-29 · 0 contributions</title></rect>
  <rect x="1025.0" y="18" width="2.9" height="118" fill="transparent" cursor="crosshair"><title>2026-04-30 · 0 contributions</title></rect>
  <rect x="1027.9" y="18" width="2.9" height="118" fill="transparent" cursor="crosshair"><title>2026-05-01 · 0 contributions</title></rect>
  <rect x="1030.8" y="18" width="2.9" height="118" fill="transparent" cursor="crosshair"><title>2026-05-02 · 0 contributions</title></rect>
  <rect x="1033.8" y="18" width="2.9" height="118" fill="transparent" cursor="crosshair"><title>2026-05-03 · 0 contributions</title></rect>
  <rect x="1036.7" y="18" width="2.9" height="118" fill="transparent" cursor="crosshair"><title>2026-05-04 · 0 contributions</title></rect>
  <rect x="1039.6" y="18" width="2.9" height="118" fill="transparent" cursor="crosshair"><title>2026-05-05 · 0 contributions</title></rect>
  <rect x="1042.5" y="18" width="2.9" height="118" fill="transparent" cursor="crosshair"><title>2026-05-06 · 0 contributions</title></rect>
  <rect x="1045.5" y="18" width="2.9" height="118" fill="transparent" cursor="crosshair"><title>2026-05-07 · 0 contributions</title></rect>
  <rect x="1048.4" y="18" width="2.9" height="118" fill="transparent" cursor="crosshair"><title>2026-05-08 · 0 contributions</title></rect>
  <rect x="1051.3" y="18" width="2.9" height="118" fill="transparent" cursor="crosshair"><title>2026-05-09 · 0 contributions</title></rect>
  <rect x="1054.2" y="18" width="2.9" height="118" fill="transparent" cursor="crosshair"><title>2026-05-10 · 0 contributions</title></rect>
  <rect x="1057.2" y="18" width="2.9" height="118" fill="transparent" cursor="crosshair"><title>2026-05-11 · 0 contributions</title></rect>
  <rect x="1060.1" y="18" width="2.9" height="118" fill="transparent" cursor="crosshair"><title>2026-05-12 · 0 contributions</title></rect>
  <rect x="1063.0" y="18" width="2.9" height="118" fill="transparent" cursor="crosshair"><title>2026-05-13 · 0 contributions</title></rect>
  <rect x="1065.9" y="18" width="2.9" height="118" fill="transparent" cursor="crosshair"><title>2026-05-14 · 0 contributions</title></rect>
  <rect x="1068.8" y="18" width="2.9" height="118" fill="transparent" cursor="crosshair"><title>2026-05-15 · 0 contributions</title></rect>
  <rect x="1071.8" y="18" width="2.9" height="118" fill="transparent" cursor="crosshair"><title>2026-05-16 · 0 contributions</title></rect>
  <rect x="1074.7" y="18" width="2.9" height="118" fill="transparent" cursor="crosshair"><title>2026-05-17 · 0 contributions</title></rect>
  <rect x="1077.6" y="18" width="2.9" height="118" fill="transparent" cursor="crosshair"><title>2026-05-18 · 0 contributions</title></rect>
  <rect x="1080.5" y="18" width="2.9" height="118" fill="transparent" cursor="crosshair"><title>2026-05-19 · 0 contributions</title></rect>

  <text x="1082" y="144" text-anchor="end" font-size="11"
        font-family="JetBrains Mono, Fira Code, ui-monospace, monospace" fill="#DADADA" opacity="0">
    no data · run in CI with GITHUB_TOKEN
    <animate attributeName="opacity" from="0" to="0.55" dur="0.8s" begin="2.6s" fill="freeze"/>
  </text>
</svg>
