<svg xmlns="http://www.w3.org/2000/svg" viewBox="0 0 1100 150" width="100%" preserveAspectRatio="xMidYMid meet" role="img" aria-label="contribution flow for Wint3rNight">
  <defs>
    <linearGradient id="areaGrad" x1="0" x2="0" y1="0" y2="1">
      <stop offset="0%" stop-color="#8658E3" stop-opacity="0.55"/>
      <stop offset="60%" stop-color="#8658E3" stop-opacity="0.18"/>
      <stop offset="100%" stop-color="#8658E3" stop-opacity="0"/>
    </linearGradient>
    <linearGradient id="lineGrad" x1="0" x2="1" y1="0" y2="0">
      <stop offset="0%" stop-color="#8658E3" stop-opacity="0.55"/>
      <stop offset="50%" stop-color="#8658E3" stop-opacity="1"/>
      <stop offset="100%" stop-color="#9B78E0" stop-opacity="1"/>
    </linearGradient>
  </defs>

  <rect x="0.5" y="0.5" width="1099" height="149" rx="8" fill="#201D26" stroke="#45326A" stroke-width="0.8"/>

  <path d="M 18.00,126.17 C 18.49,126.58 19.95,127.97 20.92,128.62 C 21.90,129.28 22.87,129.85 23.85,130.10 C 24.82,130.35 25.79,129.12 26.77,130.10 C 27.74,131.08 28.72,135.02 29.69,136.00 C 30.67,136.98 31.64,136.00 32.62,136.00 C 33.59,136.00 34.56,136.98 35.54,136.00 C 36.51,135.02 37.49,135.51 38.46,130.10 C 39.44,124.69 40.41,107.97 41.38,103.55 C 42.36,99.12 43.33,103.55 44.31,103.55 C 45.28,103.55 46.26,103.55 47.23,103.55 C 48.21,103.55 49.18,102.57 50.15,103.55 C 51.13,104.53 52.10,104.04 53.08,109.45 C 54.05,114.86 55.03,131.57 56.00,136.00 C 56.97,140.43 57.95,136.00 58.92,136.00 C 59.90,136.00 60.87,136.00 61.85,136.00 C 62.82,136.00 63.79,136.00 64.77,136.00 C 65.74,136.00 66.72,136.00 67.69,136.00 C 68.67,136.00 69.64,136.00 70.62,136.00 C 71.59,136.00 72.56,136.00 73.54,136.00 C 74.51,136.00 75.49,136.00 76.46,136.00 C 77.44,136.00 78.41,136.00 79.38,136.00 C 80.36,136.00 81.33,136.00 82.31,136.00 C 83.28,136.00 84.26,136.00 85.23,136.00 C 86.21,136.00 87.18,136.00 88.15,136.00 C 89.13,136.00 90.10,136.00 91.08,136.00 C 92.05,136.00 93.03,136.98 94.00,136.00 C 94.97,135.02 95.95,131.08 96.92,130.10 C 97.90,129.12 98.87,130.10 99.85,130.10 C 100.82,130.10 101.79,130.10 102.77,130.10 C 103.74,130.10 104.72,130.10 105.69,130.10 C 106.67,130.10 107.64,129.12 108.62,130.10 C 109.59,131.08 110.56,135.02 111.54,136.00 C 112.51,136.98 113.49,136.00 114.46,136.00 C 115.44,136.00 116.41,136.00 117.38,136.00 C 118.36,136.00 119.33,136.00 120.31,136.00 C 121.28,136.00 122.26,136.00 123.23,136.00 C 124.21,136.00 125.18,136.00 126.15,136.00 C 127.13,136.00 128.10,136.00 129.08,136.00 C 130.05,136.00 131.03,136.00 132.00,136.00 C 132.97,136.00 133.95,136.00 134.92,136.00 C 135.90,136.00 136.87,136.00 137.85,136.00 C 138.82,136.00 139.79,136.00 140.77,136.00 C 141.74,136.00 142.72,136.00 143.69,136.00 C 144.67,136.00 145.64,136.00 146.62,136.00 C 147.59,136.00 148.56,136.00 149.54,136.00 C 150.51,136.00 151.49,136.00 152.46,136.00 C 153.44,136.00 154.41,136.00 155.38,136.00 C 156.36,136.00 157.33,136.00 158.31,136.00 C 159.28,136.00 160.26,136.00 161.23,136.00 C 162.21,136.00 163.18,136.00 164.15,136.00 C 165.13,136.00 166.10,136.00 167.08,136.00 C 168.05,136.00 169.03,136.00 170.00,136.00 C 170.97,136.00 171.95,136.00 172.92,136.00 C 173.90,136.00 174.87,136.00 175.85,136.00 C 176.82,136.00 177.79,136.00 178.77,136.00 C 179.74,136.00 180.72,136.00 181.69,136.00 C 182.67,136.00 183.64,136.00 184.62,136.00 C 185.59,136.00 186.56,136.00 187.54,136.00 C 188.51,136.00 189.49,136.00 190.46,136.00 C 191.44,136.00 192.41,136.00 193.38,136.00 C 194.36,136.00 195.33,136.00 196.31,136.00 C 197.28,136.00 198.26,136.00 199.23,136.00 C 200.21,136.00 201.18,136.00 202.15,136.00 C 203.13,136.00 204.10,136.00 205.08,136.00 C 206.05,136.00 207.03,136.00 208.00,136.00 C 208.97,136.00 209.95,136.00 210.92,136.00 C 211.90,136.00 212.87,136.00 213.85,136.00 C 214.82,136.00 215.79,136.00 216.77,136.00 C 217.74,136.00 218.72,136.00 219.69,136.00 C 220.67,136.00 221.64,136.00 222.62,136.00 C 223.59,136.00 224.56,136.00 225.54,136.00 C 226.51,136.00 227.49,136.49 228.46,136.00 C 229.44,135.51 230.41,133.54 231.38,133.05 C 232.36,132.56 233.33,133.05 234.31,133.05 C 235.28,133.05 236.26,133.05 237.23,133.05 C 238.21,133.05 239.18,133.05 240.15,133.05 C 241.13,133.05 242.10,132.56 243.08,133.05 C 244.05,133.54 245.03,135.51 246.00,136.00 C 246.97,136.49 247.95,136.00 248.92,136.00 C 249.90,136.00 250.87,136.00 251.85,136.00 C 252.82,136.00 253.79,136.00 254.77,136.00 C 255.74,136.00 256.72,136.00 257.69,136.00 C 258.67,136.00 259.64,136.00 260.62,136.00 C 261.59,136.00 262.56,136.00 263.54,136.00 C 264.51,136.00 265.49,136.00 266.46,136.00 C 267.44,136.00 268.41,136.00 269.38,136.00 C 270.36,136.00 271.33,136.00 272.31,136.00 C 273.28,136.00 274.26,136.00 275.23,136.00 C 276.21,136.00 277.18,136.00 278.15,136.00 C 279.13,136.00 280.10,136.00 281.08,136.00 C 282.05,136.00 283.03,136.00 284.00,136.00 C 284.97,136.00 285.95,136.00 286.92,136.00 C 287.90,136.00 288.87,136.00 289.85,136.00 C 290.82,136.00 291.79,136.00 292.77,136.00 C 293.74,136.00 294.72,136.00 295.69,136.00 C 296.67,136.00 297.64,136.00 298.62,136.00 C 299.59,136.00 300.56,136.00 301.54,136.00 C 302.51,136.00 303.49,136.00 304.46,136.00 C 305.44,136.00 306.41,136.00 307.38,136.00 C 308.36,136.00 309.33,136.00 310.31,136.00 C 311.28,136.00 312.26,136.00 313.23,136.00 C 314.21,136.00 315.18,136.00 316.15,136.00 C 317.13,136.00 318.10,136.00 319.08,136.00 C 320.05,136.00 321.03,136.00 322.00,136.00 C 322.97,136.00 323.95,136.00 324.92,136.00 C 325.90,136.00 326.87,136.00 327.85,136.00 C 328.82,136.00 329.79,136.00 330.77,136.00 C 331.74,136.00 332.72,136.00 333.69,136.00 C 334.67,136.00 335.64,136.00 336.62,136.00 C 337.59,136.00 338.56,136.00 339.54,136.00 C 340.51,136.00 341.49,136.00 342.46,136.00 C 343.44,136.00 344.41,136.00 345.38,136.00 C 346.36,136.00 347.33,136.00 348.31,136.00 C 349.28,136.00 350.26,136.00 351.23,136.00 C 352.21,136.00 353.18,136.00 354.15,136.00 C 355.13,136.00 356.10,136.00 357.08,136.00 C 358.05,136.00 359.03,136.00 360.00,136.00 C 360.97,136.00 361.95,136.00 362.92,136.00 C 363.90,136.00 364.87,136.00 365.85,136.00 C 366.82,136.00 367.79,136.00 368.77,136.00 C 369.74,136.00 370.72,136.00 371.69,136.00 C 372.67,136.00 373.64,136.00 374.62,136.00 C 375.59,136.00 376.56,136.00 377.54,136.00 C 378.51,136.00 379.49,136.00 380.46,136.00 C 381.44,136.00 382.41,136.00 383.38,136.00 C 384.36,136.00 385.33,136.00 386.31,136.00 C 387.28,136.00 388.26,136.00 389.23,136.00 C 390.21,136.00 391.18,136.00 392.15,136.00 C 393.13,136.00 394.10,136.00 395.08,136.00 C 396.05,136.00 397.03,136.00 398.00,136.00 C 398.97,136.00 399.95,136.00 400.92,136.00 C 401.90,136.00 402.87,136.00 403.85,136.00 C 404.82,136.00 405.79,136.00 406.77,136.00 C 407.74,136.00 408.72,136.49 409.69,136.00 C 410.67,135.51 411.64,135.51 412.62,133.05 C 413.59,130.59 414.56,124.20 415.54,121.25 C 416.51,118.30 417.49,117.81 418.46,115.35 C 419.44,112.89 420.41,109.94 421.38,106.50 C 422.36,103.06 423.33,96.67 424.31,94.70 C 425.28,92.73 426.26,92.73 427.23,94.70 C 428.21,96.67 429.18,103.55 430.15,106.50 C 431.13,109.45 432.10,109.94 433.08,112.40 C 434.05,114.86 435.03,118.30 436.00,121.25 C 436.97,124.20 437.95,129.12 438.92,130.10 C 439.90,131.08 440.87,131.08 441.85,127.15 C 442.82,123.22 443.79,109.94 444.77,106.50 C 445.74,103.06 446.72,106.50 447.69,106.50 C 448.67,106.50 449.64,106.01 450.62,106.50 C 451.59,106.99 452.56,107.98 453.54,109.45 C 454.51,110.92 455.49,110.92 456.46,115.35 C 457.44,119.77 458.41,132.56 459.38,136.00 C 460.36,139.44 461.33,138.46 462.31,136.00 C 463.28,133.54 464.26,125.67 465.23,121.25 C 466.21,116.83 467.18,113.38 468.15,109.45 C 469.13,105.52 470.10,100.11 471.08,97.65 C 472.05,95.19 473.03,95.68 474.00,94.70 C 474.97,93.72 475.95,89.78 476.92,91.75 C 477.90,93.72 478.87,102.08 479.85,106.50 C 480.82,110.92 481.79,114.37 482.77,118.30 C 483.74,122.23 484.72,128.13 485.69,130.10 C 486.67,132.07 487.64,131.08 488.62,130.10 C 489.59,129.12 490.56,125.18 491.54,124.20 C 492.51,123.22 493.49,124.20 494.46,124.20 C 495.44,124.20 496.41,124.20 497.38,124.20 C 498.36,124.20 499.33,123.71 500.31,124.20 C 501.28,124.69 502.26,126.66 503.23,127.15 C 504.21,127.64 505.18,127.64 506.15,127.15 C 507.13,126.66 508.10,124.69 509.08,124.20 C 510.05,123.71 511.03,124.20 512.00,124.20 C 512.97,124.20 513.95,124.20 514.92,124.20 C 515.90,124.20 516.87,122.72 517.85,124.20 C 518.82,125.68 519.79,131.08 520.77,133.05 C 521.74,135.02 522.72,135.51 523.69,136.00 C 524.67,136.49 525.64,136.00 526.62,136.00 C 527.59,136.00 528.56,136.49 529.54,136.00 C 530.51,135.51 531.49,133.54 532.46,133.05 C 533.44,132.56 534.41,133.05 535.38,133.05 C 536.36,133.05 537.33,133.54 538.31,133.05 C 539.28,132.56 540.26,130.59 541.23,130.10 C 542.21,129.61 543.18,130.59 544.15,130.10 C 545.13,129.61 546.10,127.64 547.08,127.15 C 548.05,126.66 549.03,127.15 550.00,127.15 C 550.97,127.15 551.95,126.66 552.92,127.15 C 553.90,127.64 554.87,129.61 555.85,130.10 C 556.82,130.59 557.79,129.12 558.77,130.10 C 559.74,131.08 560.72,135.51 561.69,136.00 C 562.67,136.49 563.64,134.03 564.62,133.05 C 565.59,132.07 566.56,131.08 567.54,130.10 C 568.51,129.12 569.49,127.64 570.46,127.15 C 571.44,126.66 572.41,127.15 573.38,127.15 C 574.36,127.15 575.33,127.15 576.31,127.15 C 577.28,127.15 578.26,126.66 579.23,127.15 C 580.21,127.64 581.18,129.12 582.15,130.10 C 583.13,131.08 584.10,133.05 585.08,133.05 C 586.05,133.05 587.03,130.59 588.00,130.10 C 588.97,129.61 589.95,129.61 590.92,130.10 C 591.90,130.59 592.87,132.56 593.85,133.05 C 594.82,133.54 595.79,134.03 596.77,133.05 C 597.74,132.07 598.72,128.13 599.69,127.15 C 600.67,126.17 601.64,129.12 602.62,127.15 C 603.59,125.18 604.56,117.32 605.54,115.35 C 606.51,113.38 607.49,115.35 608.46,115.35 C 609.44,115.35 610.41,114.37 611.38,115.35 C 612.36,116.33 613.33,119.78 614.31,121.25 C 615.28,122.72 616.26,121.74 617.23,124.20 C 618.21,126.66 619.18,134.03 620.15,136.00 C 621.13,137.97 622.10,136.00 623.08,136.00 C 624.05,136.00 625.03,136.00 626.00,136.00 C 626.97,136.00 627.95,136.98 628.92,136.00 C 629.90,135.02 630.87,132.07 631.85,130.10 C 632.82,128.13 633.79,125.18 634.77,124.20 C 635.74,123.22 636.72,125.18 637.69,124.20 C 638.67,123.22 639.64,119.28 640.62,118.30 C 641.59,117.32 642.56,117.32 643.54,118.30 C 644.51,119.28 645.49,125.18 646.46,124.20 C 647.44,123.22 648.41,114.86 649.38,112.40 C 650.36,109.94 651.33,108.96 652.31,109.45 C 653.28,109.94 654.26,116.33 655.23,115.35 C 656.21,114.37 657.18,106.01 658.15,103.55 C 659.13,101.09 660.10,98.14 661.08,100.60 C 662.05,103.06 663.03,114.86 664.00,118.30 C 664.97,121.74 665.95,120.76 666.92,121.25 C 667.90,121.74 668.87,119.28 669.85,121.25 C 670.82,123.22 671.79,130.59 672.77,133.05 C 673.74,135.51 674.72,135.51 675.69,136.00 C 676.67,136.49 677.64,136.49 678.62,136.00 C 679.59,135.51 680.56,134.03 681.54,133.05 C 682.51,132.07 683.49,130.59 684.46,130.10 C 685.44,129.61 686.41,130.10 687.38,130.10 C 688.36,130.10 689.33,130.10 690.31,130.10 C 691.28,130.10 692.26,129.61 693.23,130.10 C 694.21,130.59 695.18,136.98 696.15,133.05 C 697.13,129.12 698.10,117.32 699.08,106.50 C 700.05,95.68 701.03,78.97 702.00,68.15 C 702.97,57.33 703.95,46.52 704.92,41.60 C 705.90,36.68 706.87,41.11 707.85,38.65 C 708.82,36.19 709.79,26.36 710.77,26.85 C 711.74,27.34 712.72,38.16 713.69,41.60 C 714.67,45.04 715.64,42.09 716.62,47.50 C 717.59,52.91 718.56,69.62 719.54,74.05 C 720.51,78.47 721.49,72.57 722.46,74.05 C 723.44,75.53 724.41,80.44 725.38,82.90 C 726.36,85.36 727.33,83.39 728.31,88.80 C 729.28,94.21 730.26,111.42 731.23,115.35 C 732.21,119.28 733.18,112.40 734.15,112.40 C 735.13,112.40 736.10,119.77 737.08,115.35 C 738.05,110.92 739.03,90.27 740.00,85.85 C 740.97,81.42 741.95,87.32 742.92,88.80 C 743.90,90.28 744.87,93.22 745.85,94.70 C 746.82,96.18 747.79,97.16 748.77,97.65 C 749.74,98.14 750.72,92.24 751.69,97.65 C 752.67,103.06 753.64,123.71 754.62,130.10 C 755.59,136.49 756.56,136.98 757.54,136.00 C 758.51,135.02 759.49,126.17 760.46,124.20 C 761.44,122.23 762.41,124.20 763.38,124.20 C 764.36,124.20 765.33,124.20 766.31,124.20 C 767.28,124.20 768.26,124.20 769.23,124.20 C 770.21,124.20 771.18,122.23 772.15,124.20 C 773.13,126.17 774.10,134.03 775.08,136.00 C 776.05,137.97 777.03,136.49 778.00,136.00 C 778.97,135.51 779.95,133.54 780.92,133.05 C 781.90,132.56 782.87,133.05 783.85,133.05 C 784.82,133.05 785.79,133.05 786.77,133.05 C 787.74,133.05 788.72,133.05 789.69,133.05 C 790.67,133.05 791.64,132.56 792.62,133.05 C 793.59,133.54 794.56,135.51 795.54,136.00 C 796.51,136.49 797.49,136.49 798.46,136.00 C 799.44,135.51 800.41,133.54 801.38,133.05 C 802.36,132.56 803.33,133.05 804.31,133.05 C 805.28,133.05 806.26,133.05 807.23,133.05 C 808.21,133.05 809.18,133.05 810.15,133.05 C 811.13,133.05 812.10,132.56 813.08,133.05 C 814.05,133.54 815.03,135.51 816.00,136.00 C 816.97,136.49 817.95,136.49 818.92,136.00 C 819.90,135.51 820.87,133.54 821.85,133.05 C 822.82,132.56 823.79,133.05 824.77,133.05 C 825.74,133.05 826.72,133.05 827.69,133.05 C 828.67,133.05 829.64,133.05 830.62,133.05 C 831.59,133.05 832.56,132.56 833.54,133.05 C 834.51,133.54 835.49,135.51 836.46,136.00 C 837.44,136.49 838.41,136.49 839.38,136.00 C 840.36,135.51 841.33,133.54 842.31,133.05 C 843.28,132.56 844.26,133.05 845.23,133.05 C 846.21,133.05 847.18,133.05 848.15,133.05 C 849.13,133.05 850.10,133.05 851.08,133.05 C 852.05,133.05 853.03,132.56 854.00,133.05 C 854.97,133.54 855.95,135.51 856.92,136.00 C 857.90,136.49 858.87,136.49 859.85,136.00 C 860.82,135.51 861.79,133.54 862.77,133.05 C 863.74,132.56 864.72,133.05 865.69,133.05 C 866.67,133.05 867.64,133.05 868.62,133.05 C 869.59,133.05 870.56,133.05 871.54,133.05 C 872.51,133.05 873.49,132.56 874.46,133.05 C 875.44,133.54 876.41,135.51 877.38,136.00 C 878.36,136.49 879.33,136.49 880.31,136.00 C 881.28,135.51 882.26,133.54 883.23,133.05 C 884.21,132.56 885.18,133.05 886.15,133.05 C 887.13,133.05 888.10,137.48 889.08,133.05 C 890.05,128.62 891.03,111.42 892.00,106.50 C 892.97,101.58 893.95,103.55 894.92,103.55 C 895.90,103.55 896.87,106.01 897.85,106.50 C 898.82,106.99 899.79,106.99 900.77,106.50 C 901.74,106.01 902.72,99.62 903.69,103.55 C 904.67,107.48 905.64,125.18 906.62,130.10 C 907.59,135.02 908.56,132.56 909.54,133.05 C 910.51,133.54 911.49,134.03 912.46,133.05 C 913.44,132.07 914.41,128.62 915.38,127.15 C 916.36,125.68 917.33,124.69 918.31,124.20 C 919.28,123.71 920.26,124.69 921.23,124.20 C 922.21,123.71 923.18,122.23 924.15,121.25 C 925.13,120.27 926.10,119.77 927.08,118.30 C 928.05,116.83 929.03,117.32 930.00,112.40 C 930.97,107.48 931.95,93.72 932.92,88.80 C 933.90,83.88 934.87,84.87 935.85,82.90 C 936.82,80.93 937.79,77.49 938.77,77.00 C 939.74,76.51 940.72,77.98 941.69,79.95 C 942.67,81.92 943.64,82.41 944.62,88.80 C 945.59,95.19 946.56,126.17 947.54,118.30 C 948.51,110.43 949.49,53.40 950.46,41.60 C 951.44,29.80 952.41,48.48 953.38,47.50 C 954.36,46.52 955.33,39.63 956.31,35.70 C 957.28,31.77 958.26,26.85 959.23,23.90 C 960.21,20.95 961.18,5.71 962.15,18.00 C 963.13,30.29 964.10,84.38 965.08,97.65 C 966.05,110.93 967.03,96.18 968.00,97.65 C 968.97,99.12 969.95,103.06 970.92,106.50 C 971.90,109.94 972.87,115.84 973.85,118.30 C 974.82,120.76 975.79,120.76 976.77,121.25 C 977.74,121.74 978.72,122.23 979.69,121.25 C 980.67,120.27 981.64,117.32 982.62,115.35 C 983.59,113.38 984.56,110.43 985.54,109.45 C 986.51,108.47 987.49,109.94 988.46,109.45 C 989.44,108.96 990.41,106.99 991.38,106.50 C 992.36,106.01 993.33,105.52 994.31,106.50 C 995.28,107.48 996.26,110.43 997.23,112.40 C 998.21,114.37 999.18,117.32 1000.15,118.30 C 1001.13,119.28 1002.10,117.81 1003.08,118.30 C 1004.05,118.79 1005.03,124.20 1006.00,121.25 C 1006.97,118.30 1007.95,111.91 1008.92,100.60 C 1009.90,89.29 1010.87,61.76 1011.85,53.40 C 1012.82,45.04 1013.79,50.94 1014.77,50.45 C 1015.74,49.96 1016.72,50.45 1017.69,50.45 C 1018.67,50.45 1019.64,47.01 1020.62,50.45 C 1021.59,53.89 1022.56,60.77 1023.54,71.10 C 1024.51,81.42 1025.49,105.03 1026.46,112.40 C 1027.44,119.78 1028.41,114.86 1029.38,115.35 C 1030.36,115.84 1031.33,115.84 1032.31,115.35 C 1033.28,114.86 1034.26,117.32 1035.23,112.40 C 1036.21,107.48 1037.18,93.72 1038.15,85.85 C 1039.13,77.98 1040.10,71.59 1041.08,65.20 C 1042.05,58.81 1043.03,50.45 1044.00,47.50 C 1044.97,44.55 1045.95,48.48 1046.92,47.50 C 1047.90,46.52 1048.87,41.60 1049.85,41.60 C 1050.82,41.60 1051.79,42.58 1052.77,47.50 C 1053.74,52.42 1054.72,66.18 1055.69,71.10 C 1056.67,76.02 1057.64,78.47 1058.62,77.00 C 1059.59,75.53 1060.56,63.23 1061.54,62.25 C 1062.51,61.27 1063.49,66.18 1064.46,71.10 C 1065.44,76.02 1066.41,87.82 1067.38,91.75 C 1068.36,95.68 1069.33,93.72 1070.31,94.70 C 1071.28,95.68 1072.26,95.19 1073.23,97.65 C 1074.21,100.11 1075.18,107.98 1076.15,109.45 C 1077.13,110.92 1078.10,107.81 1079.08,106.50 C 1080.05,105.19 1081.51,102.40 1082.00,101.58 L 1082.00,136.00 L 18.00,136.00 Z" fill="url(#areaGrad)">
    <animate attributeName="opacity" from="0" to="1" dur="2.5s" fill="freeze" begin="0.3s"/>
  </path>

  <path d="M 18.00,126.17 C 18.49,126.58 19.95,127.97 20.92,128.62 C 21.90,129.28 22.87,129.85 23.85,130.10 C 24.82,130.35 25.79,129.12 26.77,130.10 C 27.74,131.08 28.72,135.02 29.69,136.00 C 30.67,136.98 31.64,136.00 32.62,136.00 C 33.59,136.00 34.56,136.98 35.54,136.00 C 36.51,135.02 37.49,135.51 38.46,130.10 C 39.44,124.69 40.41,107.97 41.38,103.55 C 42.36,99.12 43.33,103.55 44.31,103.55 C 45.28,103.55 46.26,103.55 47.23,103.55 C 48.21,103.55 49.18,102.57 50.15,103.55 C 51.13,104.53 52.10,104.04 53.08,109.45 C 54.05,114.86 55.03,131.57 56.00,136.00 C 56.97,140.43 57.95,136.00 58.92,136.00 C 59.90,136.00 60.87,136.00 61.85,136.00 C 62.82,136.00 63.79,136.00 64.77,136.00 C 65.74,136.00 66.72,136.00 67.69,136.00 C 68.67,136.00 69.64,136.00 70.62,136.00 C 71.59,136.00 72.56,136.00 73.54,136.00 C 74.51,136.00 75.49,136.00 76.46,136.00 C 77.44,136.00 78.41,136.00 79.38,136.00 C 80.36,136.00 81.33,136.00 82.31,136.00 C 83.28,136.00 84.26,136.00 85.23,136.00 C 86.21,136.00 87.18,136.00 88.15,136.00 C 89.13,136.00 90.10,136.00 91.08,136.00 C 92.05,136.00 93.03,136.98 94.00,136.00 C 94.97,135.02 95.95,131.08 96.92,130.10 C 97.90,129.12 98.87,130.10 99.85,130.10 C 100.82,130.10 101.79,130.10 102.77,130.10 C 103.74,130.10 104.72,130.10 105.69,130.10 C 106.67,130.10 107.64,129.12 108.62,130.10 C 109.59,131.08 110.56,135.02 111.54,136.00 C 112.51,136.98 113.49,136.00 114.46,136.00 C 115.44,136.00 116.41,136.00 117.38,136.00 C 118.36,136.00 119.33,136.00 120.31,136.00 C 121.28,136.00 122.26,136.00 123.23,136.00 C 124.21,136.00 125.18,136.00 126.15,136.00 C 127.13,136.00 128.10,136.00 129.08,136.00 C 130.05,136.00 131.03,136.00 132.00,136.00 C 132.97,136.00 133.95,136.00 134.92,136.00 C 135.90,136.00 136.87,136.00 137.85,136.00 C 138.82,136.00 139.79,136.00 140.77,136.00 C 141.74,136.00 142.72,136.00 143.69,136.00 C 144.67,136.00 145.64,136.00 146.62,136.00 C 147.59,136.00 148.56,136.00 149.54,136.00 C 150.51,136.00 151.49,136.00 152.46,136.00 C 153.44,136.00 154.41,136.00 155.38,136.00 C 156.36,136.00 157.33,136.00 158.31,136.00 C 159.28,136.00 160.26,136.00 161.23,136.00 C 162.21,136.00 163.18,136.00 164.15,136.00 C 165.13,136.00 166.10,136.00 167.08,136.00 C 168.05,136.00 169.03,136.00 170.00,136.00 C 170.97,136.00 171.95,136.00 172.92,136.00 C 173.90,136.00 174.87,136.00 175.85,136.00 C 176.82,136.00 177.79,136.00 178.77,136.00 C 179.74,136.00 180.72,136.00 181.69,136.00 C 182.67,136.00 183.64,136.00 184.62,136.00 C 185.59,136.00 186.56,136.00 187.54,136.00 C 188.51,136.00 189.49,136.00 190.46,136.00 C 191.44,136.00 192.41,136.00 193.38,136.00 C 194.36,136.00 195.33,136.00 196.31,136.00 C 197.28,136.00 198.26,136.00 199.23,136.00 C 200.21,136.00 201.18,136.00 202.15,136.00 C 203.13,136.00 204.10,136.00 205.08,136.00 C 206.05,136.00 207.03,136.00 208.00,136.00 C 208.97,136.00 209.95,136.00 210.92,136.00 C 211.90,136.00 212.87,136.00 213.85,136.00 C 214.82,136.00 215.79,136.00 216.77,136.00 C 217.74,136.00 218.72,136.00 219.69,136.00 C 220.67,136.00 221.64,136.00 222.62,136.00 C 223.59,136.00 224.56,136.00 225.54,136.00 C 226.51,136.00 227.49,136.49 228.46,136.00 C 229.44,135.51 230.41,133.54 231.38,133.05 C 232.36,132.56 233.33,133.05 234.31,133.05 C 235.28,133.05 236.26,133.05 237.23,133.05 C 238.21,133.05 239.18,133.05 240.15,133.05 C 241.13,133.05 242.10,132.56 243.08,133.05 C 244.05,133.54 245.03,135.51 246.00,136.00 C 246.97,136.49 247.95,136.00 248.92,136.00 C 249.90,136.00 250.87,136.00 251.85,136.00 C 252.82,136.00 253.79,136.00 254.77,136.00 C 255.74,136.00 256.72,136.00 257.69,136.00 C 258.67,136.00 259.64,136.00 260.62,136.00 C 261.59,136.00 262.56,136.00 263.54,136.00 C 264.51,136.00 265.49,136.00 266.46,136.00 C 267.44,136.00 268.41,136.00 269.38,136.00 C 270.36,136.00 271.33,136.00 272.31,136.00 C 273.28,136.00 274.26,136.00 275.23,136.00 C 276.21,136.00 277.18,136.00 278.15,136.00 C 279.13,136.00 280.10,136.00 281.08,136.00 C 282.05,136.00 283.03,136.00 284.00,136.00 C 284.97,136.00 285.95,136.00 286.92,136.00 C 287.90,136.00 288.87,136.00 289.85,136.00 C 290.82,136.00 291.79,136.00 292.77,136.00 C 293.74,136.00 294.72,136.00 295.69,136.00 C 296.67,136.00 297.64,136.00 298.62,136.00 C 299.59,136.00 300.56,136.00 301.54,136.00 C 302.51,136.00 303.49,136.00 304.46,136.00 C 305.44,136.00 306.41,136.00 307.38,136.00 C 308.36,136.00 309.33,136.00 310.31,136.00 C 311.28,136.00 312.26,136.00 313.23,136.00 C 314.21,136.00 315.18,136.00 316.15,136.00 C 317.13,136.00 318.10,136.00 319.08,136.00 C 320.05,136.00 321.03,136.00 322.00,136.00 C 322.97,136.00 323.95,136.00 324.92,136.00 C 325.90,136.00 326.87,136.00 327.85,136.00 C 328.82,136.00 329.79,136.00 330.77,136.00 C 331.74,136.00 332.72,136.00 333.69,136.00 C 334.67,136.00 335.64,136.00 336.62,136.00 C 337.59,136.00 338.56,136.00 339.54,136.00 C 340.51,136.00 341.49,136.00 342.46,136.00 C 343.44,136.00 344.41,136.00 345.38,136.00 C 346.36,136.00 347.33,136.00 348.31,136.00 C 349.28,136.00 350.26,136.00 351.23,136.00 C 352.21,136.00 353.18,136.00 354.15,136.00 C 355.13,136.00 356.10,136.00 357.08,136.00 C 358.05,136.00 359.03,136.00 360.00,136.00 C 360.97,136.00 361.95,136.00 362.92,136.00 C 363.90,136.00 364.87,136.00 365.85,136.00 C 366.82,136.00 367.79,136.00 368.77,136.00 C 369.74,136.00 370.72,136.00 371.69,136.00 C 372.67,136.00 373.64,136.00 374.62,136.00 C 375.59,136.00 376.56,136.00 377.54,136.00 C 378.51,136.00 379.49,136.00 380.46,136.00 C 381.44,136.00 382.41,136.00 383.38,136.00 C 384.36,136.00 385.33,136.00 386.31,136.00 C 387.28,136.00 388.26,136.00 389.23,136.00 C 390.21,136.00 391.18,136.00 392.15,136.00 C 393.13,136.00 394.10,136.00 395.08,136.00 C 396.05,136.00 397.03,136.00 398.00,136.00 C 398.97,136.00 399.95,136.00 400.92,136.00 C 401.90,136.00 402.87,136.00 403.85,136.00 C 404.82,136.00 405.79,136.00 406.77,136.00 C 407.74,136.00 408.72,136.49 409.69,136.00 C 410.67,135.51 411.64,135.51 412.62,133.05 C 413.59,130.59 414.56,124.20 415.54,121.25 C 416.51,118.30 417.49,117.81 418.46,115.35 C 419.44,112.89 420.41,109.94 421.38,106.50 C 422.36,103.06 423.33,96.67 424.31,94.70 C 425.28,92.73 426.26,92.73 427.23,94.70 C 428.21,96.67 429.18,103.55 430.15,106.50 C 431.13,109.45 432.10,109.94 433.08,112.40 C 434.05,114.86 435.03,118.30 436.00,121.25 C 436.97,124.20 437.95,129.12 438.92,130.10 C 439.90,131.08 440.87,131.08 441.85,127.15 C 442.82,123.22 443.79,109.94 444.77,106.50 C 445.74,103.06 446.72,106.50 447.69,106.50 C 448.67,106.50 449.64,106.01 450.62,106.50 C 451.59,106.99 452.56,107.98 453.54,109.45 C 454.51,110.92 455.49,110.92 456.46,115.35 C 457.44,119.77 458.41,132.56 459.38,136.00 C 460.36,139.44 461.33,138.46 462.31,136.00 C 463.28,133.54 464.26,125.67 465.23,121.25 C 466.21,116.83 467.18,113.38 468.15,109.45 C 469.13,105.52 470.10,100.11 471.08,97.65 C 472.05,95.19 473.03,95.68 474.00,94.70 C 474.97,93.72 475.95,89.78 476.92,91.75 C 477.90,93.72 478.87,102.08 479.85,106.50 C 480.82,110.92 481.79,114.37 482.77,118.30 C 483.74,122.23 484.72,128.13 485.69,130.10 C 486.67,132.07 487.64,131.08 488.62,130.10 C 489.59,129.12 490.56,125.18 491.54,124.20 C 492.51,123.22 493.49,124.20 494.46,124.20 C 495.44,124.20 496.41,124.20 497.38,124.20 C 498.36,124.20 499.33,123.71 500.31,124.20 C 501.28,124.69 502.26,126.66 503.23,127.15 C 504.21,127.64 505.18,127.64 506.15,127.15 C 507.13,126.66 508.10,124.69 509.08,124.20 C 510.05,123.71 511.03,124.20 512.00,124.20 C 512.97,124.20 513.95,124.20 514.92,124.20 C 515.90,124.20 516.87,122.72 517.85,124.20 C 518.82,125.68 519.79,131.08 520.77,133.05 C 521.74,135.02 522.72,135.51 523.69,136.00 C 524.67,136.49 525.64,136.00 526.62,136.00 C 527.59,136.00 528.56,136.49 529.54,136.00 C 530.51,135.51 531.49,133.54 532.46,133.05 C 533.44,132.56 534.41,133.05 535.38,133.05 C 536.36,133.05 537.33,133.54 538.31,133.05 C 539.28,132.56 540.26,130.59 541.23,130.10 C 542.21,129.61 543.18,130.59 544.15,130.10 C 545.13,129.61 546.10,127.64 547.08,127.15 C 548.05,126.66 549.03,127.15 550.00,127.15 C 550.97,127.15 551.95,126.66 552.92,127.15 C 553.90,127.64 554.87,129.61 555.85,130.10 C 556.82,130.59 557.79,129.12 558.77,130.10 C 559.74,131.08 560.72,135.51 561.69,136.00 C 562.67,136.49 563.64,134.03 564.62,133.05 C 565.59,132.07 566.56,131.08 567.54,130.10 C 568.51,129.12 569.49,127.64 570.46,127.15 C 571.44,126.66 572.41,127.15 573.38,127.15 C 574.36,127.15 575.33,127.15 576.31,127.15 C 577.28,127.15 578.26,126.66 579.23,127.15 C 580.21,127.64 581.18,129.12 582.15,130.10 C 583.13,131.08 584.10,133.05 585.08,133.05 C 586.05,133.05 587.03,130.59 588.00,130.10 C 588.97,129.61 589.95,129.61 590.92,130.10 C 591.90,130.59 592.87,132.56 593.85,133.05 C 594.82,133.54 595.79,134.03 596.77,133.05 C 597.74,132.07 598.72,128.13 599.69,127.15 C 600.67,126.17 601.64,129.12 602.62,127.15 C 603.59,125.18 604.56,117.32 605.54,115.35 C 606.51,113.38 607.49,115.35 608.46,115.35 C 609.44,115.35 610.41,114.37 611.38,115.35 C 612.36,116.33 613.33,119.78 614.31,121.25 C 615.28,122.72 616.26,121.74 617.23,124.20 C 618.21,126.66 619.18,134.03 620.15,136.00 C 621.13,137.97 622.10,136.00 623.08,136.00 C 624.05,136.00 625.03,136.00 626.00,136.00 C 626.97,136.00 627.95,136.98 628.92,136.00 C 629.90,135.02 630.87,132.07 631.85,130.10 C 632.82,128.13 633.79,125.18 634.77,124.20 C 635.74,123.22 636.72,125.18 637.69,124.20 C 638.67,123.22 639.64,119.28 640.62,118.30 C 641.59,117.32 642.56,117.32 643.54,118.30 C 644.51,119.28 645.49,125.18 646.46,124.20 C 647.44,123.22 648.41,114.86 649.38,112.40 C 650.36,109.94 651.33,108.96 652.31,109.45 C 653.28,109.94 654.26,116.33 655.23,115.35 C 656.21,114.37 657.18,106.01 658.15,103.55 C 659.13,101.09 660.10,98.14 661.08,100.60 C 662.05,103.06 663.03,114.86 664.00,118.30 C 664.97,121.74 665.95,120.76 666.92,121.25 C 667.90,121.74 668.87,119.28 669.85,121.25 C 670.82,123.22 671.79,130.59 672.77,133.05 C 673.74,135.51 674.72,135.51 675.69,136.00 C 676.67,136.49 677.64,136.49 678.62,136.00 C 679.59,135.51 680.56,134.03 681.54,133.05 C 682.51,132.07 683.49,130.59 684.46,130.10 C 685.44,129.61 686.41,130.10 687.38,130.10 C 688.36,130.10 689.33,130.10 690.31,130.10 C 691.28,130.10 692.26,129.61 693.23,130.10 C 694.21,130.59 695.18,136.98 696.15,133.05 C 697.13,129.12 698.10,117.32 699.08,106.50 C 700.05,95.68 701.03,78.97 702.00,68.15 C 702.97,57.33 703.95,46.52 704.92,41.60 C 705.90,36.68 706.87,41.11 707.85,38.65 C 708.82,36.19 709.79,26.36 710.77,26.85 C 711.74,27.34 712.72,38.16 713.69,41.60 C 714.67,45.04 715.64,42.09 716.62,47.50 C 717.59,52.91 718.56,69.62 719.54,74.05 C 720.51,78.47 721.49,72.57 722.46,74.05 C 723.44,75.53 724.41,80.44 725.38,82.90 C 726.36,85.36 727.33,83.39 728.31,88.80 C 729.28,94.21 730.26,111.42 731.23,115.35 C 732.21,119.28 733.18,112.40 734.15,112.40 C 735.13,112.40 736.10,119.77 737.08,115.35 C 738.05,110.92 739.03,90.27 740.00,85.85 C 740.97,81.42 741.95,87.32 742.92,88.80 C 743.90,90.28 744.87,93.22 745.85,94.70 C 746.82,96.18 747.79,97.16 748.77,97.65 C 749.74,98.14 750.72,92.24 751.69,97.65 C 752.67,103.06 753.64,123.71 754.62,130.10 C 755.59,136.49 756.56,136.98 757.54,136.00 C 758.51,135.02 759.49,126.17 760.46,124.20 C 761.44,122.23 762.41,124.20 763.38,124.20 C 764.36,124.20 765.33,124.20 766.31,124.20 C 767.28,124.20 768.26,124.20 769.23,124.20 C 770.21,124.20 771.18,122.23 772.15,124.20 C 773.13,126.17 774.10,134.03 775.08,136.00 C 776.05,137.97 777.03,136.49 778.00,136.00 C 778.97,135.51 779.95,133.54 780.92,133.05 C 781.90,132.56 782.87,133.05 783.85,133.05 C 784.82,133.05 785.79,133.05 786.77,133.05 C 787.74,133.05 788.72,133.05 789.69,133.05 C 790.67,133.05 791.64,132.56 792.62,133.05 C 793.59,133.54 794.56,135.51 795.54,136.00 C 796.51,136.49 797.49,136.49 798.46,136.00 C 799.44,135.51 800.41,133.54 801.38,133.05 C 802.36,132.56 803.33,133.05 804.31,133.05 C 805.28,133.05 806.26,133.05 807.23,133.05 C 808.21,133.05 809.18,133.05 810.15,133.05 C 811.13,133.05 812.10,132.56 813.08,133.05 C 814.05,133.54 815.03,135.51 816.00,136.00 C 816.97,136.49 817.95,136.49 818.92,136.00 C 819.90,135.51 820.87,133.54 821.85,133.05 C 822.82,132.56 823.79,133.05 824.77,133.05 C 825.74,133.05 826.72,133.05 827.69,133.05 C 828.67,133.05 829.64,133.05 830.62,133.05 C 831.59,133.05 832.56,132.56 833.54,133.05 C 834.51,133.54 835.49,135.51 836.46,136.00 C 837.44,136.49 838.41,136.49 839.38,136.00 C 840.36,135.51 841.33,133.54 842.31,133.05 C 843.28,132.56 844.26,133.05 845.23,133.05 C 846.21,133.05 847.18,133.05 848.15,133.05 C 849.13,133.05 850.10,133.05 851.08,133.05 C 852.05,133.05 853.03,132.56 854.00,133.05 C 854.97,133.54 855.95,135.51 856.92,136.00 C 857.90,136.49 858.87,136.49 859.85,136.00 C 860.82,135.51 861.79,133.54 862.77,133.05 C 863.74,132.56 864.72,133.05 865.69,133.05 C 866.67,133.05 867.64,133.05 868.62,133.05 C 869.59,133.05 870.56,133.05 871.54,133.05 C 872.51,133.05 873.49,132.56 874.46,133.05 C 875.44,133.54 876.41,135.51 877.38,136.00 C 878.36,136.49 879.33,136.49 880.31,136.00 C 881.28,135.51 882.26,133.54 883.23,133.05 C 884.21,132.56 885.18,133.05 886.15,133.05 C 887.13,133.05 888.10,137.48 889.08,133.05 C 890.05,128.62 891.03,111.42 892.00,106.50 C 892.97,101.58 893.95,103.55 894.92,103.55 C 895.90,103.55 896.87,106.01 897.85,106.50 C 898.82,106.99 899.79,106.99 900.77,106.50 C 901.74,106.01 902.72,99.62 903.69,103.55 C 904.67,107.48 905.64,125.18 906.62,130.10 C 907.59,135.02 908.56,132.56 909.54,133.05 C 910.51,133.54 911.49,134.03 912.46,133.05 C 913.44,132.07 914.41,128.62 915.38,127.15 C 916.36,125.68 917.33,124.69 918.31,124.20 C 919.28,123.71 920.26,124.69 921.23,124.20 C 922.21,123.71 923.18,122.23 924.15,121.25 C 925.13,120.27 926.10,119.77 927.08,118.30 C 928.05,116.83 929.03,117.32 930.00,112.40 C 930.97,107.48 931.95,93.72 932.92,88.80 C 933.90,83.88 934.87,84.87 935.85,82.90 C 936.82,80.93 937.79,77.49 938.77,77.00 C 939.74,76.51 940.72,77.98 941.69,79.95 C 942.67,81.92 943.64,82.41 944.62,88.80 C 945.59,95.19 946.56,126.17 947.54,118.30 C 948.51,110.43 949.49,53.40 950.46,41.60 C 951.44,29.80 952.41,48.48 953.38,47.50 C 954.36,46.52 955.33,39.63 956.31,35.70 C 957.28,31.77 958.26,26.85 959.23,23.90 C 960.21,20.95 961.18,5.71 962.15,18.00 C 963.13,30.29 964.10,84.38 965.08,97.65 C 966.05,110.93 967.03,96.18 968.00,97.65 C 968.97,99.12 969.95,103.06 970.92,106.50 C 971.90,109.94 972.87,115.84 973.85,118.30 C 974.82,120.76 975.79,120.76 976.77,121.25 C 977.74,121.74 978.72,122.23 979.69,121.25 C 980.67,120.27 981.64,117.32 982.62,115.35 C 983.59,113.38 984.56,110.43 985.54,109.45 C 986.51,108.47 987.49,109.94 988.46,109.45 C 989.44,108.96 990.41,106.99 991.38,106.50 C 992.36,106.01 993.33,105.52 994.31,106.50 C 995.28,107.48 996.26,110.43 997.23,112.40 C 998.21,114.37 999.18,117.32 1000.15,118.30 C 1001.13,119.28 1002.10,117.81 1003.08,118.30 C 1004.05,118.79 1005.03,124.20 1006.00,121.25 C 1006.97,118.30 1007.95,111.91 1008.92,100.60 C 1009.90,89.29 1010.87,61.76 1011.85,53.40 C 1012.82,45.04 1013.79,50.94 1014.77,50.45 C 1015.74,49.96 1016.72,50.45 1017.69,50.45 C 1018.67,50.45 1019.64,47.01 1020.62,50.45 C 1021.59,53.89 1022.56,60.77 1023.54,71.10 C 1024.51,81.42 1025.49,105.03 1026.46,112.40 C 1027.44,119.78 1028.41,114.86 1029.38,115.35 C 1030.36,115.84 1031.33,115.84 1032.31,115.35 C 1033.28,114.86 1034.26,117.32 1035.23,112.40 C 1036.21,107.48 1037.18,93.72 1038.15,85.85 C 1039.13,77.98 1040.10,71.59 1041.08,65.20 C 1042.05,58.81 1043.03,50.45 1044.00,47.50 C 1044.97,44.55 1045.95,48.48 1046.92,47.50 C 1047.90,46.52 1048.87,41.60 1049.85,41.60 C 1050.82,41.60 1051.79,42.58 1052.77,47.50 C 1053.74,52.42 1054.72,66.18 1055.69,71.10 C 1056.67,76.02 1057.64,78.47 1058.62,77.00 C 1059.59,75.53 1060.56,63.23 1061.54,62.25 C 1062.51,61.27 1063.49,66.18 1064.46,71.10 C 1065.44,76.02 1066.41,87.82 1067.38,91.75 C 1068.36,95.68 1069.33,93.72 1070.31,94.70 C 1071.28,95.68 1072.26,95.19 1073.23,97.65 C 1074.21,100.11 1075.18,107.98 1076.15,109.45 C 1077.13,110.92 1078.10,107.81 1079.08,106.50 C 1080.05,105.19 1081.51,102.40 1082.00,101.58" fill="none" stroke="url(#lineGrad)" stroke-width="2" stroke-linecap="round" stroke-linejoin="round"
        stroke-dasharray="2550" stroke-dashoffset="2550">
    <animate attributeName="stroke-dashoffset" from="2550" to="0" dur="2.5s" fill="freeze" begin="0s"/>
  </path>

  <circle cx="962.15" cy="18.00" r="0" fill="#8658E3" stroke="#DADADA" stroke-width="1.2">
    <animate attributeName="r" values="0;4;3" keyTimes="0;0.6;1" dur="0.6s" begin="2.4s" fill="freeze"/>
  </circle>

  <line x1="18.0" y1="18" x2="18.0" y2="136" stroke="#8658E3" stroke-width="1.2" stroke-dasharray="3 3" opacity="0.6"><animate attributeName="x1" from="18.0" to="1082.0" dur="3s" begin="2.6s" fill="freeze"/><animate attributeName="x2" from="18.0" to="1082.0" dur="3s" begin="2.6s" fill="freeze"/><animate attributeName="opacity" from="0.6" to="0" dur="0.6s" begin="5.5s" fill="freeze"/></line>

  <!-- per-day hover tooltips (browser-native <title>) -->
  <rect x="16.5" y="18" width="2.9" height="118" fill="transparent" cursor="crosshair"><title>2025-09-25 · 0 contributions</title></rect>
  <rect x="19.5" y="18" width="2.9" height="118" fill="transparent" cursor="crosshair"><title>2025-09-26 · 2 contributions</title></rect>
  <rect x="22.4" y="18" width="2.9" height="118" fill="transparent" cursor="crosshair"><title>2025-09-27 · 0 contributions</title></rect>
  <rect x="25.3" y="18" width="2.9" height="118" fill="transparent" cursor="crosshair"><title>2025-09-28 · 0 contributions</title></rect>
  <rect x="28.2" y="18" width="2.9" height="118" fill="transparent" cursor="crosshair"><title>2025-09-29 · 0 contributions</title></rect>
  <rect x="31.2" y="18" width="2.9" height="118" fill="transparent" cursor="crosshair"><title>2025-09-30 · 0 contributions</title></rect>
  <rect x="34.1" y="18" width="2.9" height="118" fill="transparent" cursor="crosshair"><title>2025-10-01 · 0 contributions</title></rect>
  <rect x="37.0" y="18" width="2.9" height="118" fill="transparent" cursor="crosshair"><title>2025-10-02 · 0 contributions</title></rect>
  <rect x="39.9" y="18" width="2.9" height="118" fill="transparent" cursor="crosshair"><title>2025-10-03 · 0 contributions</title></rect>
  <rect x="42.8" y="18" width="2.9" height="118" fill="transparent" cursor="crosshair"><title>2025-10-04 · 2 contributions</title></rect>
  <rect x="45.8" y="18" width="2.9" height="118" fill="transparent" cursor="crosshair"><title>2025-10-05 · 9 contributions</title></rect>
  <rect x="48.7" y="18" width="2.9" height="118" fill="transparent" cursor="crosshair"><title>2025-10-06 · 0 contributions</title></rect>
  <rect x="51.6" y="18" width="2.9" height="118" fill="transparent" cursor="crosshair"><title>2025-10-07 · 0 contributions</title></rect>
  <rect x="54.5" y="18" width="2.9" height="118" fill="transparent" cursor="crosshair"><title>2025-10-08 · 0 contributions</title></rect>
  <rect x="57.5" y="18" width="2.9" height="118" fill="transparent" cursor="crosshair"><title>2025-10-09 · 0 contributions</title></rect>
  <rect x="60.4" y="18" width="2.9" height="118" fill="transparent" cursor="crosshair"><title>2025-10-10 · 0 contributions</title></rect>
  <rect x="63.3" y="18" width="2.9" height="118" fill="transparent" cursor="crosshair"><title>2025-10-11 · 0 contributions</title></rect>
  <rect x="66.2" y="18" width="2.9" height="118" fill="transparent" cursor="crosshair"><title>2025-10-12 · 0 contributions</title></rect>
  <rect x="69.2" y="18" width="2.9" height="118" fill="transparent" cursor="crosshair"><title>2025-10-13 · 0 contributions</title></rect>
  <rect x="72.1" y="18" width="2.9" height="118" fill="transparent" cursor="crosshair"><title>2025-10-14 · 0 contributions</title></rect>
  <rect x="75.0" y="18" width="2.9" height="118" fill="transparent" cursor="crosshair"><title>2025-10-15 · 0 contributions</title></rect>
  <rect x="77.9" y="18" width="2.9" height="118" fill="transparent" cursor="crosshair"><title>2025-10-16 · 0 contributions</title></rect>
  <rect x="80.8" y="18" width="2.9" height="118" fill="transparent" cursor="crosshair"><title>2025-10-17 · 0 contributions</title></rect>
  <rect x="83.8" y="18" width="2.9" height="118" fill="transparent" cursor="crosshair"><title>2025-10-18 · 0 contributions</title></rect>
  <rect x="86.7" y="18" width="2.9" height="118" fill="transparent" cursor="crosshair"><title>2025-10-19 · 0 contributions</title></rect>
  <rect x="89.6" y="18" width="2.9" height="118" fill="transparent" cursor="crosshair"><title>2025-10-20 · 0 contributions</title></rect>
  <rect x="92.5" y="18" width="2.9" height="118" fill="transparent" cursor="crosshair"><title>2025-10-21 · 0 contributions</title></rect>
  <rect x="95.5" y="18" width="2.9" height="118" fill="transparent" cursor="crosshair"><title>2025-10-22 · 0 contributions</title></rect>
  <rect x="98.4" y="18" width="2.9" height="118" fill="transparent" cursor="crosshair"><title>2025-10-23 · 0 contributions</title></rect>
  <rect x="101.3" y="18" width="2.9" height="118" fill="transparent" cursor="crosshair"><title>2025-10-24 · 2 contributions</title></rect>
  <rect x="104.2" y="18" width="2.9" height="118" fill="transparent" cursor="crosshair"><title>2025-10-25 · 0 contributions</title></rect>
  <rect x="107.2" y="18" width="2.9" height="118" fill="transparent" cursor="crosshair"><title>2025-10-26 · 0 contributions</title></rect>
  <rect x="110.1" y="18" width="2.9" height="118" fill="transparent" cursor="crosshair"><title>2025-10-27 · 0 contributions</title></rect>
  <rect x="113.0" y="18" width="2.9" height="118" fill="transparent" cursor="crosshair"><title>2025-10-28 · 0 contributions</title></rect>
  <rect x="115.9" y="18" width="2.9" height="118" fill="transparent" cursor="crosshair"><title>2025-10-29 · 0 contributions</title></rect>
  <rect x="118.8" y="18" width="2.9" height="118" fill="transparent" cursor="crosshair"><title>2025-10-30 · 0 contributions</title></rect>
  <rect x="121.8" y="18" width="2.9" height="118" fill="transparent" cursor="crosshair"><title>2025-10-31 · 0 contributions</title></rect>
  <rect x="124.7" y="18" width="2.9" height="118" fill="transparent" cursor="crosshair"><title>2025-11-01 · 0 contributions</title></rect>
  <rect x="127.6" y="18" width="2.9" height="118" fill="transparent" cursor="crosshair"><title>2025-11-02 · 0 contributions</title></rect>
  <rect x="130.5" y="18" width="2.9" height="118" fill="transparent" cursor="crosshair"><title>2025-11-03 · 0 contributions</title></rect>
  <rect x="133.5" y="18" width="2.9" height="118" fill="transparent" cursor="crosshair"><title>2025-11-04 · 0 contributions</title></rect>
  <rect x="136.4" y="18" width="2.9" height="118" fill="transparent" cursor="crosshair"><title>2025-11-05 · 0 contributions</title></rect>
  <rect x="139.3" y="18" width="2.9" height="118" fill="transparent" cursor="crosshair"><title>2025-11-06 · 0 contributions</title></rect>
  <rect x="142.2" y="18" width="2.9" height="118" fill="transparent" cursor="crosshair"><title>2025-11-07 · 0 contributions</title></rect>
  <rect x="145.2" y="18" width="2.9" height="118" fill="transparent" cursor="crosshair"><title>2025-11-08 · 0 contributions</title></rect>
  <rect x="148.1" y="18" width="2.9" height="118" fill="transparent" cursor="crosshair"><title>2025-11-09 · 0 contributions</title></rect>
  <rect x="151.0" y="18" width="2.9" height="118" fill="transparent" cursor="crosshair"><title>2025-11-10 · 0 contributions</title></rect>
  <rect x="153.9" y="18" width="2.9" height="118" fill="transparent" cursor="crosshair"><title>2025-11-11 · 0 contributions</title></rect>
  <rect x="156.8" y="18" width="2.9" height="118" fill="transparent" cursor="crosshair"><title>2025-11-12 · 0 contributions</title></rect>
  <rect x="159.8" y="18" width="2.9" height="118" fill="transparent" cursor="crosshair"><title>2025-11-13 · 0 contributions</title></rect>
  <rect x="162.7" y="18" width="2.9" height="118" fill="transparent" cursor="crosshair"><title>2025-11-14 · 0 contributions</title></rect>
  <rect x="165.6" y="18" width="2.9" height="118" fill="transparent" cursor="crosshair"><title>2025-11-15 · 0 contributions</title></rect>
  <rect x="168.5" y="18" width="2.9" height="118" fill="transparent" cursor="crosshair"><title>2025-11-16 · 0 contributions</title></rect>
  <rect x="171.5" y="18" width="2.9" height="118" fill="transparent" cursor="crosshair"><title>2025-11-17 · 0 contributions</title></rect>
  <rect x="174.4" y="18" width="2.9" height="118" fill="transparent" cursor="crosshair"><title>2025-11-18 · 0 contributions</title></rect>
  <rect x="177.3" y="18" width="2.9" height="118" fill="transparent" cursor="crosshair"><title>2025-11-19 · 0 contributions</title></rect>
  <rect x="180.2" y="18" width="2.9" height="118" fill="transparent" cursor="crosshair"><title>2025-11-20 · 0 contributions</title></rect>
  <rect x="183.2" y="18" width="2.9" height="118" fill="transparent" cursor="crosshair"><title>2025-11-21 · 0 contributions</title></rect>
  <rect x="186.1" y="18" width="2.9" height="118" fill="transparent" cursor="crosshair"><title>2025-11-22 · 0 contributions</title></rect>
  <rect x="189.0" y="18" width="2.9" height="118" fill="transparent" cursor="crosshair"><title>2025-11-23 · 0 contributions</title></rect>
  <rect x="191.9" y="18" width="2.9" height="118" fill="transparent" cursor="crosshair"><title>2025-11-24 · 0 contributions</title></rect>
  <rect x="194.8" y="18" width="2.9" height="118" fill="transparent" cursor="crosshair"><title>2025-11-25 · 0 contributions</title></rect>
  <rect x="197.8" y="18" width="2.9" height="118" fill="transparent" cursor="crosshair"><title>2025-11-26 · 0 contributions</title></rect>
  <rect x="200.7" y="18" width="2.9" height="118" fill="transparent" cursor="crosshair"><title>2025-11-27 · 0 contributions</title></rect>
  <rect x="203.6" y="18" width="2.9" height="118" fill="transparent" cursor="crosshair"><title>2025-11-28 · 0 contributions</title></rect>
  <rect x="206.5" y="18" width="2.9" height="118" fill="transparent" cursor="crosshair"><title>2025-11-29 · 0 contributions</title></rect>
  <rect x="209.5" y="18" width="2.9" height="118" fill="transparent" cursor="crosshair"><title>2025-11-30 · 0 contributions</title></rect>
  <rect x="212.4" y="18" width="2.9" height="118" fill="transparent" cursor="crosshair"><title>2025-12-01 · 0 contributions</title></rect>
  <rect x="215.3" y="18" width="2.9" height="118" fill="transparent" cursor="crosshair"><title>2025-12-02 · 0 contributions</title></rect>
  <rect x="218.2" y="18" width="2.9" height="118" fill="transparent" cursor="crosshair"><title>2025-12-03 · 0 contributions</title></rect>
  <rect x="221.2" y="18" width="2.9" height="118" fill="transparent" cursor="crosshair"><title>2025-12-04 · 0 contributions</title></rect>
  <rect x="224.1" y="18" width="2.9" height="118" fill="transparent" cursor="crosshair"><title>2025-12-05 · 0 contributions</title></rect>
  <rect x="227.0" y="18" width="2.9" height="118" fill="transparent" cursor="crosshair"><title>2025-12-06 · 0 contributions</title></rect>
  <rect x="229.9" y="18" width="2.9" height="118" fill="transparent" cursor="crosshair"><title>2025-12-07 · 0 contributions</title></rect>
  <rect x="232.8" y="18" width="2.9" height="118" fill="transparent" cursor="crosshair"><title>2025-12-08 · 0 contributions</title></rect>
  <rect x="235.8" y="18" width="2.9" height="118" fill="transparent" cursor="crosshair"><title>2025-12-09 · 1 contribution</title></rect>
  <rect x="238.7" y="18" width="2.9" height="118" fill="transparent" cursor="crosshair"><title>2025-12-10 · 0 contributions</title></rect>
  <rect x="241.6" y="18" width="2.9" height="118" fill="transparent" cursor="crosshair"><title>2025-12-11 · 0 contributions</title></rect>
  <rect x="244.5" y="18" width="2.9" height="118" fill="transparent" cursor="crosshair"><title>2025-12-12 · 0 contributions</title></rect>
  <rect x="247.5" y="18" width="2.9" height="118" fill="transparent" cursor="crosshair"><title>2025-12-13 · 0 contributions</title></rect>
  <rect x="250.4" y="18" width="2.9" height="118" fill="transparent" cursor="crosshair"><title>2025-12-14 · 0 contributions</title></rect>
  <rect x="253.3" y="18" width="2.9" height="118" fill="transparent" cursor="crosshair"><title>2025-12-15 · 0 contributions</title></rect>
  <rect x="256.2" y="18" width="2.9" height="118" fill="transparent" cursor="crosshair"><title>2025-12-16 · 0 contributions</title></rect>
  <rect x="259.2" y="18" width="2.9" height="118" fill="transparent" cursor="crosshair"><title>2025-12-17 · 0 contributions</title></rect>
  <rect x="262.1" y="18" width="2.9" height="118" fill="transparent" cursor="crosshair"><title>2025-12-18 · 0 contributions</title></rect>
  <rect x="265.0" y="18" width="2.9" height="118" fill="transparent" cursor="crosshair"><title>2025-12-19 · 0 contributions</title></rect>
  <rect x="267.9" y="18" width="2.9" height="118" fill="transparent" cursor="crosshair"><title>2025-12-20 · 0 contributions</title></rect>
  <rect x="270.8" y="18" width="2.9" height="118" fill="transparent" cursor="crosshair"><title>2025-12-21 · 0 contributions</title></rect>
  <rect x="273.8" y="18" width="2.9" height="118" fill="transparent" cursor="crosshair"><title>2025-12-22 · 0 contributions</title></rect>
  <rect x="276.7" y="18" width="2.9" height="118" fill="transparent" cursor="crosshair"><title>2025-12-23 · 0 contributions</title></rect>
  <rect x="279.6" y="18" width="2.9" height="118" fill="transparent" cursor="crosshair"><title>2025-12-24 · 0 contributions</title></rect>
  <rect x="282.5" y="18" width="2.9" height="118" fill="transparent" cursor="crosshair"><title>2025-12-25 · 0 contributions</title></rect>
  <rect x="285.5" y="18" width="2.9" height="118" fill="transparent" cursor="crosshair"><title>2025-12-26 · 0 contributions</title></rect>
  <rect x="288.4" y="18" width="2.9" height="118" fill="transparent" cursor="crosshair"><title>2025-12-27 · 0 contributions</title></rect>
  <rect x="291.3" y="18" width="2.9" height="118" fill="transparent" cursor="crosshair"><title>2025-12-28 · 0 contributions</title></rect>
  <rect x="294.2" y="18" width="2.9" height="118" fill="transparent" cursor="crosshair"><title>2025-12-29 · 0 contributions</title></rect>
  <rect x="297.2" y="18" width="2.9" height="118" fill="transparent" cursor="crosshair"><title>2025-12-30 · 0 contributions</title></rect>
  <rect x="300.1" y="18" width="2.9" height="118" fill="transparent" cursor="crosshair"><title>2025-12-31 · 0 contributions</title></rect>
  <rect x="303.0" y="18" width="2.9" height="118" fill="transparent" cursor="crosshair"><title>2026-01-01 · 0 contributions</title></rect>
  <rect x="305.9" y="18" width="2.9" height="118" fill="transparent" cursor="crosshair"><title>2026-01-02 · 0 contributions</title></rect>
  <rect x="308.8" y="18" width="2.9" height="118" fill="transparent" cursor="crosshair"><title>2026-01-03 · 0 contributions</title></rect>
  <rect x="311.8" y="18" width="2.9" height="118" fill="transparent" cursor="crosshair"><title>2026-01-04 · 0 contributions</title></rect>
  <rect x="314.7" y="18" width="2.9" height="118" fill="transparent" cursor="crosshair"><title>2026-01-05 · 0 contributions</title></rect>
  <rect x="317.6" y="18" width="2.9" height="118" fill="transparent" cursor="crosshair"><title>2026-01-06 · 0 contributions</title></rect>
  <rect x="320.5" y="18" width="2.9" height="118" fill="transparent" cursor="crosshair"><title>2026-01-07 · 0 contributions</title></rect>
  <rect x="323.5" y="18" width="2.9" height="118" fill="transparent" cursor="crosshair"><title>2026-01-08 · 0 contributions</title></rect>
  <rect x="326.4" y="18" width="2.9" height="118" fill="transparent" cursor="crosshair"><title>2026-01-09 · 0 contributions</title></rect>
  <rect x="329.3" y="18" width="2.9" height="118" fill="transparent" cursor="crosshair"><title>2026-01-10 · 0 contributions</title></rect>
  <rect x="332.2" y="18" width="2.9" height="118" fill="transparent" cursor="crosshair"><title>2026-01-11 · 0 contributions</title></rect>
  <rect x="335.2" y="18" width="2.9" height="118" fill="transparent" cursor="crosshair"><title>2026-01-12 · 0 contributions</title></rect>
  <rect x="338.1" y="18" width="2.9" height="118" fill="transparent" cursor="crosshair"><title>2026-01-13 · 0 contributions</title></rect>
  <rect x="341.0" y="18" width="2.9" height="118" fill="transparent" cursor="crosshair"><title>2026-01-14 · 0 contributions</title></rect>
  <rect x="343.9" y="18" width="2.9" height="118" fill="transparent" cursor="crosshair"><title>2026-01-15 · 0 contributions</title></rect>
  <rect x="346.8" y="18" width="2.9" height="118" fill="transparent" cursor="crosshair"><title>2026-01-16 · 0 contributions</title></rect>
  <rect x="349.8" y="18" width="2.9" height="118" fill="transparent" cursor="crosshair"><title>2026-01-17 · 0 contributions</title></rect>
  <rect x="352.7" y="18" width="2.9" height="118" fill="transparent" cursor="crosshair"><title>2026-01-18 · 0 contributions</title></rect>
  <rect x="355.6" y="18" width="2.9" height="118" fill="transparent" cursor="crosshair"><title>2026-01-19 · 0 contributions</title></rect>
  <rect x="358.5" y="18" width="2.9" height="118" fill="transparent" cursor="crosshair"><title>2026-01-20 · 0 contributions</title></rect>
  <rect x="361.5" y="18" width="2.9" height="118" fill="transparent" cursor="crosshair"><title>2026-01-21 · 0 contributions</title></rect>
  <rect x="364.4" y="18" width="2.9" height="118" fill="transparent" cursor="crosshair"><title>2026-01-22 · 0 contributions</title></rect>
  <rect x="367.3" y="18" width="2.9" height="118" fill="transparent" cursor="crosshair"><title>2026-01-23 · 0 contributions</title></rect>
  <rect x="370.2" y="18" width="2.9" height="118" fill="transparent" cursor="crosshair"><title>2026-01-24 · 0 contributions</title></rect>
  <rect x="373.2" y="18" width="2.9" height="118" fill="transparent" cursor="crosshair"><title>2026-01-25 · 0 contributions</title></rect>
  <rect x="376.1" y="18" width="2.9" height="118" fill="transparent" cursor="crosshair"><title>2026-01-26 · 0 contributions</title></rect>
  <rect x="379.0" y="18" width="2.9" height="118" fill="transparent" cursor="crosshair"><title>2026-01-27 · 0 contributions</title></rect>
  <rect x="381.9" y="18" width="2.9" height="118" fill="transparent" cursor="crosshair"><title>2026-01-28 · 0 contributions</title></rect>
  <rect x="384.8" y="18" width="2.9" height="118" fill="transparent" cursor="crosshair"><title>2026-01-29 · 0 contributions</title></rect>
  <rect x="387.8" y="18" width="2.9" height="118" fill="transparent" cursor="crosshair"><title>2026-01-30 · 0 contributions</title></rect>
  <rect x="390.7" y="18" width="2.9" height="118" fill="transparent" cursor="crosshair"><title>2026-01-31 · 0 contributions</title></rect>
  <rect x="393.6" y="18" width="2.9" height="118" fill="transparent" cursor="crosshair"><title>2026-02-01 · 0 contributions</title></rect>
  <rect x="396.5" y="18" width="2.9" height="118" fill="transparent" cursor="crosshair"><title>2026-02-02 · 0 contributions</title></rect>
  <rect x="399.5" y="18" width="2.9" height="118" fill="transparent" cursor="crosshair"><title>2026-02-03 · 0 contributions</title></rect>
  <rect x="402.4" y="18" width="2.9" height="118" fill="transparent" cursor="crosshair"><title>2026-02-04 · 0 contributions</title></rect>
  <rect x="405.3" y="18" width="2.9" height="118" fill="transparent" cursor="crosshair"><title>2026-02-05 · 0 contributions</title></rect>
  <rect x="408.2" y="18" width="2.9" height="118" fill="transparent" cursor="crosshair"><title>2026-02-06 · 0 contributions</title></rect>
  <rect x="411.2" y="18" width="2.9" height="118" fill="transparent" cursor="crosshair"><title>2026-02-07 · 0 contributions</title></rect>
  <rect x="414.1" y="18" width="2.9" height="118" fill="transparent" cursor="crosshair"><title>2026-02-08 · 0 contributions</title></rect>
  <rect x="417.0" y="18" width="2.9" height="118" fill="transparent" cursor="crosshair"><title>2026-02-09 · 1 contribution</title></rect>
  <rect x="419.9" y="18" width="2.9" height="118" fill="transparent" cursor="crosshair"><title>2026-02-10 · 4 contributions</title></rect>
  <rect x="422.8" y="18" width="2.9" height="118" fill="transparent" cursor="crosshair"><title>2026-02-11 · 2 contributions</title></rect>
  <rect x="425.8" y="18" width="2.9" height="118" fill="transparent" cursor="crosshair"><title>2026-02-12 · 3 contributions</title></rect>
  <rect x="428.7" y="18" width="2.9" height="118" fill="transparent" cursor="crosshair"><title>2026-02-13 · 4 contributions</title></rect>
  <rect x="431.6" y="18" width="2.9" height="118" fill="transparent" cursor="crosshair"><title>2026-02-14 · 1 contribution</title></rect>
  <rect x="434.5" y="18" width="2.9" height="118" fill="transparent" cursor="crosshair"><title>2026-02-15 · 0 contributions</title></rect>
  <rect x="437.5" y="18" width="2.9" height="118" fill="transparent" cursor="crosshair"><title>2026-02-16 · 0 contributions</title></rect>
  <rect x="440.4" y="18" width="2.9" height="118" fill="transparent" cursor="crosshair"><title>2026-02-17 · 0 contributions</title></rect>
  <rect x="443.3" y="18" width="2.9" height="118" fill="transparent" cursor="crosshair"><title>2026-02-18 · 1 contribution</title></rect>
  <rect x="446.2" y="18" width="2.9" height="118" fill="transparent" cursor="crosshair"><title>2026-02-19 · 2 contributions</title></rect>
  <rect x="449.2" y="18" width="2.9" height="118" fill="transparent" cursor="crosshair"><title>2026-02-20 · 7 contributions</title></rect>
  <rect x="452.1" y="18" width="2.9" height="118" fill="transparent" cursor="crosshair"><title>2026-02-21 · 0 contributions</title></rect>
  <rect x="455.0" y="18" width="2.9" height="118" fill="transparent" cursor="crosshair"><title>2026-02-22 · 0 contributions</title></rect>
  <rect x="457.9" y="18" width="2.9" height="118" fill="transparent" cursor="crosshair"><title>2026-02-23 · 0 contributions</title></rect>
  <rect x="460.8" y="18" width="2.9" height="118" fill="transparent" cursor="crosshair"><title>2026-02-24 · 0 contributions</title></rect>
  <rect x="463.8" y="18" width="2.9" height="118" fill="transparent" cursor="crosshair"><title>2026-02-25 · 0 contributions</title></rect>
  <rect x="466.7" y="18" width="2.9" height="118" fill="transparent" cursor="crosshair"><title>2026-02-26 · 0 contributions</title></rect>
  <rect x="469.6" y="18" width="2.9" height="118" fill="transparent" cursor="crosshair"><title>2026-02-27 · 5 contributions</title></rect>
  <rect x="472.5" y="18" width="2.9" height="118" fill="transparent" cursor="crosshair"><title>2026-02-28 · 4 contributions</title></rect>
  <rect x="475.5" y="18" width="2.9" height="118" fill="transparent" cursor="crosshair"><title>2026-03-01 · 4 contributions</title></rect>
  <rect x="478.4" y="18" width="2.9" height="118" fill="transparent" cursor="crosshair"><title>2026-03-02 · 1 contribution</title></rect>
  <rect x="481.3" y="18" width="2.9" height="118" fill="transparent" cursor="crosshair"><title>2026-03-03 · 1 contribution</title></rect>
  <rect x="484.2" y="18" width="2.9" height="118" fill="transparent" cursor="crosshair"><title>2026-03-04 · 0 contributions</title></rect>
  <rect x="487.2" y="18" width="2.9" height="118" fill="transparent" cursor="crosshair"><title>2026-03-05 · 0 contributions</title></rect>
  <rect x="490.1" y="18" width="2.9" height="118" fill="transparent" cursor="crosshair"><title>2026-03-06 · 0 contributions</title></rect>
  <rect x="493.0" y="18" width="2.9" height="118" fill="transparent" cursor="crosshair"><title>2026-03-07 · 1 contribution</title></rect>
  <rect x="495.9" y="18" width="2.9" height="118" fill="transparent" cursor="crosshair"><title>2026-03-08 · 3 contributions</title></rect>
  <rect x="498.8" y="18" width="2.9" height="118" fill="transparent" cursor="crosshair"><title>2026-03-09 · 0 contributions</title></rect>
  <rect x="501.8" y="18" width="2.9" height="118" fill="transparent" cursor="crosshair"><title>2026-03-10 · 0 contributions</title></rect>
  <rect x="504.7" y="18" width="2.9" height="118" fill="transparent" cursor="crosshair"><title>2026-03-11 · 0 contributions</title></rect>
  <rect x="507.6" y="18" width="2.9" height="118" fill="transparent" cursor="crosshair"><title>2026-03-12 · 0 contributions</title></rect>
  <rect x="510.5" y="18" width="2.9" height="118" fill="transparent" cursor="crosshair"><title>2026-03-13 · 3 contributions</title></rect>
  <rect x="513.5" y="18" width="2.9" height="118" fill="transparent" cursor="crosshair"><title>2026-03-14 · 1 contribution</title></rect>
  <rect x="516.4" y="18" width="2.9" height="118" fill="transparent" cursor="crosshair"><title>2026-03-15 · 0 contributions</title></rect>
  <rect x="519.3" y="18" width="2.9" height="118" fill="transparent" cursor="crosshair"><title>2026-03-16 · 0 contributions</title></rect>
  <rect x="522.2" y="18" width="2.9" height="118" fill="transparent" cursor="crosshair"><title>2026-03-17 · 0 contributions</title></rect>
  <rect x="525.2" y="18" width="2.9" height="118" fill="transparent" cursor="crosshair"><title>2026-03-18 · 0 contributions</title></rect>
  <rect x="528.1" y="18" width="2.9" height="118" fill="transparent" cursor="crosshair"><title>2026-03-19 · 0 contributions</title></rect>
  <rect x="531.0" y="18" width="2.9" height="118" fill="transparent" cursor="crosshair"><title>2026-03-20 · 0 contributions</title></rect>
  <rect x="533.9" y="18" width="2.9" height="118" fill="transparent" cursor="crosshair"><title>2026-03-21 · 0 contributions</title></rect>
  <rect x="536.8" y="18" width="2.9" height="118" fill="transparent" cursor="crosshair"><title>2026-03-22 · 1 contribution</title></rect>
  <rect x="539.8" y="18" width="2.9" height="118" fill="transparent" cursor="crosshair"><title>2026-03-23 · 0 contributions</title></rect>
  <rect x="542.7" y="18" width="2.9" height="118" fill="transparent" cursor="crosshair"><title>2026-03-24 · 0 contributions</title></rect>
  <rect x="545.6" y="18" width="2.9" height="118" fill="transparent" cursor="crosshair"><title>2026-03-25 · 1 contribution</title></rect>
  <rect x="548.5" y="18" width="2.9" height="118" fill="transparent" cursor="crosshair"><title>2026-03-26 · 0 contributions</title></rect>
  <rect x="551.5" y="18" width="2.9" height="118" fill="transparent" cursor="crosshair"><title>2026-03-27 · 2 contributions</title></rect>
  <rect x="554.4" y="18" width="2.9" height="118" fill="transparent" cursor="crosshair"><title>2026-03-28 · 0 contributions</title></rect>
  <rect x="557.3" y="18" width="2.9" height="118" fill="transparent" cursor="crosshair"><title>2026-03-29 · 0 contributions</title></rect>
  <rect x="560.2" y="18" width="2.9" height="118" fill="transparent" cursor="crosshair"><title>2026-03-30 · 0 contributions</title></rect>
  <rect x="563.2" y="18" width="2.9" height="118" fill="transparent" cursor="crosshair"><title>2026-03-31 · 0 contributions</title></rect>
  <rect x="566.1" y="18" width="2.9" height="118" fill="transparent" cursor="crosshair"><title>2026-04-01 · 0 contributions</title></rect>
  <rect x="569.0" y="18" width="2.9" height="118" fill="transparent" cursor="crosshair"><title>2026-04-02 · 1 contribution</title></rect>
  <rect x="571.9" y="18" width="2.9" height="118" fill="transparent" cursor="crosshair"><title>2026-04-03 · 1 contribution</title></rect>
  <rect x="574.8" y="18" width="2.9" height="118" fill="transparent" cursor="crosshair"><title>2026-04-04 · 1 contribution</title></rect>
  <rect x="577.8" y="18" width="2.9" height="118" fill="transparent" cursor="crosshair"><title>2026-04-05 · 0 contributions</title></rect>
  <rect x="580.7" y="18" width="2.9" height="118" fill="transparent" cursor="crosshair"><title>2026-04-06 · 0 contributions</title></rect>
  <rect x="583.6" y="18" width="2.9" height="118" fill="transparent" cursor="crosshair"><title>2026-04-07 · 1 contribution</title></rect>
  <rect x="586.5" y="18" width="2.9" height="118" fill="transparent" cursor="crosshair"><title>2026-04-08 · 0 contributions</title></rect>
  <rect x="589.5" y="18" width="2.9" height="118" fill="transparent" cursor="crosshair"><title>2026-04-09 · 0 contributions</title></rect>
  <rect x="592.4" y="18" width="2.9" height="118" fill="transparent" cursor="crosshair"><title>2026-04-10 · 1 contribution</title></rect>
  <rect x="595.3" y="18" width="2.9" height="118" fill="transparent" cursor="crosshair"><title>2026-04-11 · 0 contributions</title></rect>
  <rect x="598.2" y="18" width="2.9" height="118" fill="transparent" cursor="crosshair"><title>2026-04-12 · 0 contributions</title></rect>
  <rect x="601.2" y="18" width="2.9" height="118" fill="transparent" cursor="crosshair"><title>2026-04-13 · 0 contributions</title></rect>
  <rect x="604.1" y="18" width="2.9" height="118" fill="transparent" cursor="crosshair"><title>2026-04-14 · 2 contributions</title></rect>
  <rect x="607.0" y="18" width="2.9" height="118" fill="transparent" cursor="crosshair"><title>2026-04-15 · 1 contribution</title></rect>
  <rect x="609.9" y="18" width="2.9" height="118" fill="transparent" cursor="crosshair"><title>2026-04-16 · 4 contributions</title></rect>
  <rect x="612.8" y="18" width="2.9" height="118" fill="transparent" cursor="crosshair"><title>2026-04-17 · 0 contributions</title></rect>
  <rect x="615.8" y="18" width="2.9" height="118" fill="transparent" cursor="crosshair"><title>2026-04-18 · 0 contributions</title></rect>
  <rect x="618.7" y="18" width="2.9" height="118" fill="transparent" cursor="crosshair"><title>2026-04-19 · 0 contributions</title></rect>
  <rect x="621.6" y="18" width="2.9" height="118" fill="transparent" cursor="crosshair"><title>2026-04-20 · 0 contributions</title></rect>
  <rect x="624.5" y="18" width="2.9" height="118" fill="transparent" cursor="crosshair"><title>2026-04-21 · 0 contributions</title></rect>
  <rect x="627.5" y="18" width="2.9" height="118" fill="transparent" cursor="crosshair"><title>2026-04-22 · 0 contributions</title></rect>
  <rect x="630.4" y="18" width="2.9" height="118" fill="transparent" cursor="crosshair"><title>2026-04-23 · 0 contributions</title></rect>
  <rect x="633.3" y="18" width="2.9" height="118" fill="transparent" cursor="crosshair"><title>2026-04-24 · 0 contributions</title></rect>
  <rect x="636.2" y="18" width="2.9" height="118" fill="transparent" cursor="crosshair"><title>2026-04-25 · 2 contributions</title></rect>
  <rect x="639.2" y="18" width="2.9" height="118" fill="transparent" cursor="crosshair"><title>2026-04-26 · 2 contributions</title></rect>
  <rect x="642.1" y="18" width="2.9" height="118" fill="transparent" cursor="crosshair"><title>2026-04-27 · 0 contributions</title></rect>
  <rect x="645.0" y="18" width="2.9" height="118" fill="transparent" cursor="crosshair"><title>2026-04-28 · 2 contributions</title></rect>
  <rect x="647.9" y="18" width="2.9" height="118" fill="transparent" cursor="crosshair"><title>2026-04-29 · 0 contributions</title></rect>
  <rect x="650.8" y="18" width="2.9" height="118" fill="transparent" cursor="crosshair"><title>2026-04-30 · 0 contributions</title></rect>
  <rect x="653.8" y="18" width="2.9" height="118" fill="transparent" cursor="crosshair"><title>2026-05-01 · 6 contributions</title></rect>
  <rect x="656.7" y="18" width="2.9" height="118" fill="transparent" cursor="crosshair"><title>2026-05-02 · 1 contribution</title></rect>
  <rect x="659.6" y="18" width="2.9" height="118" fill="transparent" cursor="crosshair"><title>2026-05-03 · 0 contributions</title></rect>
  <rect x="662.5" y="18" width="2.9" height="118" fill="transparent" cursor="crosshair"><title>2026-05-04 · 4 contributions</title></rect>
  <rect x="665.5" y="18" width="2.9" height="118" fill="transparent" cursor="crosshair"><title>2026-05-05 · 1 contribution</title></rect>
  <rect x="668.4" y="18" width="2.9" height="118" fill="transparent" cursor="crosshair"><title>2026-05-06 · 0 contributions</title></rect>
  <rect x="671.3" y="18" width="2.9" height="118" fill="transparent" cursor="crosshair"><title>2026-05-07 · 0 contributions</title></rect>
  <rect x="674.2" y="18" width="2.9" height="118" fill="transparent" cursor="crosshair"><title>2026-05-08 · 0 contributions</title></rect>
  <rect x="677.2" y="18" width="2.9" height="118" fill="transparent" cursor="crosshair"><title>2026-05-09 · 0 contributions</title></rect>
  <rect x="680.1" y="18" width="2.9" height="118" fill="transparent" cursor="crosshair"><title>2026-05-10 · 0 contributions</title></rect>
  <rect x="683.0" y="18" width="2.9" height="118" fill="transparent" cursor="crosshair"><title>2026-05-11 · 0 contributions</title></rect>
  <rect x="685.9" y="18" width="2.9" height="118" fill="transparent" cursor="crosshair"><title>2026-05-12 · 1 contribution</title></rect>
  <rect x="688.8" y="18" width="2.9" height="118" fill="transparent" cursor="crosshair"><title>2026-05-13 · 1 contribution</title></rect>
  <rect x="691.8" y="18" width="2.9" height="118" fill="transparent" cursor="crosshair"><title>2026-05-14 · 0 contributions</title></rect>
  <rect x="694.7" y="18" width="2.9" height="118" fill="transparent" cursor="crosshair"><title>2026-05-15 · 0 contributions</title></rect>
  <rect x="697.6" y="18" width="2.9" height="118" fill="transparent" cursor="crosshair"><title>2026-05-16 · 0 contributions</title></rect>
  <rect x="700.5" y="18" width="2.9" height="118" fill="transparent" cursor="crosshair"><title>2026-05-17 · 0 contributions</title></rect>
  <rect x="703.5" y="18" width="2.9" height="118" fill="transparent" cursor="crosshair"><title>2026-05-18 · 10 contributions</title></rect>
  <rect x="706.4" y="18" width="2.9" height="118" fill="transparent" cursor="crosshair"><title>2026-05-19 · 13 contributions</title></rect>
  <rect x="709.3" y="18" width="2.9" height="118" fill="transparent" cursor="crosshair"><title>2026-05-20 · 9 contributions</title></rect>
  <rect x="712.2" y="18" width="2.9" height="118" fill="transparent" cursor="crosshair"><title>2026-05-21 · 1 contribution</title></rect>
  <rect x="715.2" y="18" width="2.9" height="118" fill="transparent" cursor="crosshair"><title>2026-05-22 · 4 contributions</title></rect>
  <rect x="718.1" y="18" width="2.9" height="118" fill="transparent" cursor="crosshair"><title>2026-05-23 · 5 contributions</title></rect>
  <rect x="721.0" y="18" width="2.9" height="118" fill="transparent" cursor="crosshair"><title>2026-05-24 · 11 contributions</title></rect>
  <rect x="723.9" y="18" width="2.9" height="118" fill="transparent" cursor="crosshair"><title>2026-05-25 · 0 contributions</title></rect>
  <rect x="726.8" y="18" width="2.9" height="118" fill="transparent" cursor="crosshair"><title>2026-05-26 · 1 contribution</title></rect>
  <rect x="729.8" y="18" width="2.9" height="118" fill="transparent" cursor="crosshair"><title>2026-05-27 · 1 contribution</title></rect>
  <rect x="732.7" y="18" width="2.9" height="118" fill="transparent" cursor="crosshair"><title>2026-05-28 · 3 contributions</title></rect>
  <rect x="735.6" y="18" width="2.9" height="118" fill="transparent" cursor="crosshair"><title>2026-05-29 · 2 contributions</title></rect>
  <rect x="738.5" y="18" width="2.9" height="118" fill="transparent" cursor="crosshair"><title>2026-05-30 · 1 contribution</title></rect>
  <rect x="741.5" y="18" width="2.9" height="118" fill="transparent" cursor="crosshair"><title>2026-05-31 · 0 contributions</title></rect>
  <rect x="744.4" y="18" width="2.9" height="118" fill="transparent" cursor="crosshair"><title>2026-06-01 · 11 contributions</title></rect>
  <rect x="747.3" y="18" width="2.9" height="118" fill="transparent" cursor="crosshair"><title>2026-06-02 · 2 contributions</title></rect>
  <rect x="750.2" y="18" width="2.9" height="118" fill="transparent" cursor="crosshair"><title>2026-06-03 · 0 contributions</title></rect>
  <rect x="753.2" y="18" width="2.9" height="118" fill="transparent" cursor="crosshair"><title>2026-06-04 · 0 contributions</title></rect>
  <rect x="756.1" y="18" width="2.9" height="118" fill="transparent" cursor="crosshair"><title>2026-06-05 · 0 contributions</title></rect>
  <rect x="759.0" y="18" width="2.9" height="118" fill="transparent" cursor="crosshair"><title>2026-06-06 · 0 contributions</title></rect>
  <rect x="761.9" y="18" width="2.9" height="118" fill="transparent" cursor="crosshair"><title>2026-06-07 · 0 contributions</title></rect>
  <rect x="764.8" y="18" width="2.9" height="118" fill="transparent" cursor="crosshair"><title>2026-06-08 · 4 contributions</title></rect>
  <rect x="767.8" y="18" width="2.9" height="118" fill="transparent" cursor="crosshair"><title>2026-06-09 · 0 contributions</title></rect>
  <rect x="770.7" y="18" width="2.9" height="118" fill="transparent" cursor="crosshair"><title>2026-06-10 · 0 contributions</title></rect>
  <rect x="773.6" y="18" width="2.9" height="118" fill="transparent" cursor="crosshair"><title>2026-06-11 · 0 contributions</title></rect>
  <rect x="776.5" y="18" width="2.9" height="118" fill="transparent" cursor="crosshair"><title>2026-06-12 · 0 contributions</title></rect>
  <rect x="779.5" y="18" width="2.9" height="118" fill="transparent" cursor="crosshair"><title>2026-06-13 · 0 contributions</title></rect>
  <rect x="782.4" y="18" width="2.9" height="118" fill="transparent" cursor="crosshair"><title>2026-06-14 · 0 contributions</title></rect>
  <rect x="785.3" y="18" width="2.9" height="118" fill="transparent" cursor="crosshair"><title>2026-06-15 · 1 contribution</title></rect>
  <rect x="788.2" y="18" width="2.9" height="118" fill="transparent" cursor="crosshair"><title>2026-06-16 · 0 contributions</title></rect>
  <rect x="791.2" y="18" width="2.9" height="118" fill="transparent" cursor="crosshair"><title>2026-06-17 · 0 contributions</title></rect>
  <rect x="794.1" y="18" width="2.9" height="118" fill="transparent" cursor="crosshair"><title>2026-06-18 · 0 contributions</title></rect>
  <rect x="797.0" y="18" width="2.9" height="118" fill="transparent" cursor="crosshair"><title>2026-06-19 · 0 contributions</title></rect>
  <rect x="799.9" y="18" width="2.9" height="118" fill="transparent" cursor="crosshair"><title>2026-06-20 · 0 contributions</title></rect>
  <rect x="802.8" y="18" width="2.9" height="118" fill="transparent" cursor="crosshair"><title>2026-06-21 · 0 contributions</title></rect>
  <rect x="805.8" y="18" width="2.9" height="118" fill="transparent" cursor="crosshair"><title>2026-06-22 · 1 contribution</title></rect>
  <rect x="808.7" y="18" width="2.9" height="118" fill="transparent" cursor="crosshair"><title>2026-06-23 · 0 contributions</title></rect>
  <rect x="811.6" y="18" width="2.9" height="118" fill="transparent" cursor="crosshair"><title>2026-06-24 · 0 contributions</title></rect>
  <rect x="814.5" y="18" width="2.9" height="118" fill="transparent" cursor="crosshair"><title>2026-06-25 · 0 contributions</title></rect>
  <rect x="817.5" y="18" width="2.9" height="118" fill="transparent" cursor="crosshair"><title>2026-06-26 · 0 contributions</title></rect>
  <rect x="820.4" y="18" width="2.9" height="118" fill="transparent" cursor="crosshair"><title>2026-06-27 · 0 contributions</title></rect>
  <rect x="823.3" y="18" width="2.9" height="118" fill="transparent" cursor="crosshair"><title>2026-06-28 · 0 contributions</title></rect>
  <rect x="826.2" y="18" width="2.9" height="118" fill="transparent" cursor="crosshair"><title>2026-06-29 · 1 contribution</title></rect>
  <rect x="829.2" y="18" width="2.9" height="118" fill="transparent" cursor="crosshair"><title>2026-06-30 · 0 contributions</title></rect>
  <rect x="832.1" y="18" width="2.9" height="118" fill="transparent" cursor="crosshair"><title>2026-07-01 · 0 contributions</title></rect>
  <rect x="835.0" y="18" width="2.9" height="118" fill="transparent" cursor="crosshair"><title>2026-07-02 · 0 contributions</title></rect>
  <rect x="837.9" y="18" width="2.9" height="118" fill="transparent" cursor="crosshair"><title>2026-07-03 · 0 contributions</title></rect>
  <rect x="840.8" y="18" width="2.9" height="118" fill="transparent" cursor="crosshair"><title>2026-07-04 · 0 contributions</title></rect>
  <rect x="843.8" y="18" width="2.9" height="118" fill="transparent" cursor="crosshair"><title>2026-07-05 · 0 contributions</title></rect>
  <rect x="846.7" y="18" width="2.9" height="118" fill="transparent" cursor="crosshair"><title>2026-07-06 · 1 contribution</title></rect>
  <rect x="849.6" y="18" width="2.9" height="118" fill="transparent" cursor="crosshair"><title>2026-07-07 · 0 contributions</title></rect>
  <rect x="852.5" y="18" width="2.9" height="118" fill="transparent" cursor="crosshair"><title>2026-07-08 · 0 contributions</title></rect>
  <rect x="855.5" y="18" width="2.9" height="118" fill="transparent" cursor="crosshair"><title>2026-07-09 · 0 contributions</title></rect>
  <rect x="858.4" y="18" width="2.9" height="118" fill="transparent" cursor="crosshair"><title>2026-07-10 · 0 contributions</title></rect>
  <rect x="861.3" y="18" width="2.9" height="118" fill="transparent" cursor="crosshair"><title>2026-07-11 · 0 contributions</title></rect>
  <rect x="864.2" y="18" width="2.9" height="118" fill="transparent" cursor="crosshair"><title>2026-07-12 · 0 contributions</title></rect>
  <rect x="867.2" y="18" width="2.9" height="118" fill="transparent" cursor="crosshair"><title>2026-07-13 · 1 contribution</title></rect>
  <rect x="870.1" y="18" width="2.9" height="118" fill="transparent" cursor="crosshair"><title>2026-07-14 · 0 contributions</title></rect>
  <rect x="873.0" y="18" width="2.9" height="118" fill="transparent" cursor="crosshair"><title>2026-07-15 · 0 contributions</title></rect>
  <rect x="875.9" y="18" width="2.9" height="118" fill="transparent" cursor="crosshair"><title>2026-07-16 · 0 contributions</title></rect>
  <rect x="878.8" y="18" width="2.9" height="118" fill="transparent" cursor="crosshair"><title>2026-07-17 · 0 contributions</title></rect>
  <rect x="881.8" y="18" width="2.9" height="118" fill="transparent" cursor="crosshair"><title>2026-07-18 · 0 contributions</title></rect>
  <rect x="884.7" y="18" width="2.9" height="118" fill="transparent" cursor="crosshair"><title>2026-07-19 · 0 contributions</title></rect>
  <rect x="887.6" y="18" width="2.9" height="118" fill="transparent" cursor="crosshair"><title>2026-07-20 · 1 contribution</title></rect>
  <rect x="890.5" y="18" width="2.9" height="118" fill="transparent" cursor="crosshair"><title>2026-07-21 · 0 contributions</title></rect>
  <rect x="893.5" y="18" width="2.9" height="118" fill="transparent" cursor="crosshair"><title>2026-07-22 · 0 contributions</title></rect>
  <rect x="896.4" y="18" width="2.9" height="118" fill="transparent" cursor="crosshair"><title>2026-07-23 · 9 contributions</title></rect>
  <rect x="899.3" y="18" width="2.9" height="118" fill="transparent" cursor="crosshair"><title>2026-07-24 · 1 contribution</title></rect>
  <rect x="902.2" y="18" width="2.9" height="118" fill="transparent" cursor="crosshair"><title>2026-07-25 · 0 contributions</title></rect>
  <rect x="905.2" y="18" width="2.9" height="118" fill="transparent" cursor="crosshair"><title>2026-07-26 · 0 contributions</title></rect>
  <rect x="908.1" y="18" width="2.9" height="118" fill="transparent" cursor="crosshair"><title>2026-07-27 · 1 contribution</title></rect>
  <rect x="911.0" y="18" width="2.9" height="118" fill="transparent" cursor="crosshair"><title>2026-07-28 · 0 contributions</title></rect>
  <rect x="913.9" y="18" width="2.9" height="118" fill="transparent" cursor="crosshair"><title>2026-07-29 · 0 contributions</title></rect>
  <rect x="916.8" y="18" width="2.9" height="118" fill="transparent" cursor="crosshair"><title>2026-07-30 · 0 contributions</title></rect>
  <rect x="919.8" y="18" width="2.9" height="118" fill="transparent" cursor="crosshair"><title>2026-07-31 · 2 contributions</title></rect>
  <rect x="922.7" y="18" width="2.9" height="118" fill="transparent" cursor="crosshair"><title>2026-08-01 · 2 contributions</title></rect>
  <rect x="925.6" y="18" width="2.9" height="118" fill="transparent" cursor="crosshair"><title>2026-08-02 · 0 contributions</title></rect>
  <rect x="928.5" y="18" width="2.9" height="118" fill="transparent" cursor="crosshair"><title>2026-08-03 · 1 contribution</title></rect>
  <rect x="931.5" y="18" width="2.9" height="118" fill="transparent" cursor="crosshair"><title>2026-08-04 · 1 contribution</title></rect>
  <rect x="934.4" y="18" width="2.9" height="118" fill="transparent" cursor="crosshair"><title>2026-08-05 · 4 contributions</title></rect>
  <rect x="937.3" y="18" width="2.9" height="118" fill="transparent" cursor="crosshair"><title>2026-08-06 · 10 contributions</title></rect>
  <rect x="940.2" y="18" width="2.9" height="118" fill="transparent" cursor="crosshair"><title>2026-08-07 · 2 contributions</title></rect>
  <rect x="943.2" y="18" width="2.9" height="118" fill="transparent" cursor="crosshair"><title>2026-08-08 · 3 contributions</title></rect>
  <rect x="946.1" y="18" width="2.9" height="118" fill="transparent" cursor="crosshair"><title>2026-08-09 · 0 contributions</title></rect>
  <rect x="949.0" y="18" width="2.9" height="118" fill="transparent" cursor="crosshair"><title>2026-08-10 · 1 contribution</title></rect>
  <rect x="951.9" y="18" width="2.9" height="118" fill="transparent" cursor="crosshair"><title>2026-08-11 · 0 contributions</title></rect>
  <rect x="954.8" y="18" width="2.9" height="118" fill="transparent" cursor="crosshair"><title>2026-08-12 · 28 contributions</title></rect>
  <rect x="957.8" y="18" width="2.9" height="118" fill="transparent" cursor="crosshair"><title>2026-08-13 · 1 contribution</title></rect>
  <rect x="960.7" y="18" width="2.9" height="118" fill="transparent" cursor="crosshair"><title>2026-08-14 · 4 contributions</title></rect>
  <rect x="963.6" y="18" width="2.9" height="118" fill="transparent" cursor="crosshair"><title>2026-08-15 · 5 contributions</title></rect>
  <rect x="966.5" y="18" width="2.9" height="118" fill="transparent" cursor="crosshair"><title>2026-08-16 · 2 contributions</title></rect>
  <rect x="969.5" y="18" width="2.9" height="118" fill="transparent" cursor="crosshair"><title>2026-08-17 · 1 contribution</title></rect>
  <rect x="972.4" y="18" width="2.9" height="118" fill="transparent" cursor="crosshair"><title>2026-08-18 · 1 contribution</title></rect>
  <rect x="975.3" y="18" width="2.9" height="118" fill="transparent" cursor="crosshair"><title>2026-08-19 · 1 contribution</title></rect>
  <rect x="978.2" y="18" width="2.9" height="118" fill="transparent" cursor="crosshair"><title>2026-08-20 · 1 contribution</title></rect>
  <rect x="981.2" y="18" width="2.9" height="118" fill="transparent" cursor="crosshair"><title>2026-08-21 · 1 contribution</title></rect>
  <rect x="984.1" y="18" width="2.9" height="118" fill="transparent" cursor="crosshair"><title>2026-08-22 · 1 contribution</title></rect>
  <rect x="987.0" y="18" width="2.9" height="118" fill="transparent" cursor="crosshair"><title>2026-08-23 · 3 contributions</title></rect>
  <rect x="989.9" y="18" width="2.9" height="118" fill="transparent" cursor="crosshair"><title>2026-08-24 · 3 contributions</title></rect>
  <rect x="992.8" y="18" width="2.9" height="118" fill="transparent" cursor="crosshair"><title>2026-08-25 · 1 contribution</title></rect>
  <rect x="995.8" y="18" width="2.9" height="118" fill="transparent" cursor="crosshair"><title>2026-08-26 · 2 contributions</title></rect>
  <rect x="998.7" y="18" width="2.9" height="118" fill="transparent" cursor="crosshair"><title>2026-08-27 · 1 contribution</title></rect>
  <rect x="1001.6" y="18" width="2.9" height="118" fill="transparent" cursor="crosshair"><title>2026-08-28 · 1 contribution</title></rect>
  <rect x="1004.5" y="18" width="2.9" height="118" fill="transparent" cursor="crosshair"><title>2026-08-29 · 1 contribution</title></rect>
  <rect x="1007.5" y="18" width="2.9" height="118" fill="transparent" cursor="crosshair"><title>2026-08-30 · 1 contribution</title></rect>
  <rect x="1010.4" y="18" width="2.9" height="118" fill="transparent" cursor="crosshair"><title>2026-08-31 · 1 contribution</title></rect>
  <rect x="1013.3" y="18" width="2.9" height="118" fill="transparent" cursor="crosshair"><title>2026-09-01 · 8 contributions</title></rect>
  <rect x="1016.2" y="18" width="2.9" height="118" fill="transparent" cursor="crosshair"><title>2026-09-02 · 17 contributions</title></rect>
  <rect x="1019.2" y="18" width="2.9" height="118" fill="transparent" cursor="crosshair"><title>2026-09-03 · 2 contributions</title></rect>
  <rect x="1022.1" y="18" width="2.9" height="118" fill="transparent" cursor="crosshair"><title>2026-09-04 · 1 contribution</title></rect>
  <rect x="1025.0" y="18" width="2.9" height="118" fill="transparent" cursor="crosshair"><title>2026-09-05 · 1 contribution</title></rect>
  <rect x="1027.9" y="18" width="2.9" height="118" fill="transparent" cursor="crosshair"><title>2026-09-06 · 1 contribution</title></rect>
  <rect x="1030.8" y="18" width="2.9" height="118" fill="transparent" cursor="crosshair"><title>2026-09-07 · 3 contributions</title></rect>
  <rect x="1033.8" y="18" width="2.9" height="118" fill="transparent" cursor="crosshair"><title>2026-09-08 · 1 contribution</title></rect>
  <rect x="1036.7" y="18" width="2.9" height="118" fill="transparent" cursor="crosshair"><title>2026-09-09 · 1 contribution</title></rect>
  <rect x="1039.6" y="18" width="2.9" height="118" fill="transparent" cursor="crosshair"><title>2026-09-10 · 2 contributions</title></rect>
  <rect x="1042.5" y="18" width="2.9" height="118" fill="transparent" cursor="crosshair"><title>2026-09-11 · 10 contributions</title></rect>
  <rect x="1045.5" y="18" width="2.9" height="118" fill="transparent" cursor="crosshair"><title>2026-09-12 · 10 contributions</title></rect>
  <rect x="1048.4" y="18" width="2.9" height="118" fill="transparent" cursor="crosshair"><title>2026-09-13 · 7 contributions</title></rect>
  <rect x="1051.3" y="18" width="2.9" height="118" fill="transparent" cursor="crosshair"><title>2026-09-14 · 1 contribution</title></rect>
  <rect x="1054.2" y="18" width="2.9" height="118" fill="transparent" cursor="crosshair"><title>2026-09-15 · 4 contributions</title></rect>
  <rect x="1057.2" y="18" width="2.9" height="118" fill="transparent" cursor="crosshair"><title>2026-09-16 · 8 contributions</title></rect>
  <rect x="1060.1" y="18" width="2.9" height="118" fill="transparent" cursor="crosshair"><title>2026-09-17 · 2 contributions</title></rect>
  <rect x="1063.0" y="18" width="2.9" height="118" fill="transparent" cursor="crosshair"><title>2026-09-18 · 5 contributions</title></rect>
  <rect x="1065.9" y="18" width="2.9" height="118" fill="transparent" cursor="crosshair"><title>2026-09-19 · 6 contributions</title></rect>
  <rect x="1068.8" y="18" width="2.9" height="118" fill="transparent" cursor="crosshair"><title>2026-09-20 · 1 contribution</title></rect>
  <rect x="1071.8" y="18" width="2.9" height="118" fill="transparent" cursor="crosshair"><title>2026-09-21 · 1 contribution</title></rect>
  <rect x="1074.7" y="18" width="2.9" height="118" fill="transparent" cursor="crosshair"><title>2026-09-22 · 1 contribution</title></rect>
  <rect x="1077.6" y="18" width="2.9" height="118" fill="transparent" cursor="crosshair"><title>2026-09-23 · 4 contributions</title></rect>
  <rect x="1080.5" y="18" width="2.9" height="118" fill="transparent" cursor="crosshair"><title>2026-09-24 · 2 contributions</title></rect>

  <text x="1082" y="144" text-anchor="end" font-size="11"
        font-family="JetBrains Mono, Fira Code, ui-monospace, monospace" fill="#DADADA" opacity="0">
    380 contributions · last 365 days
    <animate attributeName="opacity" from="0" to="0.55" dur="0.8s" begin="2.6s" fill="freeze"/>
  </text>
</svg>
