<svg xmlns="http://www.w3.org/2000/svg" viewBox="0 0 1100 150" width="100%" preserveAspectRatio="xMidYMid meet" role="img" aria-label="contribution flow for Wint3rNight">
  <defs>
    <linearGradient id="areaGrad" x1="0" x2="0" y1="0" y2="1">
      <stop offset="0%" stop-color="#8658E3" stop-opacity="0.55"/>
      <stop offset="60%" stop-color="#8658E3" stop-opacity="0.18"/>
      <stop offset="100%" stop-color="#8658E3" stop-opacity="0"/>
    </linearGradient>
    <linearGradient id="lineGrad" x1="0" x2="1" y1="0" y2="0">
      <stop offset="0%" stop-color="#8658E3" stop-opacity="0.55"/>
      <stop offset="50%" stop-color="#8658E3" stop-opacity="1"/>
      <stop offset="100%" stop-color="#9B78E0" stop-opacity="1"/>
    </linearGradient>
  </defs>

  <rect x="0.5" y="0.5" width="1099" height="149" rx="8" fill="#201D26" stroke="#45326A" stroke-width="0.8"/>

  <path d="M 18.00,72.56 C 18.49,71.24 19.95,63.57 20.92,64.63 C 21.90,65.69 22.87,74.30 23.85,78.90 C 24.82,83.50 25.79,90.32 26.77,92.23 C 27.74,94.13 28.72,92.23 29.69,90.32 C 30.67,88.42 31.64,81.44 32.62,80.81 C 33.59,80.17 34.56,87.78 35.54,86.52 C 36.51,85.25 37.49,77.95 38.46,73.19 C 39.44,68.44 40.41,60.19 41.38,57.97 C 42.36,55.75 43.33,56.06 44.31,59.87 C 45.28,63.68 46.26,77.00 47.23,80.81 C 48.21,84.61 49.18,81.76 50.15,82.71 C 51.13,83.66 52.10,86.20 53.08,86.52 C 54.05,86.83 55.03,90.96 56.00,84.61 C 56.97,78.27 57.95,57.65 58.92,48.45 C 59.90,39.25 60.87,30.69 61.85,29.42 C 62.82,28.15 63.79,37.35 64.77,40.84 C 65.74,44.33 66.72,47.82 67.69,50.35 C 68.67,52.89 69.64,50.35 70.62,56.06 C 71.59,61.77 72.56,79.85 73.54,84.61 C 74.51,89.37 75.49,88.42 76.46,84.61 C 77.44,80.81 78.41,67.17 79.38,61.77 C 80.36,56.38 81.33,51.31 82.31,52.26 C 83.28,53.21 84.26,63.36 85.23,67.48 C 86.21,71.61 87.18,73.83 88.15,77.00 C 89.13,80.17 90.10,85.56 91.08,86.52 C 92.05,87.47 93.03,84.30 94.00,82.71 C 94.97,81.12 95.95,79.85 96.92,77.00 C 97.90,74.15 98.87,66.22 99.85,65.58 C 100.82,64.95 101.79,70.97 102.77,73.19 C 103.74,75.41 104.72,74.15 105.69,78.90 C 106.67,83.66 107.64,96.67 108.62,101.74 C 109.59,106.82 110.56,109.67 111.54,109.35 C 112.51,109.04 113.49,104.91 114.46,99.84 C 115.44,94.76 116.41,84.61 117.38,78.90 C 118.36,73.19 119.33,68.44 120.31,65.58 C 121.28,62.73 122.26,61.14 123.23,61.77 C 124.21,62.41 125.18,66.22 126.15,69.39 C 127.13,72.56 128.10,77.63 129.08,80.81 C 130.05,83.98 131.03,86.83 132.00,88.42 C 132.97,90.01 133.95,91.27 134.92,90.32 C 135.90,89.37 136.87,86.83 137.85,82.71 C 138.82,78.59 139.79,69.07 140.77,65.58 C 141.74,62.09 142.72,60.19 143.69,61.77 C 144.67,63.36 145.64,70.66 146.62,75.10 C 147.59,79.54 148.56,87.15 149.54,88.42 C 150.51,89.69 151.49,82.39 152.46,82.71 C 153.44,83.03 154.41,90.96 155.38,90.32 C 156.36,89.69 157.33,84.30 158.31,78.90 C 159.28,73.51 160.26,63.36 161.23,57.97 C 162.21,52.58 163.18,45.60 164.15,46.55 C 165.13,47.50 166.10,61.14 167.08,63.68 C 168.05,66.22 169.03,60.19 170.00,61.77 C 170.97,63.36 171.95,70.66 172.92,73.19 C 173.90,75.73 174.87,75.41 175.85,77.00 C 176.82,78.59 177.79,81.76 178.77,82.71 C 179.74,83.66 180.72,82.39 181.69,82.71 C 182.67,83.03 183.64,82.39 184.62,84.61 C 185.59,86.83 186.56,91.91 187.54,96.03 C 188.51,100.16 189.49,108.40 190.46,109.35 C 191.44,110.31 192.41,105.87 193.38,101.74 C 194.36,97.62 195.33,86.52 196.31,84.61 C 197.28,82.71 198.26,89.69 199.23,90.32 C 200.21,90.96 201.18,90.96 202.15,88.42 C 203.13,85.88 204.10,75.10 205.08,75.10 C 206.05,75.10 207.03,83.66 208.00,88.42 C 208.97,93.18 209.95,102.38 210.92,103.65 C 211.90,104.91 212.87,99.20 213.85,96.03 C 214.82,92.86 215.79,84.61 216.77,84.61 C 217.74,84.61 218.72,96.98 219.69,96.03 C 220.67,95.08 221.64,83.03 222.62,78.90 C 223.59,74.78 224.56,71.29 225.54,71.29 C 226.51,71.29 227.49,75.41 228.46,78.90 C 229.44,82.39 230.41,90.32 231.38,92.23 C 232.36,94.13 233.33,88.42 234.31,90.32 C 235.28,92.23 236.26,103.33 237.23,103.65 C 238.21,103.96 239.18,95.72 240.15,92.23 C 241.13,88.74 242.10,86.83 243.08,82.71 C 244.05,78.59 245.03,74.15 246.00,67.48 C 246.97,60.82 247.95,45.91 248.92,42.74 C 249.90,39.57 250.87,45.60 251.85,48.45 C 252.82,51.31 253.79,57.02 254.77,59.87 C 255.74,62.73 256.72,62.73 257.69,65.58 C 258.67,68.44 259.64,71.61 260.62,77.00 C 261.59,82.39 262.56,96.03 263.54,97.94 C 264.51,99.84 265.49,88.42 266.46,88.42 C 267.44,88.42 268.41,95.08 269.38,97.94 C 270.36,100.79 271.33,106.18 272.31,105.55 C 273.28,104.91 274.26,96.03 275.23,94.13 C 276.21,92.23 277.18,95.40 278.15,94.13 C 279.13,92.86 280.10,90.96 281.08,86.52 C 282.05,82.08 283.03,74.78 284.00,67.48 C 284.97,60.19 285.95,44.33 286.92,42.74 C 287.90,41.16 288.87,55.11 289.85,57.97 C 290.82,60.82 291.79,58.92 292.77,59.87 C 293.74,60.82 294.72,61.14 295.69,63.68 C 296.67,66.22 297.64,72.88 298.62,75.10 C 299.59,77.32 300.56,79.54 301.54,77.00 C 302.51,74.46 303.49,62.09 304.46,59.87 C 305.44,57.65 306.41,64.95 307.38,63.68 C 308.36,62.41 309.33,53.53 310.31,52.26 C 311.28,50.99 312.26,53.21 313.23,56.06 C 314.21,58.92 315.18,67.48 316.15,69.39 C 317.13,71.29 318.10,69.70 319.08,67.48 C 320.05,65.26 321.03,56.38 322.00,56.06 C 322.97,55.75 323.95,64.31 324.92,65.58 C 325.90,66.85 326.87,63.04 327.85,63.68 C 328.82,64.31 329.79,65.58 330.77,69.39 C 331.74,73.19 332.72,84.30 333.69,86.52 C 334.67,88.74 335.64,81.44 336.62,82.71 C 337.59,83.98 338.56,92.86 339.54,94.13 C 340.51,95.40 341.49,92.86 342.46,90.32 C 343.44,87.78 344.41,81.76 345.38,78.90 C 346.36,76.05 347.33,71.92 348.31,73.19 C 349.28,74.46 350.26,89.69 351.23,86.52 C 352.21,83.34 353.18,58.60 354.15,54.16 C 355.13,49.72 356.10,57.97 357.08,59.87 C 358.05,61.77 359.03,65.26 360.00,65.58 C 360.97,65.90 361.95,64.95 362.92,61.77 C 363.90,58.60 364.87,49.09 365.85,46.55 C 366.82,44.01 367.79,46.23 368.77,46.55 C 369.74,46.87 370.72,47.18 371.69,48.45 C 372.67,49.72 373.64,52.58 374.62,54.16 C 375.59,55.75 376.56,55.11 377.54,57.97 C 378.51,60.82 379.49,63.68 380.46,71.29 C 381.44,78.90 382.41,98.57 383.38,103.65 C 384.36,108.72 385.33,104.91 386.31,101.74 C 387.28,98.57 388.26,85.88 389.23,84.61 C 390.21,83.34 391.18,90.96 392.15,94.13 C 393.13,97.30 394.10,103.65 395.08,103.65 C 396.05,103.65 397.03,96.67 398.00,94.13 C 398.97,91.59 399.95,87.78 400.92,88.42 C 401.90,89.05 402.87,99.84 403.85,97.94 C 404.82,96.03 405.79,82.39 406.77,77.00 C 407.74,71.61 408.72,66.53 409.69,65.58 C 410.67,64.63 411.64,69.07 412.62,71.29 C 413.59,73.51 414.56,81.76 415.54,78.90 C 416.51,76.05 417.49,56.06 418.46,54.16 C 419.44,52.26 420.41,67.17 421.38,67.48 C 422.36,67.80 423.33,60.19 424.31,56.06 C 425.28,51.94 426.26,45.60 427.23,42.74 C 428.21,39.89 429.18,34.18 430.15,38.94 C 431.13,43.69 432.10,64.63 433.08,71.29 C 434.05,77.95 435.03,75.73 436.00,78.90 C 436.97,82.08 437.95,87.47 438.92,90.32 C 439.90,93.18 440.87,94.45 441.85,96.03 C 442.82,97.62 443.79,98.89 444.77,99.84 C 445.74,100.79 446.72,101.42 447.69,101.74 C 448.67,102.06 449.64,101.11 450.62,101.74 C 451.59,102.38 452.56,102.69 453.54,105.55 C 454.51,108.40 455.49,117.92 456.46,118.87 C 457.44,119.82 458.41,112.53 459.38,111.26 C 460.36,109.99 461.33,111.89 462.31,111.26 C 463.28,110.62 464.26,109.99 465.23,107.45 C 466.21,104.91 467.18,98.89 468.15,96.03 C 469.13,93.18 470.10,89.69 471.08,90.32 C 472.05,90.96 473.03,98.57 474.00,99.84 C 474.97,101.11 475.95,101.42 476.92,97.94 C 477.90,94.45 478.87,79.85 479.85,78.90 C 480.82,77.95 481.79,90.01 482.77,92.23 C 483.74,94.45 484.72,94.76 485.69,92.23 C 486.67,89.69 487.64,81.76 488.62,77.00 C 489.59,72.24 490.56,63.04 491.54,63.68 C 492.51,64.31 493.49,77.95 494.46,80.81 C 495.44,83.66 496.41,81.12 497.38,80.81 C 498.36,80.49 499.33,77.95 500.31,78.90 C 501.28,79.85 502.26,83.98 503.23,86.52 C 504.21,89.05 505.18,95.40 506.15,94.13 C 507.13,92.86 508.10,82.71 509.08,78.90 C 510.05,75.10 511.03,71.61 512.00,71.29 C 512.97,70.97 513.95,74.15 514.92,77.00 C 515.90,79.85 516.87,86.52 517.85,88.42 C 518.82,90.32 519.79,88.10 520.77,88.42 C 521.74,88.74 522.72,88.74 523.69,90.32 C 524.67,91.91 525.64,96.03 526.62,97.94 C 527.59,99.84 528.56,101.74 529.54,101.74 C 530.51,101.74 531.49,98.25 532.46,97.94 C 533.44,97.62 534.41,96.98 535.38,99.84 C 536.36,102.69 537.33,113.16 538.31,115.06 C 539.28,116.97 540.26,112.53 541.23,111.26 C 542.21,109.99 543.18,109.35 544.15,107.45 C 545.13,105.55 546.10,102.06 547.08,99.84 C 548.05,97.62 549.03,100.79 550.00,94.13 C 550.97,87.47 551.95,63.99 552.92,59.87 C 553.90,55.75 554.87,67.80 555.85,69.39 C 556.82,70.97 557.79,69.39 558.77,69.39 C 559.74,69.39 560.72,69.39 561.69,69.39 C 562.67,69.39 563.64,64.63 564.62,69.39 C 565.59,74.15 566.56,99.20 567.54,97.94 C 568.51,96.67 569.49,67.17 570.46,61.77 C 571.44,56.38 572.41,63.36 573.38,65.58 C 574.36,67.80 575.33,72.88 576.31,75.10 C 577.28,77.32 578.26,78.90 579.23,78.90 C 580.21,78.90 581.18,72.88 582.15,75.10 C 583.13,77.32 584.10,92.86 585.08,92.23 C 586.05,91.59 587.03,80.49 588.00,71.29 C 588.97,62.09 589.95,43.38 590.92,37.03 C 591.90,30.69 592.87,31.64 593.85,33.23 C 594.82,34.81 595.79,42.74 596.77,46.55 C 597.74,50.35 598.72,53.21 599.69,56.06 C 600.67,58.92 601.64,58.28 602.62,63.68 C 603.59,69.07 604.56,85.25 605.54,88.42 C 606.51,91.59 607.49,85.25 608.46,82.71 C 609.44,80.17 610.41,74.46 611.38,73.19 C 612.36,71.92 613.33,73.83 614.31,75.10 C 615.28,76.37 616.26,79.54 617.23,80.81 C 618.21,82.08 619.18,80.81 620.15,82.71 C 621.13,84.61 622.10,89.69 623.08,92.23 C 624.05,94.76 625.03,96.67 626.00,97.94 C 626.97,99.20 627.95,100.47 628.92,99.84 C 629.90,99.20 630.87,96.98 631.85,94.13 C 632.82,91.27 633.79,83.34 634.77,82.71 C 635.74,82.08 636.72,89.37 637.69,90.32 C 638.67,91.27 639.64,91.91 640.62,88.42 C 641.59,84.93 642.56,70.34 643.54,69.39 C 644.51,68.44 645.49,79.85 646.46,82.71 C 647.44,85.56 648.41,90.01 649.38,86.52 C 650.36,83.03 651.33,65.58 652.31,61.77 C 653.28,57.97 654.26,60.51 655.23,63.68 C 656.21,66.85 657.18,78.90 658.15,80.81 C 659.13,82.71 660.10,75.10 661.08,75.10 C 662.05,75.10 663.03,77.95 664.00,80.81 C 664.97,83.66 665.95,91.59 666.92,92.23 C 667.90,92.86 668.87,89.37 669.85,84.61 C 670.82,79.85 671.79,68.44 672.77,63.68 C 673.74,58.92 674.72,56.06 675.69,56.06 C 676.67,56.06 677.64,61.46 678.62,63.68 C 679.59,65.90 680.56,66.85 681.54,69.39 C 682.51,71.92 683.49,73.51 684.46,78.90 C 685.44,84.30 686.41,96.35 687.38,101.74 C 688.36,107.13 689.33,109.35 690.31,111.26 C 691.28,113.16 692.26,119.51 693.23,113.16 C 694.21,106.82 695.18,80.17 696.15,73.19 C 697.13,66.22 698.10,70.66 699.08,71.29 C 700.05,71.92 701.03,76.68 702.00,77.00 C 702.97,77.32 703.95,76.37 704.92,73.19 C 705.90,70.02 706.87,52.89 707.85,57.97 C 708.82,63.04 709.79,96.67 710.77,103.65 C 711.74,110.62 712.72,103.96 713.69,99.84 C 714.67,95.72 715.64,82.08 716.62,78.90 C 717.59,75.73 718.56,77.63 719.54,80.81 C 720.51,83.98 721.49,97.30 722.46,97.94 C 723.44,98.57 724.41,86.83 725.38,84.61 C 726.36,82.39 727.33,86.52 728.31,84.61 C 729.28,82.71 730.26,74.78 731.23,73.19 C 732.21,71.61 733.18,76.37 734.15,75.10 C 735.13,73.83 736.10,64.95 737.08,65.58 C 738.05,66.22 739.03,76.68 740.00,78.90 C 740.97,81.12 741.95,74.78 742.92,78.90 C 743.90,83.03 744.87,101.74 745.85,103.65 C 746.82,105.55 747.79,91.91 748.77,90.32 C 749.74,88.74 750.72,96.35 751.69,94.13 C 752.67,91.91 753.64,79.85 754.62,77.00 C 755.59,74.15 756.56,75.73 757.54,77.00 C 758.51,78.27 759.49,80.49 760.46,84.61 C 761.44,88.74 762.41,98.89 763.38,101.74 C 764.36,104.60 765.33,99.20 766.31,101.74 C 767.28,104.28 768.26,116.65 769.23,116.97 C 770.21,117.28 771.18,108.09 772.15,103.65 C 773.13,99.20 774.10,93.49 775.08,90.32 C 776.05,87.15 777.03,85.88 778.00,84.61 C 778.97,83.34 779.95,83.66 780.92,82.71 C 781.90,81.76 782.87,77.32 783.85,78.90 C 784.82,80.49 785.79,91.27 786.77,92.23 C 787.74,93.18 788.72,91.59 789.69,84.61 C 790.67,77.63 791.64,58.92 792.62,50.35 C 793.59,41.79 794.56,37.67 795.54,33.23 C 796.51,28.78 797.49,24.03 798.46,23.71 C 799.44,23.39 800.41,27.20 801.38,31.32 C 802.36,35.45 803.33,40.52 804.31,48.45 C 805.28,56.38 806.26,70.66 807.23,78.90 C 808.21,87.15 809.18,95.72 810.15,97.94 C 811.13,100.16 812.10,96.03 813.08,92.23 C 814.05,88.42 815.03,77.95 816.00,75.10 C 816.97,72.24 817.95,73.51 818.92,75.10 C 819.90,76.68 820.87,83.34 821.85,84.61 C 822.82,85.88 823.79,82.08 824.77,82.71 C 825.74,83.34 826.72,84.93 827.69,88.42 C 828.67,91.91 829.64,102.38 830.62,103.65 C 831.59,104.91 832.56,98.57 833.54,96.03 C 834.51,93.49 835.49,90.01 836.46,88.42 C 837.44,86.83 838.41,83.66 839.38,86.52 C 840.36,89.37 841.33,102.06 842.31,105.55 C 843.28,109.04 844.26,105.55 845.23,107.45 C 846.21,109.35 847.18,115.70 848.15,116.97 C 849.13,118.24 850.10,120.14 851.08,115.06 C 852.05,109.99 853.03,92.54 854.00,86.52 C 854.97,80.49 855.95,81.76 856.92,78.90 C 857.90,76.05 858.87,70.66 859.85,69.39 C 860.82,68.12 861.79,70.02 862.77,71.29 C 863.74,72.56 864.72,72.24 865.69,77.00 C 866.67,81.76 867.64,98.25 868.62,99.84 C 869.59,101.42 870.56,88.74 871.54,86.52 C 872.51,84.30 873.49,90.32 874.46,86.52 C 875.44,82.71 876.41,68.75 877.38,63.68 C 878.36,58.60 879.33,54.80 880.31,56.06 C 881.28,57.33 882.26,66.22 883.23,71.29 C 884.21,76.37 885.18,84.61 886.15,86.52 C 887.13,88.42 888.10,83.66 889.08,82.71 C 890.05,81.76 891.03,84.30 892.00,80.81 C 892.97,77.32 893.95,67.17 894.92,61.77 C 895.90,56.38 896.87,50.35 897.85,48.45 C 898.82,46.55 899.79,47.82 900.77,50.35 C 901.74,52.89 902.72,61.14 903.69,63.68 C 904.67,66.22 905.64,63.36 906.62,65.58 C 907.59,67.80 908.56,74.46 909.54,77.00 C 910.51,79.54 911.49,83.98 912.46,80.81 C 913.44,77.63 914.41,63.99 915.38,57.97 C 916.36,51.94 917.33,45.28 918.31,44.65 C 919.28,44.01 920.26,50.67 921.23,54.16 C 922.21,57.65 923.18,62.41 924.15,65.58 C 925.13,68.75 926.10,67.48 927.08,73.19 C 928.05,78.90 929.03,96.98 930.00,99.84 C 930.97,102.69 931.95,92.86 932.92,90.32 C 933.90,87.78 934.87,86.20 935.85,84.61 C 936.82,83.03 937.79,83.98 938.77,80.81 C 939.74,77.63 940.72,68.44 941.69,65.58 C 942.67,62.73 943.64,61.46 944.62,63.68 C 945.59,65.90 946.56,76.05 947.54,78.90 C 948.51,81.76 949.49,80.17 950.46,80.81 C 951.44,81.44 952.41,81.12 953.38,82.71 C 954.36,84.30 955.33,93.81 956.31,90.32 C 957.28,86.83 958.26,68.44 959.23,61.77 C 960.21,55.11 961.18,49.72 962.15,50.35 C 963.13,50.99 964.10,61.77 965.08,65.58 C 966.05,69.39 967.03,70.97 968.00,73.19 C 968.97,75.41 969.95,78.59 970.92,78.90 C 971.90,79.22 972.87,75.10 973.85,75.10 C 974.82,75.10 975.79,80.49 976.77,78.90 C 977.74,77.32 978.72,75.73 979.69,65.58 C 980.67,55.43 981.64,25.30 982.62,18.00 C 983.59,10.70 984.56,16.73 985.54,21.81 C 986.51,26.88 987.49,44.01 988.46,48.45 C 989.44,52.89 990.41,49.40 991.38,48.45 C 992.36,47.50 993.33,37.35 994.31,42.74 C 995.28,48.13 996.26,76.37 997.23,80.81 C 998.21,85.25 999.18,70.34 1000.15,69.39 C 1001.13,68.44 1002.10,72.24 1003.08,75.10 C 1004.05,77.95 1005.03,81.76 1006.00,86.52 C 1006.97,91.27 1007.95,100.47 1008.92,103.65 C 1009.90,106.82 1010.87,105.87 1011.85,105.55 C 1012.82,105.23 1013.79,103.65 1014.77,101.74 C 1015.74,99.84 1016.72,97.30 1017.69,94.13 C 1018.67,90.96 1019.64,84.30 1020.62,82.71 C 1021.59,81.12 1022.56,82.71 1023.54,84.61 C 1024.51,86.52 1025.49,90.01 1026.46,94.13 C 1027.44,98.25 1028.41,107.13 1029.38,109.35 C 1030.36,111.58 1031.33,106.82 1032.31,107.45 C 1033.28,108.09 1034.26,115.38 1035.23,113.16 C 1036.21,110.94 1037.18,99.52 1038.15,94.13 C 1039.13,88.74 1040.10,87.47 1041.08,80.81 C 1042.05,74.15 1043.03,57.02 1044.00,54.16 C 1044.97,51.31 1045.95,61.46 1046.92,63.68 C 1047.90,65.90 1048.87,63.36 1049.85,67.48 C 1050.82,71.61 1051.79,86.52 1052.77,88.42 C 1053.74,90.32 1054.72,77.95 1055.69,78.90 C 1056.67,79.85 1057.64,92.23 1058.62,94.13 C 1059.59,96.03 1060.56,92.23 1061.54,90.32 C 1062.51,88.42 1063.49,84.61 1064.46,82.71 C 1065.44,80.81 1066.41,76.68 1067.38,78.90 C 1068.36,81.12 1069.33,91.27 1070.31,96.03 C 1071.28,100.79 1072.26,105.23 1073.23,107.45 C 1074.21,109.67 1075.18,107.37 1076.15,109.35 C 1077.13,111.34 1078.10,117.55 1079.08,119.35 C 1080.05,121.14 1081.51,120.01 1082.00,120.14 L 1082.00,136.00 L 18.00,136.00 Z" fill="url(#areaGrad)">
    <animate attributeName="opacity" from="0" to="1" dur="2.5s" fill="freeze" begin="0.3s"/>
  </path>

  <path d="M 18.00,72.56 C 18.49,71.24 19.95,63.57 20.92,64.63 C 21.90,65.69 22.87,74.30 23.85,78.90 C 24.82,83.50 25.79,90.32 26.77,92.23 C 27.74,94.13 28.72,92.23 29.69,90.32 C 30.67,88.42 31.64,81.44 32.62,80.81 C 33.59,80.17 34.56,87.78 35.54,86.52 C 36.51,85.25 37.49,77.95 38.46,73.19 C 39.44,68.44 40.41,60.19 41.38,57.97 C 42.36,55.75 43.33,56.06 44.31,59.87 C 45.28,63.68 46.26,77.00 47.23,80.81 C 48.21,84.61 49.18,81.76 50.15,82.71 C 51.13,83.66 52.10,86.20 53.08,86.52 C 54.05,86.83 55.03,90.96 56.00,84.61 C 56.97,78.27 57.95,57.65 58.92,48.45 C 59.90,39.25 60.87,30.69 61.85,29.42 C 62.82,28.15 63.79,37.35 64.77,40.84 C 65.74,44.33 66.72,47.82 67.69,50.35 C 68.67,52.89 69.64,50.35 70.62,56.06 C 71.59,61.77 72.56,79.85 73.54,84.61 C 74.51,89.37 75.49,88.42 76.46,84.61 C 77.44,80.81 78.41,67.17 79.38,61.77 C 80.36,56.38 81.33,51.31 82.31,52.26 C 83.28,53.21 84.26,63.36 85.23,67.48 C 86.21,71.61 87.18,73.83 88.15,77.00 C 89.13,80.17 90.10,85.56 91.08,86.52 C 92.05,87.47 93.03,84.30 94.00,82.71 C 94.97,81.12 95.95,79.85 96.92,77.00 C 97.90,74.15 98.87,66.22 99.85,65.58 C 100.82,64.95 101.79,70.97 102.77,73.19 C 103.74,75.41 104.72,74.15 105.69,78.90 C 106.67,83.66 107.64,96.67 108.62,101.74 C 109.59,106.82 110.56,109.67 111.54,109.35 C 112.51,109.04 113.49,104.91 114.46,99.84 C 115.44,94.76 116.41,84.61 117.38,78.90 C 118.36,73.19 119.33,68.44 120.31,65.58 C 121.28,62.73 122.26,61.14 123.23,61.77 C 124.21,62.41 125.18,66.22 126.15,69.39 C 127.13,72.56 128.10,77.63 129.08,80.81 C 130.05,83.98 131.03,86.83 132.00,88.42 C 132.97,90.01 133.95,91.27 134.92,90.32 C 135.90,89.37 136.87,86.83 137.85,82.71 C 138.82,78.59 139.79,69.07 140.77,65.58 C 141.74,62.09 142.72,60.19 143.69,61.77 C 144.67,63.36 145.64,70.66 146.62,75.10 C 147.59,79.54 148.56,87.15 149.54,88.42 C 150.51,89.69 151.49,82.39 152.46,82.71 C 153.44,83.03 154.41,90.96 155.38,90.32 C 156.36,89.69 157.33,84.30 158.31,78.90 C 159.28,73.51 160.26,63.36 161.23,57.97 C 162.21,52.58 163.18,45.60 164.15,46.55 C 165.13,47.50 166.10,61.14 167.08,63.68 C 168.05,66.22 169.03,60.19 170.00,61.77 C 170.97,63.36 171.95,70.66 172.92,73.19 C 173.90,75.73 174.87,75.41 175.85,77.00 C 176.82,78.59 177.79,81.76 178.77,82.71 C 179.74,83.66 180.72,82.39 181.69,82.71 C 182.67,83.03 183.64,82.39 184.62,84.61 C 185.59,86.83 186.56,91.91 187.54,96.03 C 188.51,100.16 189.49,108.40 190.46,109.35 C 191.44,110.31 192.41,105.87 193.38,101.74 C 194.36,97.62 195.33,86.52 196.31,84.61 C 197.28,82.71 198.26,89.69 199.23,90.32 C 200.21,90.96 201.18,90.96 202.15,88.42 C 203.13,85.88 204.10,75.10 205.08,75.10 C 206.05,75.10 207.03,83.66 208.00,88.42 C 208.97,93.18 209.95,102.38 210.92,103.65 C 211.90,104.91 212.87,99.20 213.85,96.03 C 214.82,92.86 215.79,84.61 216.77,84.61 C 217.74,84.61 218.72,96.98 219.69,96.03 C 220.67,95.08 221.64,83.03 222.62,78.90 C 223.59,74.78 224.56,71.29 225.54,71.29 C 226.51,71.29 227.49,75.41 228.46,78.90 C 229.44,82.39 230.41,90.32 231.38,92.23 C 232.36,94.13 233.33,88.42 234.31,90.32 C 235.28,92.23 236.26,103.33 237.23,103.65 C 238.21,103.96 239.18,95.72 240.15,92.23 C 241.13,88.74 242.10,86.83 243.08,82.71 C 244.05,78.59 245.03,74.15 246.00,67.48 C 246.97,60.82 247.95,45.91 248.92,42.74 C 249.90,39.57 250.87,45.60 251.85,48.45 C 252.82,51.31 253.79,57.02 254.77,59.87 C 255.74,62.73 256.72,62.73 257.69,65.58 C 258.67,68.44 259.64,71.61 260.62,77.00 C 261.59,82.39 262.56,96.03 263.54,97.94 C 264.51,99.84 265.49,88.42 266.46,88.42 C 267.44,88.42 268.41,95.08 269.38,97.94 C 270.36,100.79 271.33,106.18 272.31,105.55 C 273.28,104.91 274.26,96.03 275.23,94.13 C 276.21,92.23 277.18,95.40 278.15,94.13 C 279.13,92.86 280.10,90.96 281.08,86.52 C 282.05,82.08 283.03,74.78 284.00,67.48 C 284.97,60.19 285.95,44.33 286.92,42.74 C 287.90,41.16 288.87,55.11 289.85,57.97 C 290.82,60.82 291.79,58.92 292.77,59.87 C 293.74,60.82 294.72,61.14 295.69,63.68 C 296.67,66.22 297.64,72.88 298.62,75.10 C 299.59,77.32 300.56,79.54 301.54,77.00 C 302.51,74.46 303.49,62.09 304.46,59.87 C 305.44,57.65 306.41,64.95 307.38,63.68 C 308.36,62.41 309.33,53.53 310.31,52.26 C 311.28,50.99 312.26,53.21 313.23,56.06 C 314.21,58.92 315.18,67.48 316.15,69.39 C 317.13,71.29 318.10,69.70 319.08,67.48 C 320.05,65.26 321.03,56.38 322.00,56.06 C 322.97,55.75 323.95,64.31 324.92,65.58 C 325.90,66.85 326.87,63.04 327.85,63.68 C 328.82,64.31 329.79,65.58 330.77,69.39 C 331.74,73.19 332.72,84.30 333.69,86.52 C 334.67,88.74 335.64,81.44 336.62,82.71 C 337.59,83.98 338.56,92.86 339.54,94.13 C 340.51,95.40 341.49,92.86 342.46,90.32 C 343.44,87.78 344.41,81.76 345.38,78.90 C 346.36,76.05 347.33,71.92 348.31,73.19 C 349.28,74.46 350.26,89.69 351.23,86.52 C 352.21,83.34 353.18,58.60 354.15,54.16 C 355.13,49.72 356.10,57.97 357.08,59.87 C 358.05,61.77 359.03,65.26 360.00,65.58 C 360.97,65.90 361.95,64.95 362.92,61.77 C 363.90,58.60 364.87,49.09 365.85,46.55 C 366.82,44.01 367.79,46.23 368.77,46.55 C 369.74,46.87 370.72,47.18 371.69,48.45 C 372.67,49.72 373.64,52.58 374.62,54.16 C 375.59,55.75 376.56,55.11 377.54,57.97 C 378.51,60.82 379.49,63.68 380.46,71.29 C 381.44,78.90 382.41,98.57 383.38,103.65 C 384.36,108.72 385.33,104.91 386.31,101.74 C 387.28,98.57 388.26,85.88 389.23,84.61 C 390.21,83.34 391.18,90.96 392.15,94.13 C 393.13,97.30 394.10,103.65 395.08,103.65 C 396.05,103.65 397.03,96.67 398.00,94.13 C 398.97,91.59 399.95,87.78 400.92,88.42 C 401.90,89.05 402.87,99.84 403.85,97.94 C 404.82,96.03 405.79,82.39 406.77,77.00 C 407.74,71.61 408.72,66.53 409.69,65.58 C 410.67,64.63 411.64,69.07 412.62,71.29 C 413.59,73.51 414.56,81.76 415.54,78.90 C 416.51,76.05 417.49,56.06 418.46,54.16 C 419.44,52.26 420.41,67.17 421.38,67.48 C 422.36,67.80 423.33,60.19 424.31,56.06 C 425.28,51.94 426.26,45.60 427.23,42.74 C 428.21,39.89 429.18,34.18 430.15,38.94 C 431.13,43.69 432.10,64.63 433.08,71.29 C 434.05,77.95 435.03,75.73 436.00,78.90 C 436.97,82.08 437.95,87.47 438.92,90.32 C 439.90,93.18 440.87,94.45 441.85,96.03 C 442.82,97.62 443.79,98.89 444.77,99.84 C 445.74,100.79 446.72,101.42 447.69,101.74 C 448.67,102.06 449.64,101.11 450.62,101.74 C 451.59,102.38 452.56,102.69 453.54,105.55 C 454.51,108.40 455.49,117.92 456.46,118.87 C 457.44,119.82 458.41,112.53 459.38,111.26 C 460.36,109.99 461.33,111.89 462.31,111.26 C 463.28,110.62 464.26,109.99 465.23,107.45 C 466.21,104.91 467.18,98.89 468.15,96.03 C 469.13,93.18 470.10,89.69 471.08,90.32 C 472.05,90.96 473.03,98.57 474.00,99.84 C 474.97,101.11 475.95,101.42 476.92,97.94 C 477.90,94.45 478.87,79.85 479.85,78.90 C 480.82,77.95 481.79,90.01 482.77,92.23 C 483.74,94.45 484.72,94.76 485.69,92.23 C 486.67,89.69 487.64,81.76 488.62,77.00 C 489.59,72.24 490.56,63.04 491.54,63.68 C 492.51,64.31 493.49,77.95 494.46,80.81 C 495.44,83.66 496.41,81.12 497.38,80.81 C 498.36,80.49 499.33,77.95 500.31,78.90 C 501.28,79.85 502.26,83.98 503.23,86.52 C 504.21,89.05 505.18,95.40 506.15,94.13 C 507.13,92.86 508.10,82.71 509.08,78.90 C 510.05,75.10 511.03,71.61 512.00,71.29 C 512.97,70.97 513.95,74.15 514.92,77.00 C 515.90,79.85 516.87,86.52 517.85,88.42 C 518.82,90.32 519.79,88.10 520.77,88.42 C 521.74,88.74 522.72,88.74 523.69,90.32 C 524.67,91.91 525.64,96.03 526.62,97.94 C 527.59,99.84 528.56,101.74 529.54,101.74 C 530.51,101.74 531.49,98.25 532.46,97.94 C 533.44,97.62 534.41,96.98 535.38,99.84 C 536.36,102.69 537.33,113.16 538.31,115.06 C 539.28,116.97 540.26,112.53 541.23,111.26 C 542.21,109.99 543.18,109.35 544.15,107.45 C 545.13,105.55 546.10,102.06 547.08,99.84 C 548.05,97.62 549.03,100.79 550.00,94.13 C 550.97,87.47 551.95,63.99 552.92,59.87 C 553.90,55.75 554.87,67.80 555.85,69.39 C 556.82,70.97 557.79,69.39 558.77,69.39 C 559.74,69.39 560.72,69.39 561.69,69.39 C 562.67,69.39 563.64,64.63 564.62,69.39 C 565.59,74.15 566.56,99.20 567.54,97.94 C 568.51,96.67 569.49,67.17 570.46,61.77 C 571.44,56.38 572.41,63.36 573.38,65.58 C 574.36,67.80 575.33,72.88 576.31,75.10 C 577.28,77.32 578.26,78.90 579.23,78.90 C 580.21,78.90 581.18,72.88 582.15,75.10 C 583.13,77.32 584.10,92.86 585.08,92.23 C 586.05,91.59 587.03,80.49 588.00,71.29 C 588.97,62.09 589.95,43.38 590.92,37.03 C 591.90,30.69 592.87,31.64 593.85,33.23 C 594.82,34.81 595.79,42.74 596.77,46.55 C 597.74,50.35 598.72,53.21 599.69,56.06 C 600.67,58.92 601.64,58.28 602.62,63.68 C 603.59,69.07 604.56,85.25 605.54,88.42 C 606.51,91.59 607.49,85.25 608.46,82.71 C 609.44,80.17 610.41,74.46 611.38,73.19 C 612.36,71.92 613.33,73.83 614.31,75.10 C 615.28,76.37 616.26,79.54 617.23,80.81 C 618.21,82.08 619.18,80.81 620.15,82.71 C 621.13,84.61 622.10,89.69 623.08,92.23 C 624.05,94.76 625.03,96.67 626.00,97.94 C 626.97,99.20 627.95,100.47 628.92,99.84 C 629.90,99.20 630.87,96.98 631.85,94.13 C 632.82,91.27 633.79,83.34 634.77,82.71 C 635.74,82.08 636.72,89.37 637.69,90.32 C 638.67,91.27 639.64,91.91 640.62,88.42 C 641.59,84.93 642.56,70.34 643.54,69.39 C 644.51,68.44 645.49,79.85 646.46,82.71 C 647.44,85.56 648.41,90.01 649.38,86.52 C 650.36,83.03 651.33,65.58 652.31,61.77 C 653.28,57.97 654.26,60.51 655.23,63.68 C 656.21,66.85 657.18,78.90 658.15,80.81 C 659.13,82.71 660.10,75.10 661.08,75.10 C 662.05,75.10 663.03,77.95 664.00,80.81 C 664.97,83.66 665.95,91.59 666.92,92.23 C 667.90,92.86 668.87,89.37 669.85,84.61 C 670.82,79.85 671.79,68.44 672.77,63.68 C 673.74,58.92 674.72,56.06 675.69,56.06 C 676.67,56.06 677.64,61.46 678.62,63.68 C 679.59,65.90 680.56,66.85 681.54,69.39 C 682.51,71.92 683.49,73.51 684.46,78.90 C 685.44,84.30 686.41,96.35 687.38,101.74 C 688.36,107.13 689.33,109.35 690.31,111.26 C 691.28,113.16 692.26,119.51 693.23,113.16 C 694.21,106.82 695.18,80.17 696.15,73.19 C 697.13,66.22 698.10,70.66 699.08,71.29 C 700.05,71.92 701.03,76.68 702.00,77.00 C 702.97,77.32 703.95,76.37 704.92,73.19 C 705.90,70.02 706.87,52.89 707.85,57.97 C 708.82,63.04 709.79,96.67 710.77,103.65 C 711.74,110.62 712.72,103.96 713.69,99.84 C 714.67,95.72 715.64,82.08 716.62,78.90 C 717.59,75.73 718.56,77.63 719.54,80.81 C 720.51,83.98 721.49,97.30 722.46,97.94 C 723.44,98.57 724.41,86.83 725.38,84.61 C 726.36,82.39 727.33,86.52 728.31,84.61 C 729.28,82.71 730.26,74.78 731.23,73.19 C 732.21,71.61 733.18,76.37 734.15,75.10 C 735.13,73.83 736.10,64.95 737.08,65.58 C 738.05,66.22 739.03,76.68 740.00,78.90 C 740.97,81.12 741.95,74.78 742.92,78.90 C 743.90,83.03 744.87,101.74 745.85,103.65 C 746.82,105.55 747.79,91.91 748.77,90.32 C 749.74,88.74 750.72,96.35 751.69,94.13 C 752.67,91.91 753.64,79.85 754.62,77.00 C 755.59,74.15 756.56,75.73 757.54,77.00 C 758.51,78.27 759.49,80.49 760.46,84.61 C 761.44,88.74 762.41,98.89 763.38,101.74 C 764.36,104.60 765.33,99.20 766.31,101.74 C 767.28,104.28 768.26,116.65 769.23,116.97 C 770.21,117.28 771.18,108.09 772.15,103.65 C 773.13,99.20 774.10,93.49 775.08,90.32 C 776.05,87.15 777.03,85.88 778.00,84.61 C 778.97,83.34 779.95,83.66 780.92,82.71 C 781.90,81.76 782.87,77.32 783.85,78.90 C 784.82,80.49 785.79,91.27 786.77,92.23 C 787.74,93.18 788.72,91.59 789.69,84.61 C 790.67,77.63 791.64,58.92 792.62,50.35 C 793.59,41.79 794.56,37.67 795.54,33.23 C 796.51,28.78 797.49,24.03 798.46,23.71 C 799.44,23.39 800.41,27.20 801.38,31.32 C 802.36,35.45 803.33,40.52 804.31,48.45 C 805.28,56.38 806.26,70.66 807.23,78.90 C 808.21,87.15 809.18,95.72 810.15,97.94 C 811.13,100.16 812.10,96.03 813.08,92.23 C 814.05,88.42 815.03,77.95 816.00,75.10 C 816.97,72.24 817.95,73.51 818.92,75.10 C 819.90,76.68 820.87,83.34 821.85,84.61 C 822.82,85.88 823.79,82.08 824.77,82.71 C 825.74,83.34 826.72,84.93 827.69,88.42 C 828.67,91.91 829.64,102.38 830.62,103.65 C 831.59,104.91 832.56,98.57 833.54,96.03 C 834.51,93.49 835.49,90.01 836.46,88.42 C 837.44,86.83 838.41,83.66 839.38,86.52 C 840.36,89.37 841.33,102.06 842.31,105.55 C 843.28,109.04 844.26,105.55 845.23,107.45 C 846.21,109.35 847.18,115.70 848.15,116.97 C 849.13,118.24 850.10,120.14 851.08,115.06 C 852.05,109.99 853.03,92.54 854.00,86.52 C 854.97,80.49 855.95,81.76 856.92,78.90 C 857.90,76.05 858.87,70.66 859.85,69.39 C 860.82,68.12 861.79,70.02 862.77,71.29 C 863.74,72.56 864.72,72.24 865.69,77.00 C 866.67,81.76 867.64,98.25 868.62,99.84 C 869.59,101.42 870.56,88.74 871.54,86.52 C 872.51,84.30 873.49,90.32 874.46,86.52 C 875.44,82.71 876.41,68.75 877.38,63.68 C 878.36,58.60 879.33,54.80 880.31,56.06 C 881.28,57.33 882.26,66.22 883.23,71.29 C 884.21,76.37 885.18,84.61 886.15,86.52 C 887.13,88.42 888.10,83.66 889.08,82.71 C 890.05,81.76 891.03,84.30 892.00,80.81 C 892.97,77.32 893.95,67.17 894.92,61.77 C 895.90,56.38 896.87,50.35 897.85,48.45 C 898.82,46.55 899.79,47.82 900.77,50.35 C 901.74,52.89 902.72,61.14 903.69,63.68 C 904.67,66.22 905.64,63.36 906.62,65.58 C 907.59,67.80 908.56,74.46 909.54,77.00 C 910.51,79.54 911.49,83.98 912.46,80.81 C 913.44,77.63 914.41,63.99 915.38,57.97 C 916.36,51.94 917.33,45.28 918.31,44.65 C 919.28,44.01 920.26,50.67 921.23,54.16 C 922.21,57.65 923.18,62.41 924.15,65.58 C 925.13,68.75 926.10,67.48 927.08,73.19 C 928.05,78.90 929.03,96.98 930.00,99.84 C 930.97,102.69 931.95,92.86 932.92,90.32 C 933.90,87.78 934.87,86.20 935.85,84.61 C 936.82,83.03 937.79,83.98 938.77,80.81 C 939.74,77.63 940.72,68.44 941.69,65.58 C 942.67,62.73 943.64,61.46 944.62,63.68 C 945.59,65.90 946.56,76.05 947.54,78.90 C 948.51,81.76 949.49,80.17 950.46,80.81 C 951.44,81.44 952.41,81.12 953.38,82.71 C 954.36,84.30 955.33,93.81 956.31,90.32 C 957.28,86.83 958.26,68.44 959.23,61.77 C 960.21,55.11 961.18,49.72 962.15,50.35 C 963.13,50.99 964.10,61.77 965.08,65.58 C 966.05,69.39 967.03,70.97 968.00,73.19 C 968.97,75.41 969.95,78.59 970.92,78.90 C 971.90,79.22 972.87,75.10 973.85,75.10 C 974.82,75.10 975.79,80.49 976.77,78.90 C 977.74,77.32 978.72,75.73 979.69,65.58 C 980.67,55.43 981.64,25.30 982.62,18.00 C 983.59,10.70 984.56,16.73 985.54,21.81 C 986.51,26.88 987.49,44.01 988.46,48.45 C 989.44,52.89 990.41,49.40 991.38,48.45 C 992.36,47.50 993.33,37.35 994.31,42.74 C 995.28,48.13 996.26,76.37 997.23,80.81 C 998.21,85.25 999.18,70.34 1000.15,69.39 C 1001.13,68.44 1002.10,72.24 1003.08,75.10 C 1004.05,77.95 1005.03,81.76 1006.00,86.52 C 1006.97,91.27 1007.95,100.47 1008.92,103.65 C 1009.90,106.82 1010.87,105.87 1011.85,105.55 C 1012.82,105.23 1013.79,103.65 1014.77,101.74 C 1015.74,99.84 1016.72,97.30 1017.69,94.13 C 1018.67,90.96 1019.64,84.30 1020.62,82.71 C 1021.59,81.12 1022.56,82.71 1023.54,84.61 C 1024.51,86.52 1025.49,90.01 1026.46,94.13 C 1027.44,98.25 1028.41,107.13 1029.38,109.35 C 1030.36,111.58 1031.33,106.82 1032.31,107.45 C 1033.28,108.09 1034.26,115.38 1035.23,113.16 C 1036.21,110.94 1037.18,99.52 1038.15,94.13 C 1039.13,88.74 1040.10,87.47 1041.08,80.81 C 1042.05,74.15 1043.03,57.02 1044.00,54.16 C 1044.97,51.31 1045.95,61.46 1046.92,63.68 C 1047.90,65.90 1048.87,63.36 1049.85,67.48 C 1050.82,71.61 1051.79,86.52 1052.77,88.42 C 1053.74,90.32 1054.72,77.95 1055.69,78.90 C 1056.67,79.85 1057.64,92.23 1058.62,94.13 C 1059.59,96.03 1060.56,92.23 1061.54,90.32 C 1062.51,88.42 1063.49,84.61 1064.46,82.71 C 1065.44,80.81 1066.41,76.68 1067.38,78.90 C 1068.36,81.12 1069.33,91.27 1070.31,96.03 C 1071.28,100.79 1072.26,105.23 1073.23,107.45 C 1074.21,109.67 1075.18,107.37 1076.15,109.35 C 1077.13,111.34 1078.10,117.55 1079.08,119.35 C 1080.05,121.14 1081.51,120.01 1082.00,120.14" fill="none" stroke="url(#lineGrad)" stroke-width="2" stroke-linecap="round" stroke-linejoin="round"
        stroke-dasharray="4464" stroke-dashoffset="4464">
    <animate attributeName="stroke-dashoffset" from="4464" to="0" dur="2.5s" fill="freeze" begin="0s"/>
  </path>

  <circle cx="982.62" cy="18.00" r="0" fill="#8658E3" stroke="#DADADA" stroke-width="1.2">
    <animate attributeName="r" values="0;4;3" keyTimes="0;0.6;1" dur="0.6s" begin="2.4s" fill="freeze"/>
  </circle>

  <text x="1082" y="144" text-anchor="end" font-size="11"
        font-family="JetBrains Mono, Fira Code, ui-monospace, monospace" fill="#DADADA" opacity="0">
    2181 contributions · last 365 days
    <animate attributeName="opacity" from="0" to="0.55" dur="0.8s" begin="2.6s" fill="freeze"/>
  </text>
</svg>
