<svg xmlns="http://www.w3.org/2000/svg" viewBox="0 0 1040 200" width="100%" preserveAspectRatio="xMidYMid meet" role="img" aria-label="stats summary for Wint3rNight">
  <rect x="0.5" y="0.5" width="1039" height="199" rx="10" fill="#211E28" stroke="#47346E" stroke-width="1"/>
  <g text-anchor="middle" font-family="JetBrains Mono, Fira Code, ui-monospace, monospace"><text x="160" y="78" font-size="36" font-weight="700" fill="#DADADA">12</text><text x="160" y="102" font-size="12" fill="#7A7A7A">public repos</text></g><line x1="280" y1="48" x2="280" y2="106" stroke="#47346E" stroke-width="1"/><g text-anchor="middle" font-family="JetBrains Mono, Fira Code, ui-monospace, monospace"><text x="400" y="78" font-size="36" font-weight="700" fill="#DADADA">150</text><text x="400" y="102" font-size="12" fill="#7A7A7A">contributions / year</text></g><line x1="520" y1="48" x2="520" y2="106" stroke="#47346E" stroke-width="1"/><g text-anchor="middle" font-family="JetBrains Mono, Fira Code, ui-monospace, monospace"><text x="640" y="78" font-size="36" font-weight="700" fill="#DADADA">7</text><text x="640" y="102" font-size="12" fill="#7A7A7A">languages used</text></g><line x1="760" y1="48" x2="760" y2="106" stroke="#47346E" stroke-width="1"/><g text-anchor="middle" font-family="JetBrains Mono, Fira Code, ui-monospace, monospace"><text x="880" y="78" font-size="36" font-weight="700" fill="#DADADA">3.2</text><text x="880" y="102" font-size="12" fill="#7A7A7A">years on github</text></g>
  <g>
    <clipPath id="barClip"><rect x="40" y="150" width="960" height="14" rx="4"/></clipPath>
    <g clip-path="url(#barClip)"><rect x="40.00" y="150" width="384.00" height="14" fill="#3572A5"/><rect x="424.00" y="150" width="192.00" height="14" fill="#f34b7d"/><rect x="616.00" y="150" width="192.00" height="14" fill="#178600"/><rect x="808.00" y="150" width="96.00" height="14" fill="#555555"/><rect x="904.00" y="150" width="96.00" height="14" fill="#563d7c"/></g>
    <rect x="40" y="150" width="960" height="14" rx="4" fill="none" stroke="#47346E" stroke-width="0.6"/>
  </g>
  <g transform="translate(40 182)" font-family="JetBrains Mono, Fira Code, ui-monospace, monospace"><circle cx="6" cy="-4" r="5" fill="#3572A5"/><text x="18" y="0" font-size="11" fill="#DADADA" opacity="0.9">Python <tspan fill="#7A7A7A">40%</tspan></text></g><g transform="translate(232 182)" font-family="JetBrains Mono, Fira Code, ui-monospace, monospace"><circle cx="6" cy="-4" r="5" fill="#f34b7d"/><text x="18" y="0" font-size="11" fill="#DADADA" opacity="0.9">C++ <tspan fill="#7A7A7A">20%</tspan></text></g><g transform="translate(424 182)" font-family="JetBrains Mono, Fira Code, ui-monospace, monospace"><circle cx="6" cy="-4" r="5" fill="#178600"/><text x="18" y="0" font-size="11" fill="#DADADA" opacity="0.9">C# <tspan fill="#7A7A7A">20%</tspan></text></g><g transform="translate(616 182)" font-family="JetBrains Mono, Fira Code, ui-monospace, monospace"><circle cx="6" cy="-4" r="5" fill="#555555"/><text x="18" y="0" font-size="11" fill="#DADADA" opacity="0.9">C <tspan fill="#7A7A7A">10%</tspan></text></g><g transform="translate(808 182)" font-family="JetBrains Mono, Fira Code, ui-monospace, monospace"><circle cx="6" cy="-4" r="5" fill="#563d7c"/><text x="18" y="0" font-size="11" fill="#DADADA" opacity="0.9">CSS <tspan fill="#7A7A7A">10%</tspan></text></g>
</svg>
