<svg xmlns="http://www.w3.org/2000/svg" viewBox="0 0 1040 224" width="100%" preserveAspectRatio="xMidYMid meet" role="img" aria-label="stats summary for Wint3rNight">
  <rect x="0.5" y="0.5" width="1039" height="223" rx="10" fill="#211E28" stroke="#47346E" stroke-width="1"/>
  <g text-anchor="middle" font-family="JetBrains Mono, Fira Code, ui-monospace, monospace"><text x="160" y="78" font-size="36" font-weight="700" fill="#DADADA">12</text><text x="160" y="102" font-size="12" fill="#7A7A7A">public repos</text></g><line x1="280" y1="48" x2="280" y2="106" stroke="#47346E" stroke-width="1"/><g text-anchor="middle" font-family="JetBrains Mono, Fira Code, ui-monospace, monospace"><text x="400" y="78" font-size="36" font-weight="700" fill="#DADADA">168</text><text x="400" y="102" font-size="12" fill="#7A7A7A">contributions / year</text></g><line x1="520" y1="48" x2="520" y2="106" stroke="#47346E" stroke-width="1"/><g text-anchor="middle" font-family="JetBrains Mono, Fira Code, ui-monospace, monospace"><text x="640" y="78" font-size="36" font-weight="700" fill="#DADADA">14</text><text x="640" y="102" font-size="12" fill="#7A7A7A">languages used</text></g><line x1="760" y1="48" x2="760" y2="106" stroke="#47346E" stroke-width="1"/><g text-anchor="middle" font-family="JetBrains Mono, Fira Code, ui-monospace, monospace"><text x="880" y="78" font-size="36" font-weight="700" fill="#DADADA">3.2</text><text x="880" y="102" font-size="12" fill="#7A7A7A">years on github</text></g>
  <g>
    <clipPath id="barClip"><rect x="40" y="150" width="960" height="14" rx="4"/></clipPath>
    <g clip-path="url(#barClip)"><rect x="40.00" y="150" width="239.85" height="14" fill="#555555"/> <rect x="279.85" y="150" width="201.76" height="14" fill="#f34b7d"/> <rect x="481.61" y="150" width="195.86" height="14" fill="#e34c26"/> <rect x="677.47" y="150" width="108.91" height="14" fill="#3572A5"/> <rect x="786.38" y="150" width="98.74" height="14" fill="#178600"/> <rect x="885.12" y="150" width="55.56" height="14" fill="#6f42c1"/> <rect x="940.68" y="150" width="12.07" height="14" fill="#5686a5"/> <rect x="952.75" y="150" width="11.42" height="14" fill="#aace60"/> <rect x="964.18" y="150" width="11.24" height="14" fill="#563d7c"/> <rect x="975.42" y="150" width="9.98" height="14" fill="#f1e05a"/> <rect x="985.40" y="150" width="8.85" height="14" fill="#dd1100"/> <rect x="994.26" y="150" width="5.74" height="14" fill="#89e051"/></g>
    <rect x="40" y="150" width="960" height="14" rx="4" fill="none" stroke="#47346E" stroke-width="0.6"/>
  </g>
  <g transform="translate(40 182)" font-family="JetBrains Mono, Fira Code, ui-monospace, monospace"><circle cx="6" cy="-4" r="5" fill="#555555"/><text x="18" y="0" font-size="11" fill="#DADADA" opacity="0.9">C <tspan fill="#7A7A7A">25.0%</tspan></text></g><g transform="translate(200 182)" font-family="JetBrains Mono, Fira Code, ui-monospace, monospace"><circle cx="6" cy="-4" r="5" fill="#f34b7d"/><text x="18" y="0" font-size="11" fill="#DADADA" opacity="0.9">C++ <tspan fill="#7A7A7A">21.0%</tspan></text></g><g transform="translate(360 182)" font-family="JetBrains Mono, Fira Code, ui-monospace, monospace"><circle cx="6" cy="-4" r="5" fill="#e34c26"/><text x="18" y="0" font-size="11" fill="#DADADA" opacity="0.9">HTML <tspan fill="#7A7A7A">20.4%</tspan></text></g><g transform="translate(520 182)" font-family="JetBrains Mono, Fira Code, ui-monospace, monospace"><circle cx="6" cy="-4" r="5" fill="#3572A5"/><text x="18" y="0" font-size="11" fill="#DADADA" opacity="0.9">Python <tspan fill="#7A7A7A">11.3%</tspan></text></g><g transform="translate(680 182)" font-family="JetBrains Mono, Fira Code, ui-monospace, monospace"><circle cx="6" cy="-4" r="5" fill="#178600"/><text x="18" y="0" font-size="11" fill="#DADADA" opacity="0.9">C# <tspan fill="#7A7A7A">10.3%</tspan></text></g><g transform="translate(840 182)" font-family="JetBrains Mono, Fira Code, ui-monospace, monospace"><circle cx="6" cy="-4" r="5" fill="#6f42c1"/><text x="18" y="0" font-size="11" fill="#DADADA" opacity="0.9">ShaderLab <tspan fill="#7A7A7A">5.8%</tspan></text></g><g transform="translate(40 206)" font-family="JetBrains Mono, Fira Code, ui-monospace, monospace"><circle cx="6" cy="-4" r="5" fill="#5686a5"/><text x="18" y="0" font-size="11" fill="#DADADA" opacity="0.9">GLSL <tspan fill="#7A7A7A">1.3%</tspan></text></g><g transform="translate(200 206)" font-family="JetBrains Mono, Fira Code, ui-monospace, monospace"><circle cx="6" cy="-4" r="5" fill="#aace60"/><text x="18" y="0" font-size="11" fill="#DADADA" opacity="0.9">HLSL <tspan fill="#7A7A7A">1.2%</tspan></text></g><g transform="translate(360 206)" font-family="JetBrains Mono, Fira Code, ui-monospace, monospace"><circle cx="6" cy="-4" r="5" fill="#563d7c"/><text x="18" y="0" font-size="11" fill="#DADADA" opacity="0.9">CSS <tspan fill="#7A7A7A">1.2%</tspan></text></g><g transform="translate(520 206)" font-family="JetBrains Mono, Fira Code, ui-monospace, monospace"><circle cx="6" cy="-4" r="5" fill="#f1e05a"/><text x="18" y="0" font-size="11" fill="#DADADA" opacity="0.9">JavaScript <tspan fill="#7A7A7A">1.0%</tspan></text></g><g transform="translate(680 206)" font-family="JetBrains Mono, Fira Code, ui-monospace, monospace"><circle cx="6" cy="-4" r="5" fill="#dd1100"/><text x="18" y="0" font-size="11" fill="#DADADA" opacity="0.9">Wolfram Language <tspan fill="#7A7A7A">0.9%</tspan></text></g><g transform="translate(840 206)" font-family="JetBrains Mono, Fira Code, ui-monospace, monospace"><circle cx="6" cy="-4" r="5" fill="#89e051"/><text x="18" y="0" font-size="11" fill="#DADADA" opacity="0.9">Shell <tspan fill="#7A7A7A">0.6%</tspan></text></g>
</svg>
