<svg xmlns="http://www.w3.org/2000/svg" viewBox="0 0 1040 104" width="100%" preserveAspectRatio="xMidYMid meet" role="img" aria-label="stats summary for Wint3rNight">
  <rect x="0.5" y="0.5" width="1039" height="103" rx="10" fill="#211E28" stroke="#47346E" stroke-width="1"/>
  
  <g>
    <clipPath id="barClip"><rect x="40" y="28" width="960" height="14" rx="4"/></clipPath>
    <g clip-path="url(#barClip)"><rect x="40.00" y="28" width="258.88" height="14" fill="#f34b7d"/> <rect x="298.88" y="28" width="209.66" height="14" fill="#555555"/> <rect x="508.54" y="28" width="171.08" height="14" fill="#e34c26"/> <rect x="679.62" y="28" width="104.49" height="14" fill="#3572A5"/> <rect x="784.12" y="28" width="86.25" height="14" fill="#178600"/> <rect x="870.36" y="28" width="48.53" height="14" fill="#6f42c1"/> <rect x="918.90" y="28" width="27.21" height="14" fill="#5686a5"/> <rect x="946.10" y="28" width="17.64" height="14" fill="#76b900"/> <rect x="963.75" y="28" width="9.98" height="14" fill="#aace60"/> <rect x="973.73" y="28" width="9.82" height="14" fill="#563d7c"/> <rect x="983.55" y="28" width="8.72" height="14" fill="#f1e05a"/> <rect x="992.27" y="28" width="7.73" height="14" fill="#dd1100"/></g>
    <rect x="40" y="28" width="960" height="14" rx="4" fill="none" stroke="#47346E" stroke-width="0.6"/>
  </g>
  <g transform="translate(40 60)" font-family="JetBrains Mono, Fira Code, ui-monospace, monospace"><circle cx="6" cy="-4" r="5" fill="#f34b7d"/><text x="18" y="0" font-size="11" fill="#DADADA" opacity="0.9">C++ <tspan fill="#7A7A7A">27.0%</tspan></text></g><g transform="translate(200 60)" font-family="JetBrains Mono, Fira Code, ui-monospace, monospace"><circle cx="6" cy="-4" r="5" fill="#555555"/><text x="18" y="0" font-size="11" fill="#DADADA" opacity="0.9">C <tspan fill="#7A7A7A">21.8%</tspan></text></g><g transform="translate(360 60)" font-family="JetBrains Mono, Fira Code, ui-monospace, monospace"><circle cx="6" cy="-4" r="5" fill="#e34c26"/><text x="18" y="0" font-size="11" fill="#DADADA" opacity="0.9">HTML <tspan fill="#7A7A7A">17.8%</tspan></text></g><g transform="translate(520 60)" font-family="JetBrains Mono, Fira Code, ui-monospace, monospace"><circle cx="6" cy="-4" r="5" fill="#3572A5"/><text x="18" y="0" font-size="11" fill="#DADADA" opacity="0.9">Python <tspan fill="#7A7A7A">10.9%</tspan></text></g><g transform="translate(680 60)" font-family="JetBrains Mono, Fira Code, ui-monospace, monospace"><circle cx="6" cy="-4" r="5" fill="#178600"/><text x="18" y="0" font-size="11" fill="#DADADA" opacity="0.9">C# <tspan fill="#7A7A7A">9.0%</tspan></text></g><g transform="translate(840 60)" font-family="JetBrains Mono, Fira Code, ui-monospace, monospace"><circle cx="6" cy="-4" r="5" fill="#6f42c1"/><text x="18" y="0" font-size="11" fill="#DADADA" opacity="0.9">ShaderLab <tspan fill="#7A7A7A">5.1%</tspan></text></g><g transform="translate(40 84)" font-family="JetBrains Mono, Fira Code, ui-monospace, monospace"><circle cx="6" cy="-4" r="5" fill="#5686a5"/><text x="18" y="0" font-size="11" fill="#DADADA" opacity="0.9">GLSL <tspan fill="#7A7A7A">2.8%</tspan></text></g><g transform="translate(200 84)" font-family="JetBrains Mono, Fira Code, ui-monospace, monospace"><circle cx="6" cy="-4" r="5" fill="#76b900"/><text x="18" y="0" font-size="11" fill="#DADADA" opacity="0.9">Cuda <tspan fill="#7A7A7A">1.8%</tspan></text></g><g transform="translate(360 84)" font-family="JetBrains Mono, Fira Code, ui-monospace, monospace"><circle cx="6" cy="-4" r="5" fill="#aace60"/><text x="18" y="0" font-size="11" fill="#DADADA" opacity="0.9">HLSL <tspan fill="#7A7A7A">1.0%</tspan></text></g><g transform="translate(520 84)" font-family="JetBrains Mono, Fira Code, ui-monospace, monospace"><circle cx="6" cy="-4" r="5" fill="#563d7c"/><text x="18" y="0" font-size="11" fill="#DADADA" opacity="0.9">CSS <tspan fill="#7A7A7A">1.0%</tspan></text></g><g transform="translate(680 84)" font-family="JetBrains Mono, Fira Code, ui-monospace, monospace"><circle cx="6" cy="-4" r="5" fill="#f1e05a"/><text x="18" y="0" font-size="11" fill="#DADADA" opacity="0.9">JavaScript <tspan fill="#7A7A7A">0.9%</tspan></text></g><g transform="translate(840 84)" font-family="JetBrains Mono, Fira Code, ui-monospace, monospace"><circle cx="6" cy="-4" r="5" fill="#dd1100"/><text x="18" y="0" font-size="11" fill="#DADADA" opacity="0.9">Wolfram Language <tspan fill="#7A7A7A">0.8%</tspan></text></g>
</svg>
